<svg width="121" height="121" viewBox="0 0 121 121" fill="none" xmlns="http://www.w3.org/2000/svg">
<path d="M12.2019 102.001V38.3274C12.2019 36.258 13.878 34.5818 15.9474 34.5818H105.84C107.909 34.5818 109.585 36.258 109.585 38.3274V102.001" fill="#A8B0BC"/>
<path d="M91.3335 69.7017C91.3335 56.5231 86.9737 44.3633 79.6231 34.5818H15.9474C13.878 34.5818 12.2019 36.258 12.2019 38.3274V102.001H81.6083C87.7472 92.7441 91.3335 81.6443 91.3335 69.7017Z" fill="#C1C8D1"/>
<path d="M102.094 96.3829H19.693C18.6592 96.3829 17.8202 95.5439 17.8202 94.5101V42.0729C17.8202 41.0391 18.6592 40.2001 19.693 40.2001H102.094C103.128 40.2001 103.967 41.0391 103.967 42.0729V94.5101C103.967 95.5439 103.128 96.3829 102.094 96.3829Z" fill="#C7E2FC"/>
<path d="M17.8202 42.0729V94.5101C17.8202 95.5439 18.6592 96.3829 19.693 96.3829H84.8912C89 88.3806 91.3335 79.3164 91.3335 69.7017C91.3335 58.9389 88.4157 48.8635 83.3443 40.2001H19.693C18.6592 40.2001 17.8202 41.0391 17.8202 42.0729Z" fill="#EBF7FE"/>
<path d="M17.8202 83.2736L27.184 73.9098L34.675 81.4008L44.0388 72.037L64.6392 87.0191L90.8578 68.2915L103.967 79.5281V94.5101C103.967 95.5439 103.128 96.3829 102.094 96.3829H19.693C18.6592 96.3829 17.8202 95.5439 17.8202 94.5101V83.2736Z" fill="#F2C351"/>
<path d="M91.2979 68.6679L90.8578 68.2915L64.6392 87.0191L44.0388 72.037L34.675 81.4008L27.184 73.9098L17.8202 83.2736V94.5101C17.8202 95.5439 18.6592 96.3829 19.693 96.3829H84.8912C89 88.3806 91.3335 79.3164 91.3335 69.7017C91.3335 69.3552 91.3035 69.0144 91.2979 68.6679Z" fill="#F7D881"/>
<path d="M49.657 103.874C49.657 104.908 50.496 105.747 51.5298 105.747H70.2574C71.2912 105.747 72.1302 104.908 72.1302 103.874C72.1302 102.84 72.9692 102.001 74.0029 102.001H115.204C116.237 102.001 117.076 102.84 117.076 103.874V109.492C117.076 113.629 113.722 116.983 109.585 116.983H12.2019C8.06493 116.983 4.71082 113.629 4.71082 109.492V103.874C4.71082 102.84 5.54981 102.001 6.58358 102.001H47.7843C48.8181 102.001 49.657 102.84 49.657 103.874Z" fill="#758190"/>
<path d="M74.0029 102.001C72.9692 102.001 72.1302 102.84 72.1302 103.874C72.1302 104.908 71.2912 105.747 70.2574 105.747H51.5298C50.496 105.747 49.6571 104.908 49.6571 103.874C49.6571 102.84 48.8181 102.001 47.7843 102.001H6.58358C5.54981 102.001 4.71082 102.84 4.71082 103.874V109.492C4.71082 113.629 8.06493 116.983 12.2019 116.983H67.2797C72.898 112.882 77.7559 107.807 81.6063 102.001H74.0029Z" fill="#8892A0"/>
<path d="M10.3291 107.619H21.5657V111.365H10.3291V107.619Z" fill="#A8B0BC"/>
<path d="M100.222 107.619H111.458V111.365H100.222V107.619Z" fill="#A8B0BC"/>
<path d="M81.4939 28.9635V21.4725H75.385C75.031 20.1017 74.4917 18.8094 73.7894 17.6184L78.108 13.2998L72.8118 8.00362L68.4932 12.3222C67.3022 11.6199 66.0099 11.0806 64.6391 10.7266V4.61768H57.1481V10.7266C55.7772 11.0806 54.485 11.6199 53.2939 12.3222L48.9753 8.00362L43.6792 13.2998L47.9977 17.6184C47.2955 18.8076 46.7561 20.1017 46.4022 21.4725H40.2932V28.9635H46.4022C46.7561 30.3344 47.2955 31.6266 47.9977 32.8177L43.6792 37.1363L48.9753 42.4324L53.2939 38.1138C54.4831 38.8161 55.7772 39.3555 57.1481 39.7094V45.8184H64.6391V39.7094C66.0099 39.3555 67.3022 38.8161 68.4932 38.1138L72.8118 42.4324L78.108 37.1363L73.7894 32.8177C74.4917 31.6285 75.031 30.3363 75.385 28.9635H81.4939Z" fill="#999999"/>
<path d="M60.8936 32.7091C65.0308 32.7091 68.3847 29.3552 68.3847 25.218C68.3847 21.0808 65.0308 17.727 60.8936 17.727C56.7564 17.727 53.4026 21.0808 53.4026 25.218C53.4026 29.3552 56.7564 32.7091 60.8936 32.7091Z" fill="#E6E6E6"/>
<path d="M21.6033 22.6055L19.1443 20.1466L16.4944 22.7966L22.1127 28.4148C22.4779 28.78 22.9573 28.9617 23.4386 28.9617C23.918 28.9617 24.3974 28.78 24.7626 28.4148L30.3809 22.7966L27.7309 20.1466L25.3525 22.525C25.7833 13.6125 33.1488 6.49044 42.1662 6.49044V2.74492C31.0551 2.74492 21.9966 11.5918 21.6033 22.6055Z" fill="#E47C6E"/>
<path d="M102.641 20.1466L100.182 22.6055C99.789 11.59 90.7286 2.74492 79.6212 2.74492V6.49044C88.6386 6.49044 96.0022 13.6144 96.433 22.5269L94.0546 20.1485L91.4046 22.7984L97.0229 28.4167C97.3881 28.78 97.8675 28.9636 98.3469 28.9636C98.8264 28.9636 99.3058 28.7819 99.6729 28.4167L105.291 22.7984L102.641 20.1466Z" fill="#E47C6E"/>
<path d="M60.8936 53.3094L53.4026 62.6732H57.1481V75.7826H64.6391V62.6732H68.3847L60.8936 53.3094Z" fill="#E47C6E"/>
<path d="M25.3112 81.4008H29.0567V96.3829H25.3112V81.4008Z" fill="#E39854"/>
<path d="M40.2932 81.399H44.0387V96.381H40.2932V81.399Z" fill="#E39854"/>
<path d="M62.7664 90.7646H66.5119V96.3829H62.7664V90.7646Z" fill="#E39854"/>
<path d="M70.2574 88.8919H74.003V96.3829H70.2574V88.8919Z" fill="#E39854"/>
<path d="M77.7484 83.2736H81.4939V96.3829H77.7484V83.2736Z" fill="#E39854"/>
<path d="M55.2754 90.7646H59.0209V96.3829H55.2754V90.7646Z" fill="#E39854"/>
<path d="M92.7305 77.6553H96.476V96.3829H92.7305V77.6553Z" fill="#C16B3F"/>
<path d="M85.2395 77.6534H88.985V96.381H85.2395V77.6534Z" fill="#E39854"/>
<path d="M32.8022 87.0191H36.5478V96.3829H32.8022V87.0191Z" fill="#E39854"/>
<path d="M47.7843 83.2717H51.5298V96.381H47.7843V83.2717Z" fill="#E39854"/>
</svg>
