<svg width="136" height="135" viewBox="0 0 136 135" fill="none" xmlns="http://www.w3.org/2000/svg">
<g clip-path="url(#clip0)">
<path d="M28.5193 18.96V32.8618V74.5675V116.273H107.297V102.371V60.6655V18.96H28.5193Z" fill="#EBBA16"/>
<path d="M99.7293 134.809H36.0866C31.9067 134.809 28.5193 131.421 28.5193 127.242V116.273H107.297V127.242C107.297 131.421 103.909 134.809 99.7293 134.809Z" fill="#777777"/>
<path d="M74.8585 127.858H60.9565C59.6775 127.858 58.6394 126.822 58.6394 125.541C58.6394 124.259 59.6775 123.224 60.9565 123.224H74.8585C76.1375 123.224 77.1756 124.259 77.1756 125.541C77.1753 126.822 76.1375 127.858 74.8585 127.858Z" fill="#AFB6BB"/>
<path d="M95.7121 127.858H86.4443C85.1653 127.858 84.1272 126.822 84.1272 125.541C84.1272 124.259 85.1653 123.224 86.4443 123.224H95.7121C96.9911 123.224 98.0292 124.259 98.0292 125.541C98.0292 126.822 96.9911 127.858 95.7121 127.858Z" fill="#AFB6BB"/>
<path d="M49.372 127.858H40.1042C38.8252 127.858 37.7871 126.822 37.7871 125.541C37.7871 124.259 38.8252 123.224 40.1042 123.224H49.372C50.651 123.224 51.6891 124.259 51.6891 125.541C51.6891 126.822 50.651 127.858 49.372 127.858Z" fill="#AFB6BB"/>
<path d="M36.0866 0.424133H99.7316C103.909 0.424133 107.297 3.81157 107.297 7.99141V18.96H28.5193V7.99141C28.5193 3.81157 31.9067 0.424133 36.0866 0.424133Z" fill="#777777"/>
<path d="M79.4928 12.0091H56.3229C55.0439 12.0091 54.0059 10.9733 54.0059 9.69197C54.0059 8.41059 55.0439 7.37488 56.3229 7.37488H79.4928C80.7718 7.37488 81.8098 8.41059 81.8098 9.69197C81.8098 10.9733 80.7718 12.0091 79.4928 12.0091Z" fill="#AFB6BB"/>
<path d="M60.9572 32.8618H0.71582V74.5675H60.9572V32.8618Z" fill="#23A24D"/>
<path d="M129.714 102.371H80.2463C77.2712 102.371 74.8594 99.9591 74.8594 96.9843V73.0034C74.8594 70.0283 77.2715 67.6165 80.2463 67.6165H129.714C132.689 67.6165 135.101 70.0286 135.101 73.0034V96.9843C135.101 99.9591 132.689 102.371 129.714 102.371Z" fill="#366DB6"/>
<path d="M30.8362 62.9823C35.9547 62.9823 40.104 58.833 40.104 53.7145C40.104 48.596 35.9547 44.4467 30.8362 44.4467C25.7177 44.4467 21.5684 48.596 21.5684 53.7145C21.5684 58.833 25.7177 62.9823 30.8362 62.9823Z" fill="#187F38"/>
<path d="M0.71582 46.7638V32.8618H14.6178C14.6178 40.5403 8.39438 46.7638 0.71582 46.7638Z" fill="#187F38"/>
<path d="M60.9574 46.7638V32.8618H47.0554C47.0557 40.5403 53.2791 46.7638 60.9574 46.7638Z" fill="#187F38"/>
<path d="M60.9574 60.6655V74.5675H47.0554C47.0557 66.8889 53.2791 60.6655 60.9574 60.6655Z" fill="#187F38"/>
<path d="M0.71582 60.6655V74.5675H14.6178C14.6178 66.8889 8.39438 60.6655 0.71582 60.6655Z" fill="#187F38"/>
<path d="M135.101 74.5675H74.8594V66.0527C74.8594 63.0776 77.2715 60.6657 80.2463 60.6657H129.714C132.689 60.6657 135.101 63.0778 135.101 66.0527V74.5675Z" fill="#1F436D"/>
<path d="M93.395 93.1031H84.1271C82.8481 93.1031 81.8101 92.0674 81.8101 90.786C81.8101 89.5047 82.8481 88.4689 84.1271 88.4689H93.395C94.674 88.4689 95.7121 89.5047 95.7121 90.786C95.7121 92.0677 94.674 93.1031 93.395 93.1031Z" fill="white"/>
<path d="M125.833 93.1031H116.565C115.286 93.1031 114.248 92.0674 114.248 90.786C114.248 89.5047 115.286 88.4689 116.565 88.4689H125.833C127.112 88.4689 128.15 89.5047 128.15 90.786C128.15 92.0677 127.112 93.1031 125.833 93.1031Z" fill="white"/>
<path d="M107.297 93.1031H102.663C101.384 93.1031 100.346 92.0674 100.346 90.786C100.346 89.5047 101.384 88.4689 102.663 88.4689H107.297C108.576 88.4689 109.614 89.5047 109.614 90.786C109.614 92.0677 108.576 93.1031 107.297 93.1031Z" fill="white"/>
<path d="M12.3005 109.322C11.0215 109.322 9.9834 108.287 9.9834 107.005V86.1524C9.9834 84.871 11.0215 83.8353 12.3005 83.8353C13.5795 83.8353 14.6176 84.871 14.6176 86.1524V107.005C14.6176 108.287 13.5795 109.322 12.3005 109.322Z" fill="#366DB6"/>
<path d="M5.34935 95.4202C4.75617 95.4202 4.16298 95.1932 3.71127 94.7415C2.80523 93.8354 2.80523 92.3711 3.71127 91.4653L10.6623 84.5143C11.566 83.6083 13.0347 83.6083 13.9384 84.5143C14.8445 85.4204 14.8445 86.8847 13.9384 87.7905L6.98743 94.7415C6.53571 95.1932 5.94253 95.4202 5.34935 95.4202Z" fill="#366DB6"/>
<path d="M19.2515 95.4202C18.6583 95.4202 18.0651 95.1932 17.6134 94.7415L10.6624 87.7905C9.7564 86.8844 9.7564 85.4201 10.6624 84.5143C11.5661 83.6083 13.0349 83.6083 13.9386 84.5143L20.8896 91.4653C21.7956 92.3714 21.7956 93.8357 20.8896 94.7415C20.4376 95.1932 19.8447 95.4202 19.2515 95.4202Z" fill="#366DB6"/>
<path d="M123.516 51.3977C122.237 51.3977 121.199 50.362 121.199 49.0806V28.2279C121.199 26.9465 122.237 25.9108 123.516 25.9108C124.795 25.9108 125.833 26.9465 125.833 28.2279V49.0806C125.833 50.362 124.795 51.3977 123.516 51.3977Z" fill="#DD352E"/>
<path d="M123.516 51.3976C122.923 51.3976 122.33 51.1706 121.878 50.7189C120.972 49.8128 120.972 48.3485 121.878 47.4427L128.829 40.4917C129.733 39.5857 131.201 39.5857 132.105 40.4917C133.011 41.3978 133.011 42.8621 132.105 43.7679L125.154 50.7189C124.702 51.1706 124.109 51.3976 123.516 51.3976Z" fill="#DD352E"/>
<path d="M123.516 51.3976C122.923 51.3976 122.33 51.1706 121.878 50.7189L114.927 43.7679C114.021 42.8618 114.021 41.3975 114.927 40.4917C115.831 39.5857 117.299 39.5857 118.203 40.4917L125.154 47.4427C126.06 48.3488 126.06 49.8131 125.154 50.7189C124.702 51.1706 124.109 51.3976 123.516 51.3976Z" fill="#DD352E"/>
</g>
<defs>
<clipPath id="clip0">
<rect width="134.385" height="134.385" fill="white" transform="translate(0.71582 0.424133)"/>
</clipPath>
</defs>
</svg>
