<svg width="139" height="121" viewBox="0 0 139 121" fill="none" xmlns="http://www.w3.org/2000/svg">
<g clip-path="url(#clip0)">
<path d="M91.3003 59.5995L88.8156 61.3344C86.8974 62.6737 84.6477 63.9112 82.1282 65.0124C79.7523 66.051 77.1253 66.9772 74.3203 67.765L73.7511 67.9248L73.6087 68.4983C72.3623 73.5141 70.6454 78.0627 68.5057 82.018C67.4937 83.8885 66.3842 85.6221 65.2078 87.1704L62.8733 90.2437L66.4188 88.7194C77.8133 83.8206 86.5413 74.2574 90.3646 62.482L91.3003 59.5995Z" fill="url(#paint0_linear)"/>
<path d="M22.7489 62.9058L24.3308 63.4407L24.0797 61.7899C23.4609 57.7249 23.1473 53.5054 23.1473 49.2487C23.1473 44.9919 23.4611 40.7722 24.0797 36.7074L24.3308 35.0566L22.7489 35.5916C12.6184 39.0169 6.57056 44.1224 6.57056 49.2485C6.57056 54.3745 12.6184 59.4801 22.7489 62.9058Z" fill="url(#paint1_linear)"/>
<path d="M47.4787 6.41391L46.1728 6.80194C42.8478 7.7895 39.6182 10.3044 36.8324 14.0747C34.1666 17.6825 31.888 22.4574 30.2432 27.8823L29.7573 29.4854L31.4035 29.1764C36.1879 28.279 41.264 27.7487 46.4908 27.6003L47.4786 27.5722V6.41391H47.4787Z" fill="url(#paint2_linear)"/>
<path d="M46.1728 91.695L47.4788 92.0831V70.9244L46.491 70.8963C41.2642 70.7481 36.1879 70.2177 31.4037 69.3202L29.7576 69.0112L30.2435 70.6142C31.8883 76.0393 34.1668 80.8141 36.8326 84.4219C39.6181 88.1926 42.8478 90.7075 46.1728 91.695Z" fill="url(#paint3_linear)"/>
<path d="M83.4701 15.2893C74.3995 6.21847 62.3393 1.22314 49.5115 1.22314C36.6837 1.22314 24.6235 6.21847 15.5529 15.2893C6.48234 24.36 1.48682 36.42 1.48682 49.2478C1.48682 62.0756 6.48215 74.1359 15.5529 83.2064C24.6237 92.277 36.6837 97.2725 49.5115 97.2725C62.3393 97.2725 74.3995 92.2772 83.4701 83.2064C92.5407 74.1357 97.5362 62.0756 97.5362 49.2478C97.5362 36.42 92.5409 24.3598 83.4701 15.2893ZM28.2294 49.2478C28.2294 44.1756 28.7161 39.2801 29.5986 34.7335C34.5845 33.6062 40.2613 32.8688 46.4617 32.6849V65.8106C40.2611 65.6267 34.5845 64.8895 29.5986 63.762C28.7161 59.2156 28.2294 54.3201 28.2294 49.2478ZM23.0739 61.9422C13.3828 58.6649 7.58643 53.8055 7.58643 49.2478C7.58643 44.6902 13.3828 39.8308 23.0739 36.5535C22.452 40.6395 22.13 44.9011 22.13 49.2478C22.13 53.5946 22.4519 57.8562 23.0739 61.9422ZM67.8073 28.1769C63.0031 27.2756 57.8639 26.7342 52.5613 26.5838V7.77578C58.9767 9.6815 64.5629 17.4759 67.8073 28.1769ZM46.4617 7.77578V26.5838C41.1591 26.7342 36.0199 27.2756 31.2157 28.1769C34.4601 17.4759 40.0464 9.6815 46.4617 7.77578ZM46.4617 71.9119V90.7199C40.0464 88.8142 34.4599 81.0198 31.2157 70.3188C36.0199 71.2201 41.1593 71.7615 46.4617 71.9119ZM52.5613 90.7199V71.9119C57.8639 71.7615 63.0031 71.2201 67.8073 70.3188C64.5629 81.0198 58.9767 88.8142 52.5613 90.7199ZM52.5613 65.8108V32.6849C58.7619 32.8688 64.4385 33.606 69.4244 34.7335C70.307 39.2801 70.7936 44.1756 70.7936 49.2478C70.7936 54.3201 70.307 59.2156 69.4244 63.7622C64.4385 64.8895 58.7617 65.6269 52.5613 65.8108ZM75.9491 36.5535C85.6402 39.8308 91.4366 44.6902 91.4366 49.2478C91.4366 53.8055 85.6402 58.6649 75.9491 61.9422C76.571 57.8562 76.893 53.5946 76.893 49.2478C76.893 44.9011 76.5712 40.6395 75.9491 36.5535ZM89.397 36.3285C87.4382 34.9606 85.1466 33.694 82.5348 32.5525C80.0903 31.4839 77.4278 30.5485 74.5947 29.7526C73.3414 24.709 71.5953 20.0538 69.399 15.9945C68.3478 14.0513 67.2158 12.2896 66.0167 10.7108C77.0523 15.4554 85.6558 24.8057 89.397 36.3285ZM33.0063 10.711C31.8072 12.2898 30.6752 14.0515 29.624 15.9947C27.4278 20.0542 25.6818 24.7092 24.4283 29.7528C21.5952 30.5485 18.9327 31.4839 16.4882 32.5526C13.8766 33.6942 11.5848 34.9606 9.62598 36.3287C13.3672 24.8057 21.9708 15.4554 33.0063 10.711ZM9.62598 62.1672C11.5848 63.5351 13.8764 64.8017 16.4882 65.9432C18.9327 67.0118 21.5952 67.9472 24.4283 68.7431C25.6816 73.7867 27.4278 78.4418 29.624 82.5011C30.6752 84.4444 31.8072 86.2061 33.0063 87.7849C21.9708 83.0403 13.3672 73.6899 9.62598 62.1672ZM66.0167 87.7847C67.2158 86.2059 68.3478 84.4442 69.399 82.5009C71.5953 78.4415 73.3412 73.7865 74.5947 68.7429C77.4278 67.9472 80.0903 67.0118 82.5348 65.943C85.1464 64.8015 87.4382 63.5351 89.397 62.167C85.6558 73.6899 77.0523 83.0403 66.0167 87.7847Z" fill="url(#paint4_linear)"/>
<path d="M14.536 82.1255C13.7579 79.7031 12.5936 70.6817 12.6814 67.985C12.8941 61.4621 15.8797 55.621 20.4816 51.5907L22.5523 54.7889C23.865 56.8164 26.8962 56.6062 27.9163 54.4169L35.711 37.6884C36.6682 35.6343 35.1478 33.2861 32.8818 33.3186L14.4283 33.5843C12.0133 33.6191 10.5809 36.2986 11.8935 38.3262L13.9148 41.448C6.03268 47.7481 0.767573 57.2946 0.483185 67.7748C0.453189 68.8816 0.636435 70.5931 0.920245 72.504C1.88666 79.0097 8.0828 83.3967 14.536 82.1255Z" fill="url(#paint5_linear)"/>
<path d="M84.5125 16.3673C84.5046 16.3688 84.4966 16.37 84.4887 16.3715C85.2668 18.7939 86.4311 27.8153 86.3433 30.512C86.1406 36.727 83.4196 42.3217 79.1828 46.3221L76.3437 43.5235C74.9712 41.6956 72.0966 41.9594 71.1084 44.0801L63.3137 60.8086C62.6614 62.2082 63.16 63.7438 64.2605 64.5702L83.1808 83.4905C83.2773 83.3957 83.3752 83.303 83.4709 83.2073C92.5419 74.1365 97.5372 62.0763 97.5372 49.2485C97.5372 36.9214 92.922 25.3048 84.5125 16.3673Z" fill="url(#paint6_linear)"/>
<path d="M84.4885 16.3715C85.2667 18.7939 86.431 27.8153 86.3431 30.512C86.1304 37.0349 83.1448 42.876 78.5429 46.9063L76.4722 43.7081C75.1595 41.6806 72.1284 41.8908 71.1083 44.0801L63.3135 60.8086C62.3563 62.8628 63.8767 65.2109 66.1428 65.1784L84.5962 64.9127C87.0113 64.8779 88.4436 62.1984 87.1311 60.1708L85.1098 57.0491C92.9919 50.7493 98.257 41.2028 98.5415 30.7226C98.5715 29.6158 98.3883 27.9043 98.1045 25.9934C97.1379 19.4873 90.9417 15.1003 84.4885 16.3715Z" fill="url(#paint7_linear)"/>
</g>
<g clip-path="url(#clip1)">
<path d="M116.922 98.4947C116.032 99.431 114.534 99.431 113.645 98.4947L107.231 92.1278C106.295 91.1914 106.295 89.6932 107.231 88.8041C108.121 87.8677 109.619 87.8677 110.555 88.8041L116.922 95.2178C117.858 96.1072 117.858 97.6053 116.922 98.4947Z" fill="#08469C"/>
<path d="M116.922 98.4947C116.032 99.431 114.534 99.431 113.645 98.4947L107.231 92.1277C106.295 91.1914 106.295 89.6932 107.231 88.8041L116.922 98.4947Z" fill="#063E8B"/>
<path d="M136.422 108.076L120.246 91.8938C119.356 90.9574 117.858 90.9574 116.922 91.8938L113.645 95.2178L110.321 98.4946C109.385 99.431 109.385 100.929 110.321 101.819L126.498 118.001C129.26 120.763 133.66 120.763 136.423 118.001C139.185 115.286 139.185 110.792 136.422 108.076Z" fill="#0A4EAF"/>
<path d="M136.422 118.001C133.66 120.763 129.26 120.763 126.498 118.001L110.321 101.819C109.384 100.929 109.384 99.4312 110.321 98.4948L113.645 95.218L136.422 118.001Z" fill="#08469C"/>
<path d="M110.508 49.1043C98.6165 37.1664 79.4221 37.2134 67.5308 49.1043C55.5929 60.9955 55.6399 80.1899 67.5308 92.081C79.422 104.019 98.6163 103.972 110.508 92.081C122.446 80.19 122.399 60.9957 110.508 49.1043Z" fill="#08469C"/>
<path d="M110.508 92.0809C98.6167 103.972 79.4224 104.019 67.531 92.0809C55.6401 80.19 55.5931 60.9955 67.531 49.1043L110.508 92.0809Z" fill="#08469C"/>
<path d="M89.0198 44.8443C81.9036 44.8443 75.49 47.7469 70.8085 52.3816C66.1737 57.0631 63.2712 63.4768 63.2712 70.5928C63.2712 84.7777 74.8346 96.3413 89.0198 96.3413C96.1359 96.3413 102.549 93.4387 107.231 88.8039C111.866 84.1224 114.768 77.7083 114.768 70.5926C114.768 56.4076 103.205 44.8443 89.0198 44.8443Z" fill="#CAE8F9"/>
<path d="M63.2712 70.5928C63.2712 84.7777 74.8346 96.3413 89.0198 96.3413C96.1359 96.3413 102.549 93.4387 107.231 88.804L70.8085 52.3816C66.1737 57.0631 63.2712 63.4766 63.2712 70.5928Z" fill="#B7E0F6"/>
</g>
<defs>
<linearGradient id="paint0_linear" x1="23.4216" y1="21.2562" x2="78.5617" y2="76.3965" gradientUnits="userSpaceOnUse">
<stop stop-color="#EDF5FF"/>
<stop offset="1" stop-color="#D5E8FE"/>
</linearGradient>
<linearGradient id="paint1_linear" x1="8.17054" y1="36.5078" x2="63.3106" y2="91.6479" gradientUnits="userSpaceOnUse">
<stop stop-color="#EDF5FF"/>
<stop offset="1" stop-color="#D5E8FE"/>
</linearGradient>
<linearGradient id="paint2_linear" x1="32.6731" y1="12.0047" x2="87.8132" y2="67.1451" gradientUnits="userSpaceOnUse">
<stop stop-color="#EDF5FF"/>
<stop offset="1" stop-color="#D5E8FE"/>
</linearGradient>
<linearGradient id="paint3_linear" x1="4.47267" y1="40.2052" x2="59.6128" y2="95.3456" gradientUnits="userSpaceOnUse">
<stop stop-color="#EDF5FF"/>
<stop offset="1" stop-color="#D5E8FE"/>
</linearGradient>
<linearGradient id="paint4_linear" x1="27.6081" y1="9.96454" x2="65.0186" y2="77.0595" gradientUnits="userSpaceOnUse">
<stop stop-color="#B5DBFF"/>
<stop offset="1" stop-color="#48B2E3"/>
</linearGradient>
<linearGradient id="paint5_linear" x1="7.32636" y1="45.5953" x2="24.6082" y2="61.0474" gradientUnits="userSpaceOnUse">
<stop stop-color="#0B799D"/>
<stop offset="1" stop-color="#07485E"/>
</linearGradient>
<linearGradient id="paint6_linear" x1="100.012" y1="66.1154" x2="80.2202" y2="46.3239" gradientUnits="userSpaceOnUse">
<stop stop-color="#B5DBFF" stop-opacity="0"/>
<stop offset="0.1734" stop-color="#8FC5E9" stop-opacity="0.173"/>
<stop offset="0.4541" stop-color="#56A4C8" stop-opacity="0.454"/>
<stop offset="0.6955" stop-color="#2D8DB1" stop-opacity="0.696"/>
<stop offset="0.8853" stop-color="#147EA2" stop-opacity="0.885"/>
<stop offset="1" stop-color="#0B799D"/>
</linearGradient>
<linearGradient id="paint7_linear" x1="76.3972" y1="39.249" x2="90.426" y2="51.6515" gradientUnits="userSpaceOnUse">
<stop stop-color="#0B799D"/>
<stop offset="1" stop-color="#07485E"/>
</linearGradient>
<clipPath id="clip0">
<rect width="98.0645" height="98.0645" fill="white" transform="translate(0.480225 0.216232)"/>
</clipPath>
<clipPath id="clip1">
<rect width="79.9044" height="79.9044" fill="white" transform="translate(58.5925 40.1685)"/>
</clipPath>
</defs>
</svg>
