<svg width="113" height="114" viewBox="0 0 113 114" fill="none" xmlns="http://www.w3.org/2000/svg">
<g clip-path="url(#clip0)">
<path d="M97.2776 2.44543H15.7452H6.04087C2.82407 2.44543 0.215088 5.05441 0.215088 8.27099V76.2129H15.7452H44.864H68.159H97.2778H112.808V8.27099C112.808 5.05441 110.199 2.44521 106.982 2.44521H97.2776V2.44543Z" fill="#AFB6BB"/>
<path d="M105.042 10.2105H7.97986V72.3306H105.042V10.2105Z" fill="#28384C"/>
<path d="M106.982 87.8605H6.04087C2.82407 87.8605 0.215088 85.2515 0.215088 82.035V72.3307H112.808V82.035C112.808 85.2515 110.199 87.8605 106.982 87.8605Z" fill="#AFB6BB"/>
<path d="M62.3354 82.0368H50.6878C49.6162 82.0368 48.7465 81.167 48.7465 80.0954C48.7465 79.0238 49.6162 78.1541 50.6878 78.1541H62.3354C63.407 78.1541 64.2768 79.0238 64.2768 80.0954C64.2768 81.167 63.407 82.0368 62.3354 82.0368Z" fill="white"/>
<path d="M81.7479 111.155H31.2752C29.1302 111.155 27.3927 109.418 27.3927 107.273C27.3927 105.128 29.1302 103.39 31.2752 103.39H81.7477C83.8926 103.39 85.6301 105.128 85.6301 107.273C85.6303 109.418 83.8928 111.155 81.7479 111.155Z" fill="#AFB6BB"/>
<path d="M66.2175 87.8604H46.805C46.805 96.4447 43.7417 103.391 35.1573 103.391H77.8649C69.2808 103.391 66.2175 96.4447 66.2175 87.8604Z" fill="#6C797A"/>
</g>
<g clip-path="url(#clip1)">
<path d="M68.1345 24.9089C61.9134 24.9089 56.8706 28.1975 56.8706 34.5415C56.8706 40.8856 61.9134 46.0275 68.1345 46.0275C74.3549 46.0275 79.3973 40.8856 79.3973 34.5415C79.3973 28.1975 74.3549 24.9089 68.1345 24.9089Z" fill="#FBC4AC"/>
<path d="M59.0947 34.5416C59.0947 28.5802 63.5475 23.6804 69.2464 23.1111C68.8805 23.0742 68.5098 23.0552 68.1345 23.0552C61.9134 23.0552 56.8706 28.1975 56.8706 34.5416C56.8706 40.8856 61.9134 46.0275 68.1345 46.0275C68.5098 46.0275 68.8805 46.0086 69.2464 45.972C63.5475 45.4024 59.0947 40.5026 59.0947 34.5416Z" fill="#E3B098"/>
<path d="M74.1378 36.9498C73.7538 36.9498 73.4427 36.6388 73.4427 36.2547V35.0873C73.4427 34.7035 73.7538 34.3922 74.1378 34.3922C74.5219 34.3922 74.8329 34.7035 74.8329 35.0873V36.2547C74.8329 36.6388 74.5219 36.9498 74.1378 36.9498Z" fill="#3A484A"/>
<path d="M74.9328 38.6657H73.343C72.959 38.6657 72.6479 38.3544 72.6479 37.9706C72.6479 37.5869 72.959 37.2755 73.343 37.2755H74.9328C75.3169 37.2755 75.6279 37.5869 75.6279 37.9706C75.6279 38.3544 75.3169 38.6657 74.9328 38.6657Z" fill="#F98084"/>
<path d="M62.1298 36.9498C61.7457 36.9498 61.4347 36.6388 61.4347 36.2547V35.0873C61.4347 34.7035 61.7457 34.3922 62.1298 34.3922C62.5139 34.3922 62.8249 34.7035 62.8249 35.0873V36.2547C62.8249 36.6388 62.5139 36.9498 62.1298 36.9498Z" fill="#3A484A"/>
<path d="M62.9248 38.6657H61.335C60.9509 38.6657 60.6399 38.3544 60.6399 37.9706C60.6399 37.5869 60.9509 37.2755 61.335 37.2755H62.9248C63.3089 37.2755 63.6199 37.5869 63.6199 37.9706C63.6199 38.3544 63.3089 38.6657 62.9248 38.6657Z" fill="#F98084"/>
<path d="M68.1337 38.5997C67.5145 38.5997 66.9325 38.34 66.5365 37.887C66.2838 37.5978 66.3137 37.1589 66.6026 36.9062C66.8918 36.6535 67.3307 36.6831 67.5834 36.9723C67.7151 37.123 67.9158 37.2095 68.1337 37.2095C68.3516 37.2095 68.5526 37.123 68.6843 36.9719C68.937 36.6831 69.3759 36.6535 69.6651 36.9062C69.9544 37.1589 69.9839 37.5981 69.7309 37.887C69.3352 38.34 68.7529 38.5997 68.1337 38.5997Z" fill="#3A484A"/>
<path d="M78.8583 31.0218C78.0848 21.6053 74.2878 23.0552 68.1345 23.0552C63.4825 23.0552 61.2485 22.5896 60.2969 22.2926C59.9163 22.1735 59.5066 22.345 59.3256 22.7003C58.5658 24.1913 56.8706 28.2249 56.8706 34.5415C56.8706 34.5415 59.5645 29.6903 68.1341 29.6903C72.1209 29.6903 71.7875 31.0218 78.8583 31.0218Z" fill="#C86D5C"/>
<path d="M61.55 22.7003C61.5676 22.6658 61.5876 22.6335 61.6094 22.6029C61.0219 22.4958 60.5959 22.3858 60.2969 22.2926C59.9163 22.1735 59.5066 22.345 59.3256 22.7003C58.5658 24.1913 56.8706 28.2249 56.8706 34.5415C56.8706 34.5415 57.5155 33.3815 59.1755 32.1962C59.5203 27.2205 60.8887 23.9973 61.55 22.7003Z" fill="#AD4F3D"/>
<path d="M33.759 56.3844V63.7891C33.759 65.6336 35.1461 67.1837 36.9797 67.3875L42.3019 67.9797L33.759 56.3844Z" fill="#3A484A"/>
<path d="M56.2693 56.3844V63.7891C56.2693 65.6336 54.8827 67.1837 53.049 67.3875L47.7268 67.9797L56.2693 56.3844Z" fill="#3A484A"/>
<path d="M56.2693 56.3844C56.2686 56.3855 56.2686 56.3855 56.2686 56.3855L44.7643 47.6883L33.7601 56.3855L33.7591 56.3844C33.7538 56.5324 33.751 56.68 33.751 56.8289C33.751 63.173 38.7934 68.3156 45.0142 68.3156C51.2353 68.3156 56.2777 63.173 56.2777 56.8289C56.2777 56.6803 56.2749 56.5324 56.2693 56.3844Z" fill="#FBC4AC"/>
<path d="M35.6223 56.0186C35.014 56.1887 34.3916 56.3155 33.7601 56.3855L33.7591 56.3844C33.7538 56.5324 33.751 56.6799 33.751 56.8289C33.751 63.173 38.7934 68.3156 45.0142 68.3156C45.3357 68.3156 45.6537 68.3012 45.9683 68.2742C40.3748 67.7632 35.9322 62.5278 35.6223 56.0186Z" fill="#E3B098"/>
<path d="M39.0102 59.2372C38.6264 59.2372 38.3151 58.9262 38.3151 58.5421V57.3747C38.3151 56.9909 38.6264 56.6796 39.0102 56.6796C39.3943 56.6796 39.7053 56.9909 39.7053 57.3747V58.5421C39.7053 58.9262 39.3943 59.2372 39.0102 59.2372Z" fill="#3A484A"/>
<path d="M39.805 60.9532H38.2152C37.8311 60.9532 37.5201 60.6422 37.5201 60.2581C37.5201 59.8743 37.8311 59.563 38.2152 59.563H39.805C40.1891 59.563 40.5001 59.8743 40.5001 60.2581C40.5001 60.6422 40.1891 60.9532 39.805 60.9532Z" fill="#F98084"/>
<path d="M51.0185 59.2372C50.6347 59.2372 50.3234 58.9262 50.3234 58.5421V57.3747C50.3234 56.9909 50.6347 56.6796 51.0185 56.6796C51.4026 56.6796 51.7136 56.9909 51.7136 57.3747V58.5421C51.7136 58.9262 51.4026 59.2372 51.0185 59.2372Z" fill="#3A484A"/>
<path d="M51.8135 60.9532H50.2237C49.8396 60.9532 49.5286 60.6422 49.5286 60.2581C49.5286 59.8743 49.8396 59.563 50.2237 59.563H51.8135C52.1976 59.563 52.5086 59.8743 52.5086 60.2581C52.5086 60.6422 52.1976 60.9532 51.8135 60.9532Z" fill="#F98084"/>
<path d="M45.0142 60.8874C44.395 60.8874 43.813 60.6277 43.417 60.1744C43.1643 59.8855 43.1942 59.4463 43.4831 59.1936C43.7719 58.9413 44.2112 58.9708 44.4639 59.2597C44.5956 59.4108 44.7963 59.4972 45.0142 59.4972C45.2321 59.4972 45.4331 59.4108 45.5648 59.2597C45.8175 58.9708 46.2568 58.9413 46.5456 59.194C46.8349 59.4466 46.8644 59.8855 46.6117 60.1748C46.2157 60.6277 45.6334 60.8874 45.0142 60.8874Z" fill="#3A484A"/>
<path d="M33.759 56.3844L33.7601 56.3855C39.8051 55.7167 45.0141 49.878 45.0141 49.878C45.0141 49.878 50.2235 55.7167 56.2685 56.3855C56.2685 56.3855 56.2685 56.3855 56.2692 56.3844C56.0405 50.2466 51.0894 45.343 45.0141 45.343C38.9392 45.343 33.9882 50.2466 33.759 56.3844Z" fill="#3A484A"/>
<path d="M45.9876 45.3862C45.6667 45.3581 45.3424 45.343 45.0141 45.343C38.9392 45.343 33.9882 50.2466 33.759 56.3848L33.7601 56.3855C34.4281 56.3117 34.9805 56.2038 35.6222 56.0186C36.0211 50.3952 40.4932 45.8655 45.9876 45.3862Z" fill="#323E40"/>
<path d="M51.9897 37.912V30.9691C51.9897 28.4888 49.9793 26.478 47.4987 26.478H38.2421C35.7618 26.478 33.751 28.4888 33.751 30.9691V37.3139C33.751 39.7941 35.7618 41.8046 38.2421 41.8046H54.1407L51.9897 37.912Z" fill="#58B78C"/>
<path d="M47.7184 31.6641H38.0225C37.6387 31.6641 37.3274 31.3528 37.3274 30.969C37.3274 30.5849 37.6387 30.2739 38.0225 30.2739H47.7184C48.1025 30.2739 48.4135 30.5849 48.4135 30.969C48.4135 31.3528 48.1025 31.6641 47.7184 31.6641Z" fill="#EFEDEE"/>
<path d="M47.7184 34.8363H38.0225C37.6387 34.8363 37.3274 34.5253 37.3274 34.1412C37.3274 33.7575 37.6387 33.4461 38.0225 33.4461H47.7184C48.1025 33.4461 48.4135 33.7575 48.4135 34.1412C48.4135 34.5253 48.1025 34.8363 47.7184 34.8363Z" fill="#EFEDEE"/>
<path d="M44.0693 38.0089H38.0225C37.6387 38.0089 37.3274 37.6976 37.3274 37.3138C37.3274 36.9297 37.6387 36.6187 38.0225 36.6187H44.0693C44.453 36.6187 44.7644 36.9297 44.7644 37.3138C44.7644 37.6976 44.453 38.0089 44.0693 38.0089Z" fill="#EFEDEE"/>
<path d="M61.1583 60.6V53.6567C61.1583 51.1764 63.1691 49.166 65.6494 49.166H74.906C77.3863 49.166 79.3971 51.1764 79.3971 53.6567V60.0015C79.3971 62.4818 77.3863 64.4926 74.906 64.4926H59.0073L61.1583 60.6Z" fill="#F2C42C"/>
<path d="M75.1257 54.3522H65.4298C65.0457 54.3522 64.7347 54.0408 64.7347 53.6571C64.7347 53.273 65.0457 52.962 65.4298 52.962H75.1257C75.5098 52.962 75.8208 53.273 75.8208 53.6571C75.8208 54.0408 75.5095 54.3522 75.1257 54.3522Z" fill="#EFEDEE"/>
<path d="M75.1257 57.5244H65.4298C65.0457 57.5244 64.7347 57.2131 64.7347 56.8293C64.7347 56.4456 65.0457 56.1342 65.4298 56.1342H75.1257C75.5098 56.1342 75.8208 56.4456 75.8208 56.8293C75.8208 57.2131 75.5095 57.5244 75.1257 57.5244Z" fill="#EFEDEE"/>
<path d="M75.1258 60.697H69.079C68.6953 60.697 68.3839 60.3856 68.3839 60.0019C68.3839 59.6178 68.6953 59.3068 69.079 59.3068H75.1258C75.5095 59.3068 75.8209 59.6178 75.8209 60.0019C75.8209 60.3856 75.5095 60.697 75.1258 60.697Z" fill="#EFEDEE"/>
</g>
<defs>
<clipPath id="clip0">
<rect width="112.593" height="112.593" fill="white" transform="translate(0.215088 0.504166)"/>
</clipPath>
<clipPath id="clip1">
<rect width="46.0606" height="46.0606" fill="white" transform="translate(33.4811 22.255)"/>
</clipPath>
</defs>
</svg>
