<svg width="38" height="75" viewBox="0 0 38 75" fill="none" xmlns="http://www.w3.org/2000/svg">
<path d="M35.4098 8.72742H2.74429C1.31388 8.72742 0.154297 9.887 0.154297 11.3174V71.8147C0.154297 73.2452 1.31388 74.4048 2.74429 74.4048H35.4098C36.8402 74.4048 37.9998 73.2452 37.9998 71.8147V11.3174C37.9998 9.887 36.8402 8.72742 35.4098 8.72742Z" fill="#575B6D"/>
<path d="M3.49951 17.3834H34.653V31.0136H3.49951V17.3834Z" fill="#69B0EE"/>
<path d="M7.74353 40.3877H4.35899C3.88202 40.3877 3.49536 40.7744 3.49536 41.2513V44.627C3.49536 45.104 3.88202 45.4906 4.35899 45.4906H7.74353C8.22049 45.4906 8.60715 45.104 8.60715 44.627V41.2513C8.60715 40.7744 8.22049 40.3877 7.74353 40.3877Z" fill="#DBD8DD"/>
<path d="M16.4261 40.3877H13.0416C12.5646 40.3877 12.178 40.7744 12.178 41.2513V44.627C12.178 45.104 12.5646 45.4906 13.0416 45.4906H16.4261C16.9031 45.4906 17.2898 45.104 17.2898 44.627V41.2513C17.2898 40.7744 16.9031 40.3877 16.4261 40.3877Z" fill="#DBD8DD"/>
<path d="M25.108 40.3877H21.7235C21.2465 40.3877 20.8599 40.7744 20.8599 41.2513V44.627C20.8599 45.104 21.2465 45.4906 21.7235 45.4906H25.108C25.585 45.4906 25.9716 45.104 25.9716 44.627V41.2513C25.9716 40.7744 25.585 40.3877 25.108 40.3877Z" fill="#DBD8DD"/>
<path d="M33.7906 40.3877H30.4061C29.9291 40.3877 29.5425 40.7744 29.5425 41.2513V44.627C29.5425 45.104 29.9291 45.4906 30.4061 45.4906H33.7906C34.2676 45.4906 34.6543 45.104 34.6543 44.627V41.2513C34.6543 40.7744 34.2676 40.3877 33.7906 40.3877Z" fill="#69B0EE"/>
<path d="M7.74353 48.8247H4.35899C3.88202 48.8247 3.49536 49.2114 3.49536 49.6883V53.064C3.49536 53.541 3.88202 53.9276 4.35899 53.9276H7.74353C8.22049 53.9276 8.60715 53.541 8.60715 53.064V49.6883C8.60715 49.2114 8.22049 48.8247 7.74353 48.8247Z" fill="#DBD8DD"/>
<path d="M16.4261 48.8247H13.0416C12.5646 48.8247 12.178 49.2114 12.178 49.6883V53.064C12.178 53.541 12.5646 53.9276 13.0416 53.9276H16.4261C16.9031 53.9276 17.2898 53.541 17.2898 53.064V49.6883C17.2898 49.2114 16.9031 48.8247 16.4261 48.8247Z" fill="#DBD8DD"/>
<path d="M25.1085 48.8247H21.724C21.247 48.8247 20.8604 49.2114 20.8604 49.6883V53.064C20.8604 53.541 21.247 53.9276 21.724 53.9276H25.1085C25.5855 53.9276 25.9721 53.541 25.9721 53.064V49.6883C25.9721 49.2114 25.5855 48.8247 25.1085 48.8247Z" fill="#DBD8DD"/>
<path d="M33.7906 48.8247H30.4061C29.9291 48.8247 29.5425 49.2114 29.5425 49.6883V53.064C29.5425 53.541 29.9291 53.9276 30.4061 53.9276H33.7906C34.2676 53.9276 34.6543 53.541 34.6543 53.064V49.6883C34.6543 49.2114 34.2676 48.8247 33.7906 48.8247Z" fill="#F6C863"/>
<path d="M7.74353 57.2618H4.35899C3.88202 57.2618 3.49536 57.6484 3.49536 58.1254V61.5011C3.49536 61.9781 3.88202 62.3647 4.35899 62.3647H7.74353C8.22049 62.3647 8.60715 61.9781 8.60715 61.5011V58.1254C8.60715 57.6484 8.22049 57.2618 7.74353 57.2618Z" fill="#DBD8DD"/>
<path d="M16.4261 57.2618H13.0416C12.5646 57.2618 12.178 57.6484 12.178 58.1254V61.5011C12.178 61.9781 12.5646 62.3647 13.0416 62.3647H16.4261C16.9031 62.3647 17.2898 61.9781 17.2898 61.5011V58.1254C17.2898 57.6484 16.9031 57.2618 16.4261 57.2618Z" fill="#DBD8DD"/>
<path d="M25.1085 57.2618H21.724C21.247 57.2618 20.8604 57.6484 20.8604 58.1254V61.5011C20.8604 61.9781 21.247 62.3647 21.724 62.3647H25.1085C25.5855 62.3647 25.9721 61.9781 25.9721 61.5011V58.1254C25.9721 57.6484 25.5855 57.2618 25.1085 57.2618Z" fill="#DBD8DD"/>
<path d="M33.7906 57.2618H30.4061C29.9291 57.2618 29.5425 57.6484 29.5425 58.1254V69.9381C29.5425 70.415 29.9291 70.8017 30.4061 70.8017H33.7906C34.2676 70.8017 34.6543 70.415 34.6543 69.9381V58.1254C34.6543 57.6484 34.2676 57.2618 33.7906 57.2618Z" fill="#EF5261"/>
<path d="M7.74353 65.6978H4.35899C3.88202 65.6978 3.49536 66.0844 3.49536 66.5614V69.9371C3.49536 70.414 3.88202 70.8007 4.35899 70.8007H7.74353C8.22049 70.8007 8.60715 70.414 8.60715 69.9371V66.5614C8.60715 66.0844 8.22049 65.6978 7.74353 65.6978Z" fill="#DBD8DD"/>
<path d="M16.4261 65.6978H13.0416C12.5646 65.6978 12.178 66.0844 12.178 66.5614V69.9371C12.178 70.414 12.5646 70.8007 13.0416 70.8007H16.4261C16.9031 70.8007 17.2898 70.414 17.2898 69.9371V66.5614C17.2898 66.0844 16.9031 65.6978 16.4261 65.6978Z" fill="#DBD8DD"/>
<path d="M25.1085 65.6978H21.724C21.247 65.6978 20.8604 66.0844 20.8604 66.5614V69.9371C20.8604 70.414 21.247 70.8007 21.724 70.8007H25.1085C25.5855 70.8007 25.9721 70.414 25.9721 69.9371V66.5614C25.9721 66.0844 25.5855 65.6978 25.1085 65.6978Z" fill="#DBD8DD"/>
<path d="M8.28384 34.6212H3.81867C3.64011 34.6212 3.49536 34.766 3.49536 34.9445V36.4565C3.49536 36.6351 3.64011 36.7798 3.81867 36.7798H8.28384C8.4624 36.7798 8.60715 36.6351 8.60715 36.4565V34.9445C8.60715 34.766 8.4624 34.6212 8.28384 34.6212Z" fill="#F6C863"/>
<path d="M16.9665 34.6212H12.5013C12.3227 34.6212 12.178 34.766 12.178 34.9445V36.4565C12.178 36.6351 12.3227 36.7798 12.5013 36.7798H16.9665C17.145 36.7798 17.2898 36.6351 17.2898 36.4565V34.9445C17.2898 34.766 17.145 34.6212 16.9665 34.6212Z" fill="#69B0EE"/>
<path d="M25.6488 34.6212H21.1837C21.0051 34.6212 20.8604 34.766 20.8604 34.9445V36.4565C20.8604 36.6351 21.0051 36.7798 21.1837 36.7798H25.6488C25.8274 36.7798 25.9721 36.6351 25.9721 36.4565V34.9445C25.9721 34.766 25.8274 34.6212 25.6488 34.6212Z" fill="#2CBFAE"/>
<path d="M34.331 34.6212H29.8658C29.6872 34.6212 29.5425 34.766 29.5425 34.9445V36.4565C29.5425 36.6351 29.6872 36.7798 29.8658 36.7798H34.331C34.5095 36.7798 34.6543 36.6351 34.6543 36.4565V34.9445C34.6543 34.766 34.5095 34.6212 34.331 34.6212Z" fill="#EF5261"/>
<path d="M31.6508 12.1378H6.50286C5.99605 12.1378 5.58521 12.5485 5.58521 13.055C5.58521 13.5616 5.99605 13.9723 6.50286 13.9723H31.6508C32.1576 13.9723 32.5685 13.5616 32.5685 13.055C32.5685 12.5485 32.1576 12.1378 31.6508 12.1378Z" fill="#414451"/>
<path d="M7.51318 0H30.6416V13.9731H7.51318V0Z" fill="#EEEFEE"/>
<path d="M27.9186 2.38983H10.235C9.91213 2.38983 9.65039 2.65157 9.65039 2.97444C9.65039 3.29731 9.91213 3.55905 10.235 3.55905H27.9186C28.2414 3.55905 28.5032 3.29731 28.5032 2.97444C28.5032 2.65157 28.2414 2.38983 27.9186 2.38983Z" fill="#DBD8DD"/>
<path d="M27.9186 6.40143H10.235C9.91213 6.40143 9.65039 6.66317 9.65039 6.98604C9.65039 7.30891 9.91213 7.57065 10.235 7.57065H27.9186C28.2414 7.57065 28.5032 7.30891 28.5032 6.98604C28.5032 6.66317 28.2414 6.40143 27.9186 6.40143Z" fill="#DBD8DD"/>
<path d="M27.9186 10.414H10.235C9.91213 10.414 9.65039 10.6757 9.65039 10.9986C9.65039 11.3215 9.91213 11.5832 10.235 11.5832H27.9186C28.2414 11.5832 28.5032 11.3215 28.5032 10.9986C28.5032 10.6757 28.2414 10.414 27.9186 10.414Z" fill="#DBD8DD"/>
<path opacity="0.5" d="M8.81407 31.0127H7.1311L16.2714 17.3834H17.9552L8.81407 31.0127Z" fill="#EEEFEE"/>
<path opacity="0.5" d="M20.4013 31.0127H13.355L22.4961 17.3834H29.5425L20.4013 31.0127Z" fill="#EEEFEE"/>
</svg>
