<svg width="94" height="94" viewBox="0 0 94 94" fill="none" xmlns="http://www.w3.org/2000/svg">
<g clip-path="url(#clip0)">
<path d="M53.0188 57.6282C68.8063 57.6282 81.6046 44.7277 81.6046 28.8141C81.6046 12.9005 68.8063 0 53.0188 0C37.2314 0 24.4331 12.9005 24.4331 28.8141C24.4331 44.7277 37.2314 57.6282 53.0188 57.6282Z" fill="#FABE2C"/>
<path d="M53.0186 0V57.6282C68.7808 57.6282 81.6043 44.7023 81.6043 28.8141C81.6045 12.9259 68.7808 0 53.0186 0Z" fill="#FF9100"/>
<path d="M53.0186 0V57.6282C68.7808 57.6282 81.6043 44.7023 81.6043 28.8141C81.6045 12.9259 68.7808 0 53.0186 0Z" fill="#FF9100"/>
<path d="M17.2532 66.934H5.6626C4.14171 66.934 2.90869 68.167 2.90869 69.6879V91.2462C2.90869 92.7671 4.14171 94.0001 5.6626 94.0001H14.4995L20.0073 91.2462V69.6879C20.0071 68.167 18.7743 66.934 17.2532 66.934Z" fill="#9EE2F8"/>
<path d="M90.2852 66.7461C85.131 61.5917 76.744 61.5915 71.59 66.7461L63.3522 74.9838H63.3523L59.952 78.3841C58.6026 79.7335 56.7723 80.4916 54.8639 80.4916H34.7404C33.2575 80.4916 31.9815 79.352 31.9117 77.8708C31.8372 76.2893 33.0974 74.9838 34.6625 74.9838H54.0083C58.3039 74.9838 61.9943 71.4725 62.0648 67.1777C62.0661 67.1032 62.0666 67.0287 62.0666 66.9539C62.0668 65.4325 60.8342 64.1978 59.3127 64.1978H50.1687C47.1803 64.1978 44.3105 62.8422 41.2723 61.4068C38.0854 59.9016 34.7901 58.3447 30.937 58.0886C27.5672 57.864 24.1892 58.2331 20.8972 59.1837C17.1416 60.268 14.5109 63.7521 14.4995 67.6643V94H61.8741C65.1316 94 68.1943 92.7314 70.4982 90.4278L90.2854 70.6407C91.3607 69.5652 91.3607 67.8214 90.2852 66.7461Z" fill="#FFBDA9"/>
<path d="M71.5902 66.7461L63.3523 74.9838H63.3525L59.9522 78.3842C58.6027 79.7336 56.7725 80.4916 54.864 80.4916H53.0186V94.0001H61.874C65.1315 94.0001 68.1942 92.7315 70.4981 90.4279L90.2853 70.6407C91.3608 69.5654 91.3608 67.8216 90.2853 66.7461C85.1311 61.5917 76.7442 61.5916 71.5902 66.7461Z" fill="#F9A58D"/>
<path d="M62.0649 67.1777C62.0662 67.1032 62.0668 67.0286 62.0668 66.9539C62.067 65.4325 60.8343 64.1978 59.3129 64.1978H53.0186V74.9838H54.0085C58.3611 74.9838 61.9935 71.5298 62.0649 67.1777Z" fill="#F9A58D"/>
<path d="M60.948 24.5404H58.0409C57.8753 23.8913 57.6184 23.2787 57.2866 22.7152H60.948C61.9112 22.7152 62.692 21.9344 62.692 20.9712C62.692 20.008 61.9112 19.2273 60.948 19.2273H51.2024H44.4715C43.5083 19.2273 42.7275 20.008 42.7275 20.9712C42.7275 21.9344 43.5083 22.7152 44.4715 22.7152H51.2024C52.5372 22.7152 53.7025 23.4523 54.3146 24.5404H44.4715C43.5083 24.5404 42.7275 25.3211 42.7275 26.2843C42.7275 27.2475 43.5083 28.0283 44.4715 28.0283H54.3146C53.7025 29.1164 52.5372 29.8534 51.2024 29.8534H44.4716C43.7757 29.8534 43.1464 30.2671 42.8705 30.906C42.5946 31.5449 42.7251 32.2867 43.2022 32.7933L52.6867 42.8604C53.0299 43.2246 53.4926 43.4085 53.9564 43.4085C54.3854 43.4085 54.8152 43.2512 55.152 42.9338C55.8531 42.2734 55.8859 41.1696 55.2254 40.4686L48.5105 33.3413H51.2024C54.4918 33.3413 57.2625 31.0788 58.0409 28.0283H60.948C61.9112 28.0283 62.692 27.2475 62.692 26.2843C62.692 25.3211 61.9112 24.5404 60.948 24.5404Z" fill="#F68E00"/>
<path d="M63.1281 24.5404H60.221C60.0554 23.8913 59.7985 23.2787 59.4667 22.7152H63.1281C64.0913 22.7152 64.8721 21.9344 64.8721 20.9712C64.8721 20.008 64.0913 19.2273 63.1281 19.2273H53.3825H46.6517C45.6885 19.2273 44.9077 20.008 44.9077 20.9712C44.9077 21.9344 45.6885 22.7152 46.6517 22.7152H53.3825C54.7174 22.7152 55.8827 23.4523 56.4948 24.5404H46.6517C45.6885 24.5404 44.9077 25.3211 44.9077 26.2843C44.9077 27.2475 45.6885 28.0283 46.6517 28.0283H56.4948C55.8827 29.1164 54.7174 29.8534 53.3826 29.8534H46.6518C45.9558 29.8534 45.3265 30.2671 45.0507 30.906C44.7748 31.5449 44.9053 32.2867 45.3824 32.7933L54.8669 42.8604C55.21 43.2246 55.6728 43.4085 56.1366 43.4085C56.5655 43.4085 56.9953 43.2512 57.3322 42.9338C58.0333 42.2734 58.0661 41.1696 57.4056 40.4686L50.6909 33.3413H53.3827C56.6722 33.3413 59.4428 31.0788 60.2212 28.0283H63.1284C64.0916 28.0283 64.8723 27.2475 64.8723 26.2843C64.8723 25.3211 64.0913 24.5404 63.1281 24.5404Z" fill="#FFEA94"/>
</g>
<defs>
<clipPath id="clip0">
<rect width="94" height="94" fill="white"/>
</clipPath>
</defs>
</svg>
