<svg width="100" height="100" viewBox="0 0 100 100" fill="none" xmlns="http://www.w3.org/2000/svg">
<path d="M86.7002 21.6688H95.9868V55.7197H86.7002V21.6688Z" fill="#2A70AB"/>
<path d="M80.509 23.2166H86.7001V51.0764H80.509V23.2166Z" fill="#4DB7E5"/>
<path d="M80.5093 27.8599H74.3182L63.4838 23.2166H52.6494V51.0764H69.6749L74.3182 46.4331H80.5093V27.8599Z" fill="#FFBF9B"/>
<path d="M44.9107 4.64331L10.8601 22.8035L38.72 73.8799L72.7705 55.7197L44.9107 4.64331Z" fill="#448703"/>
<path d="M39.2076 49.1344L28.38 54.9149L22.5139 44.1734L33.35 38.3958L39.2076 49.1344Z" fill="#F98500"/>
<path d="M44.9104 4.64331L21.6938 17.0255L49.5537 68.1019L72.7702 55.7197L44.9104 4.64331Z" fill="#95CB37"/>
<path d="M32.6211 11.2059C34.1559 14.0844 34.4918 17.4525 33.5555 20.5773C32.6192 23.7021 30.4866 26.3307 27.6218 27.8908L21.6938 17.0256L32.6211 11.2059Z" fill="#6DBB24"/>
<path d="M44.9104 17.0255C42.6642 17.0297 40.4595 16.4208 38.5338 15.2644C36.6082 14.1079 35.0348 12.4478 33.9832 10.4629L44.9104 4.64331L50.8384 15.5086C49.0216 16.505 46.9826 17.0268 44.9104 17.0255Z" fill="#6DBB24"/>
<path d="M60.481 62.2823L49.5537 68.1019L43.6257 57.2365C45.0616 56.4513 46.6389 55.9588 48.2665 55.7876C49.894 55.6164 51.5394 55.7699 53.1071 56.2392C54.6749 56.7086 56.134 57.4844 57.3997 58.5217C58.6655 59.559 59.7128 60.8372 60.481 62.2823Z" fill="#6DBB24"/>
<path d="M72.7699 55.7197L61.8426 61.5394C60.3078 58.6609 59.9719 55.2928 60.9082 52.1679C61.8445 49.0431 63.9771 46.4146 66.8419 44.8544L72.7699 55.7197Z" fill="#6DBB24"/>
<path d="M62.4157 36.7441L39.2079 49.1344L33.3503 38.3958L56.5651 26.0181L62.4157 36.7441Z" fill="#FCA713"/>
<path d="M52.6493 35.5987C51.829 36.4198 51.3684 37.5331 51.3687 38.6938C51.369 39.8544 51.8302 40.9675 52.6509 41.7882C53.4716 42.6089 54.5846 43.0701 55.7453 43.0704C56.9059 43.0707 58.0192 42.6101 58.8404 41.7898L65.0314 35.5987C66.6734 37.2407 68.9004 38.1631 71.2225 38.1631C73.5446 38.1631 75.7716 37.2407 77.4136 35.5987L80.5091 32.5032V27.8599H74.318L63.4837 23.2166H55.0413L58.5514 29.6966L52.6493 35.5987Z" fill="#FFDAD2"/>
<path d="M3.12061 66.5541H9.31168V94.4139H3.12061V66.5541Z" fill="#2A70AB"/>
<path d="M9.31177 69.6497H15.5028V91.3184H9.31177V69.6497Z" fill="#4DB7E5"/>
<path d="M34.0762 74.2929L35.6239 75.8407H44.9105C46.142 75.8407 47.3231 76.3299 48.1939 77.2007C49.0646 78.0715 49.5539 79.2525 49.5539 80.484C49.5539 81.7155 49.0646 82.8965 48.1939 83.7673C47.3231 84.6381 46.142 85.1273 44.9105 85.1273H69.6749C70.9063 85.1273 72.0874 85.6165 72.9582 86.4873C73.829 87.3581 74.3182 88.5392 74.3182 89.7706C74.3182 91.0021 73.829 92.1832 72.9582 93.0539C72.0874 93.9247 70.9063 94.4139 69.6749 94.4139H35.9507C28.6731 94.414 21.5583 92.2598 15.5029 88.2229V74.2929C16.7225 73.0734 18.1703 72.106 19.7637 71.446C21.3571 70.786 23.0649 70.4463 24.7895 70.4463C26.5142 70.4463 28.222 70.786 29.8154 71.446C31.4088 72.106 32.8566 73.0734 34.0762 74.2929Z" fill="#FFDAD2"/>
<path d="M30.9805 86.6751C30.9805 87.0856 31.1436 87.4792 31.4338 87.7695C31.7241 88.0598 32.1177 88.2228 32.5282 88.2229H44.9104C45.3209 88.2229 45.7146 88.0598 46.0048 87.7695C46.2951 87.4793 46.4582 87.0856 46.4582 86.6751C46.4582 86.2646 46.2951 85.8709 46.0048 85.5806C45.7146 85.2904 45.3209 85.1273 44.9104 85.1273H32.5282C32.1177 85.1273 31.7241 85.2904 31.4338 85.5807C31.1436 85.8709 30.9805 86.2646 30.9805 86.6751Z" fill="#FFBF9B"/>
</svg>
