<svg width="89" height="89" viewBox="0 0 89 89" fill="none" xmlns="http://www.w3.org/2000/svg">
<path d="M73.1817 68.1406C67.7224 68.1406 62.9082 70.9519 60.1084 75.2024L62.752 89H86.2188C87.6588 89 88.8262 87.8326 88.8262 86.3926V83.7852C88.8262 75.1588 81.8081 68.1406 73.1817 68.1406Z" fill="#BEE75E"/>
<path d="M86.2188 89C87.6587 89 88.8262 87.8326 88.8262 86.3926V83.7852C88.8262 75.1588 81.808 68.1406 73.1816 68.1406V89H86.2188Z" fill="#00CB75"/>
<path d="M73.1816 73.3555C67.4307 73.3555 62.752 68.6767 62.752 62.9258C62.752 57.1749 67.4307 52.4961 73.1816 52.4961C78.9326 52.4961 83.6113 57.1749 83.6113 62.9258C83.6113 68.6767 78.9326 73.3555 73.1816 73.3555Z" fill="#FFDDCE"/>
<path d="M83.6113 62.9258C83.6113 57.1749 78.9326 52.4961 73.1816 52.4961V73.3555C78.9326 73.3555 83.6113 68.6767 83.6113 62.9258Z" fill="#FFBCA7"/>
<path d="M15.8184 68.1406C7.19197 68.1406 0.173828 75.1588 0.173828 83.7852V86.3926C0.173828 87.8326 1.34126 89 2.78125 89H26.248L28.9248 75.253C26.13 70.9744 21.2992 68.1406 15.8184 68.1406Z" fill="#FF7038"/>
<path d="M26.248 89L28.9248 75.253C26.13 70.9744 21.2992 68.1406 15.8184 68.1406V89H26.248Z" fill="#FF1F3D"/>
<path d="M15.8184 73.3555C10.0674 73.3555 5.38867 68.6767 5.38867 62.9258C5.38867 57.1749 10.0674 52.4961 15.8184 52.4961C21.5693 52.4961 26.248 57.1749 26.248 62.9258C26.248 68.6767 21.5693 73.3555 15.8184 73.3555Z" fill="#FFDDCE"/>
<path d="M26.248 62.9258C26.248 57.1749 21.5693 52.4961 15.8184 52.4961V73.3555C21.5693 73.3555 26.248 68.6767 26.248 62.9258Z" fill="#FFBCA7"/>
<path d="M44.5 27.8125C43.833 27.8125 43.1662 27.558 42.6572 27.0487L31.3808 15.766C27.7819 12.1652 27.7819 6.30596 31.3808 2.70494C33.1243 0.960574 35.4422 0 37.9077 0C40.3735 0 42.6913 0.960574 44.4346 2.70511C44.4565 2.72702 44.4783 2.74892 44.5 2.77099C44.5217 2.74892 44.5433 2.72702 44.5652 2.70511C46.3087 0.960574 48.6267 0 51.0922 0C53.5578 0 55.8756 0.960574 57.6191 2.70511C61.2181 6.30614 61.2181 12.1652 57.6191 15.7662L46.3427 27.0489C45.8338 27.558 45.167 27.8125 44.5 27.8125Z" fill="#FF7038"/>
<path d="M46.3428 27.0487L57.6191 15.766C61.2181 12.1652 61.2181 6.30596 57.6191 2.70494C55.8756 0.960574 53.5578 0 51.0922 0C48.6265 0 46.3087 0.960574 44.5652 2.70511C44.5433 2.72702 44.5217 2.74892 44.5 2.77099V27.8125C45.167 27.8125 45.8338 27.558 46.3428 27.0487Z" fill="#FF1F3D"/>
<path d="M15.8184 46.9336C15.1514 46.9336 14.4846 46.6791 13.9756 46.1698L2.6992 34.8871C-0.899734 31.2863 -0.899734 25.4271 2.6992 21.826C4.4427 20.0817 6.76052 19.1211 9.2261 19.1211C11.6919 19.1211 14.0097 20.0817 15.753 21.8262C15.7749 21.8481 15.7966 21.87 15.8184 21.8921C15.8401 21.87 15.8616 21.8481 15.8835 21.8262C17.627 20.0817 19.945 19.1211 22.4106 19.1211C24.8762 19.1211 27.194 20.0817 28.9375 21.8262C32.5365 25.4272 32.5365 31.2863 28.9375 34.8873L17.6611 46.17C17.1521 46.6791 16.4853 46.9336 15.8184 46.9336Z" fill="#FF7038"/>
<path d="M17.6611 46.1698L28.9375 34.8871C32.5365 31.2863 32.5365 25.4271 28.9375 21.826C27.194 20.0817 24.8762 19.1211 22.4106 19.1211C19.9449 19.1211 17.627 20.0817 15.8835 21.8262C15.8616 21.8481 15.8401 21.87 15.8184 21.8921V46.9336C16.4853 46.9336 17.1521 46.6791 17.6611 46.1698Z" fill="#FF1F3D"/>
<path d="M73.1816 46.9336C72.5147 46.9336 71.8478 46.6791 71.3389 46.1698L60.0625 34.8871C56.4635 31.2863 56.4635 25.4271 60.0625 21.826C61.806 20.0817 64.1238 19.1211 66.5894 19.1211C69.0551 19.1211 71.373 20.0817 73.1163 21.8262C73.1382 21.8481 73.1599 21.87 73.1816 21.8921C73.2034 21.87 73.2249 21.8481 73.2468 21.8262C74.9903 20.0817 77.3083 19.1211 79.7739 19.1211C82.2395 19.1211 84.5573 20.0817 86.3008 21.8262C89.8997 25.4272 89.8997 31.2863 86.3008 34.8873L75.0244 46.17C74.5154 46.6791 73.8486 46.9336 73.1816 46.9336Z" fill="#FF7038"/>
<path d="M75.0244 46.1698L86.3008 34.8871C89.8997 31.2863 89.8997 25.4271 86.3008 21.826C84.5573 20.0817 82.2395 19.1211 79.7739 19.1211C77.3081 19.1211 74.9903 20.0817 73.2468 21.8262C73.2249 21.8481 73.2034 21.87 73.1816 21.8921V46.9336C73.8486 46.9336 74.5154 46.6791 75.0244 46.1698Z" fill="#FF1F3D"/>
<path d="M62.752 89H26.248V84.8551C26.248 74.7833 34.322 66.4604 44.3934 66.4027C54.5064 66.3447 62.752 74.5547 62.752 84.6543V89Z" fill="#FFE278"/>
<path d="M44.5 66.4034V89H62.752V84.6543C62.752 74.5904 54.5641 66.4036 44.5 66.4034Z" fill="#FFB454"/>
<path d="M44.5 71.6172C37.7904 71.6172 32.332 66.1586 32.332 59.4492C32.332 52.7398 37.7904 47.2812 44.5 47.2812C51.2096 47.2812 56.668 52.7398 56.668 59.4492C56.668 66.1586 51.2096 71.6172 44.5 71.6172Z" fill="#FFDDCE"/>
<path d="M56.668 59.4492C56.668 52.7398 51.2096 47.2812 44.5 47.2812V71.6172C51.2096 71.6172 56.668 66.1586 56.668 59.4492Z" fill="#FFBCA7"/>
</svg>
