<svg width="105" height="104" viewBox="0 0 105 104" fill="none" xmlns="http://www.w3.org/2000/svg">
<path d="M12.1333 39.6715V92.233H91.4213V38.6683L52.5864 14.5631L12.1333 39.6715Z" fill="#FFCD00"/>
<path d="M52.5864 14.5631L12.1333 39.6715V42.9078L52.5864 17.7994L91.4213 41.9045V38.6683L52.5864 14.5631Z" fill="#EBBF00"/>
<path d="M54.2043 59.8706H99.5118V98.7055H54.2043V59.8706Z" fill="#CBA57C"/>
<path d="M96.2755 59.8706V82.5243C96.2755 85.0992 95.2526 87.5687 93.4319 89.3894C91.6112 91.2102 89.1417 92.2331 86.5668 92.2331H54.2043V98.7055H99.5118V59.8706H96.2755Z" fill="#C49A6C"/>
<path d="M80.0945 50.1619L81.7126 59.8706H99.5119L93.0395 50.1619H80.0945Z" fill="#A97C50"/>
<path d="M73.6218 50.1619H60.6768L54.2043 59.8706H72.0037L73.6218 50.1619Z" fill="#A97C50"/>
<path d="M72.0039 76.0518L76.8583 72.8156L81.7126 76.0518V59.8706H72.0039V76.0518Z" fill="#FFB655"/>
<path d="M81.7126 59.8706L80.0945 50.1619H73.622L72.0039 59.8706H81.7126Z" fill="#FF9811"/>
<path d="M21.842 53.3981H44.4958V92.233H21.842V53.3981Z" fill="#58595B"/>
<path d="M52.5862 25.89C50.4405 25.89 48.3826 26.7424 46.8653 28.2597C45.348 29.777 44.4956 31.8349 44.4956 33.9806H52.5862V25.89Z" fill="#FF9811"/>
<path d="M52.5862 33.9806H44.4956C44.4956 36.1264 45.348 38.1842 46.8653 39.7015C48.3826 41.2188 50.4405 42.0712 52.5862 42.0712V33.9806Z" fill="#FF6243"/>
<path d="M60.677 33.9806C60.677 31.8349 59.8246 29.777 58.3074 28.2597C56.7901 26.7424 54.7322 25.89 52.5864 25.89V33.9806H60.677Z" fill="#FF6243"/>
<path d="M52.5864 42.0712C54.7322 42.0712 56.7901 41.2188 58.3074 39.7015C59.8246 38.1842 60.677 36.1264 60.677 33.9806H52.5864V42.0712Z" fill="#FF9811"/>
<path d="M97.5699 32.7702L73.6217 17.911L52.5861 4.85437L7.61041 32.7702C6.68086 33.347 6.01852 34.2694 5.76907 35.3345C5.51963 36.3997 5.70353 37.5203 6.28031 38.4498C6.85709 39.3794 7.77951 40.0417 8.84464 40.2912C9.90978 40.5406 11.0304 40.3567 11.9599 39.7799L52.5861 14.5631L93.2123 39.7799C94.1419 40.3578 95.2629 40.5427 96.3288 40.294C97.3947 40.0453 98.3181 39.3834 98.896 38.4539C99.4738 37.5243 99.6588 36.4033 99.4101 35.3374C99.1614 34.2715 98.4995 33.3481 97.5699 32.7702Z" fill="#006DF0"/>
<path d="M83.3308 8.09058H73.6221V17.911L83.3308 23.9368V8.09058Z" fill="#FF5023"/>
<path d="M39.6413 71.1974H38.0232C37.594 71.1974 37.1824 71.3679 36.879 71.6713C36.5755 71.9748 36.405 72.3864 36.405 72.8155C36.405 73.2447 36.5755 73.6562 36.879 73.9597C37.1824 74.2632 37.594 74.4336 38.0232 74.4336H39.6413C40.0704 74.4336 40.482 74.2632 40.7855 73.9597C41.0889 73.6562 41.2594 73.2447 41.2594 72.8155C41.2594 72.3864 41.0889 71.9748 40.7855 71.6713C40.482 71.3679 40.0704 71.1974 39.6413 71.1974Z" fill="#F1F2F2"/>
</svg>
