<svg width="95" height="95" viewBox="0 0 95 95" fill="none" xmlns="http://www.w3.org/2000/svg">
<path d="M13.6863 0H71.6524C75.2092 0 78.0931 2.88384 78.0931 6.44068V48.3051C78.0931 51.8619 75.2092 54.7458 71.6524 54.7458H13.6863C10.1294 54.7458 7.24561 51.8619 7.24561 48.3051V6.44068C7.24561 2.88384 10.1294 0 13.6863 0Z" fill="#348FD9"/>
<path d="M23.3474 54.7457H71.6525C75.2093 54.7457 78.0932 51.8619 78.0932 48.3051V6.44066C78.0955 4.73222 77.4162 3.09296 76.2062 1.8869L23.3474 54.7457Z" fill="#3086CD"/>
<path d="M13.6865 4.83051H16.9069V8.05084H13.6865V4.83051Z" fill="#2A71AD"/>
<path d="M20.127 4.83051H23.3473V8.05084H20.127V4.83051Z" fill="#2A71AD"/>
<path d="M26.5679 4.83051H29.7882V8.05084H26.5679V4.83051Z" fill="#2A71AD"/>
<path d="M71.6526 14.4915V11.2712H13.6865V14.4915H50.7204V17.7119H13.6865V20.9322H50.7204V24.1525H13.6865V27.3729H50.7204V30.5932H13.6865V33.8136H50.7204V37.0339H13.6865V40.2542H50.7204V46.6949H71.6526V43.4746H53.9408V40.2542H71.6526V37.0339H53.9408V33.8136H71.6526V30.5932H53.9408V27.3729H71.6526V24.1525H53.9408V20.9322H71.6526V17.7119H53.9408V14.4915H71.6526Z" fill="#2A71AD"/>
<path d="M90.9746 80.5085H57.1611L52.3306 83.7288L57.1611 86.9492H90.9746C92.753 86.9492 94.195 85.5072 94.195 83.7288C94.195 81.9504 92.753 80.5085 90.9746 80.5085Z" fill="#803F37"/>
<path d="M90.9747 83.7288H57.1611L54.7458 82.1187L52.3306 83.7288L57.1611 86.9491H90.9747C92.1281 86.9562 93.195 86.3422 93.7697 85.3421C94.3436 84.3428 94.3358 83.1109 93.7492 82.1187C93.1777 83.1116 92.1202 83.7257 90.9747 83.7288Z" fill="#773730"/>
<path d="M84.5339 95H73.2627V91.7797H84.5339C85.4231 91.7797 86.1441 91.0587 86.1441 90.1695V80.5085H89.3644V90.1695C89.3644 92.8371 87.2015 95 84.5339 95Z" fill="#FFB531"/>
<path d="M71.6526 80.5085H74.8729V86.9492H71.6526V80.5085Z" fill="#662C26"/>
<path d="M29.7881 12.8813H87.7542C91.311 12.8813 94.1949 15.7652 94.1949 19.322V61.1864C94.1949 64.7433 91.311 67.6271 87.7542 67.6271H29.7881C26.2313 67.6271 23.3474 64.7433 23.3474 61.1864V19.322C23.3474 15.7652 26.2313 12.8813 29.7881 12.8813Z" fill="#60D1E0"/>
<path d="M44.2796 28.983H23.3474V61.1864C23.3474 64.7433 26.2312 67.6271 29.7881 67.6271H49.1101V33.8135C49.1101 31.1459 46.9472 28.983 44.2796 28.983Z" fill="#5AC6D4"/>
<path d="M39.4492 67.6272H87.7543C91.3111 67.6272 94.195 64.7434 94.195 61.1865V19.3221C94.1973 17.6137 93.518 15.9744 92.3081 14.7684L39.4492 67.6272Z" fill="#5AC6D4"/>
<path d="M29.7881 17.7119H33.0084V20.9322H29.7881V17.7119Z" fill="#3FB7C7"/>
<path d="M36.2288 17.7119H39.4491V20.9322H36.2288V17.7119Z" fill="#3FB7C7"/>
<path d="M42.6694 17.7119H45.8898V20.9322H42.6694V17.7119Z" fill="#3FB7C7"/>
<path d="M87.7542 27.3729V24.1525H29.7881V27.3729H66.822V30.5932H29.7881V33.8135H66.822V37.0339H29.7881V40.2542H66.822V43.4746H29.7881V46.6949H66.822V49.9152H29.7881V53.1356H66.822V59.5763H87.7542V56.3559H70.0423V53.1356H87.7542V49.9152H70.0423V46.6949H87.7542V43.4746H70.0423V40.2542H87.7542V37.0339H70.0423V33.8135H87.7542V30.5932H70.0423V27.3729H87.7542Z" fill="#3FB7C7"/>
<path d="M5.63568 25.7627H41.0594C43.727 25.7627 45.8899 27.9256 45.8899 30.5932V88.5593C45.8899 91.2269 43.727 93.3898 41.0594 93.3898H5.63568C2.96805 93.3898 0.805176 91.2269 0.805176 88.5593V30.5932C0.805176 27.9256 2.96805 25.7627 5.63568 25.7627Z" fill="#E94F4F"/>
<path d="M7.24561 67.6271H13.6863V74.0678H7.24561V67.6271Z" fill="#FFB531"/>
<path d="M20.127 67.6271H26.5676V74.0678H20.127V67.6271Z" fill="#FFB531"/>
<path d="M7.24561 54.7458H13.6863V61.1865H7.24561V54.7458Z" fill="#FFB531"/>
<path d="M20.127 54.7458H26.5676V61.1865H20.127V54.7458Z" fill="#FFB531"/>
<path d="M33.0083 54.7458H39.449V61.1865H33.0083V54.7458Z" fill="#FFB531"/>
<path d="M7.24561 80.5085H13.6863V86.9492H7.24561V80.5085Z" fill="#FFB531"/>
<path d="M20.127 80.5085H26.5676V86.9492H20.127V80.5085Z" fill="#FFB531"/>
<path d="M33.0083 67.6271H39.449V86.9492H33.0083V67.6271Z" fill="#FFB531"/>
<path d="M7.24561 35.4237H39.449V48.3051H7.24561V35.4237Z" fill="#60D1E0"/>
<path d="M7.24561 35.4237H39.449V38.644H7.24561V35.4237Z" fill="#5AC6D4"/>
<path d="M31.3982 40.2542H34.6185V43.4745H31.3982V40.2542Z" fill="#3A9CC9"/>
<path d="M24.9578 40.2542H28.1781V43.4745H24.9578V40.2542Z" fill="#3A9CC9"/>
<path d="M18.5168 40.2542H21.7372V43.4745H18.5168V40.2542Z" fill="#3A9CC9"/>
</svg>
