<svg width="98" height="98" viewBox="0 0 98 98" fill="none" xmlns="http://www.w3.org/2000/svg">
<g clip-path="url(#clip0)">
<path d="M49.2155 55.2637C48.9388 55.2637 48.6621 55.2235 48.3941 55.1431C42.2513 53.3003 36.9806 49.6064 33.1524 44.4612C29.3241 39.3158 27.3005 33.2061 27.3005 26.7928V10.4811C27.3005 8.90241 28.5804 7.62258 30.159 7.62258C33.7712 7.62258 37.0186 5.61556 38.6338 2.38492L39.0361 1.58035C39.5203 0.611712 40.5101 0 41.5929 0H56.838C57.9208 0 58.9106 0.611712 59.3948 1.58016L59.7971 2.38492C61.4124 5.61556 64.6598 7.62258 68.2719 7.62258C69.8506 7.62258 71.1304 8.90241 71.1304 10.4811V26.7928C71.1304 33.2061 69.1068 39.3158 65.2785 44.4612C61.4503 49.6064 56.1796 53.3003 50.0368 55.1431C49.7689 55.2235 49.4922 55.2637 49.2155 55.2637Z" fill="#9DDFF6"/>
<path d="M68.2719 7.62258C64.6598 7.62258 61.4124 5.61556 59.7971 2.38511L59.3948 1.58035C58.9106 0.611712 57.9208 0 56.838 0H49.2155V55.2637C49.4922 55.2637 49.7689 55.2235 50.0368 55.1431C56.1796 53.3003 61.4503 49.6064 65.2785 44.4612C69.1068 39.3158 71.1304 33.2061 71.1304 26.7928V10.4811C71.1304 8.90241 69.8505 7.62258 68.2719 7.62258Z" fill="#6BA7FF"/>
<path d="M33.0175 13.0733V26.793C33.0175 37.1323 39.4911 46.1134 49.2154 49.4054C58.9398 46.1134 65.4134 37.1323 65.4134 26.793V13.0733C61.0874 12.2567 57.3264 9.60501 55.0991 5.71692H43.3318C41.1044 9.60501 37.3435 12.2567 33.0175 13.0733Z" fill="#F5F5FF"/>
<path d="M55.0991 5.71692H49.2155V49.4052C58.9398 46.1132 65.4134 37.1321 65.4134 26.7928V13.0733C61.0874 12.2567 57.3265 9.60482 55.0991 5.71692Z" fill="#E2E7FA"/>
<path d="M46.52 35.8803C45.7885 35.8803 45.0569 35.6013 44.4989 35.0429L39.109 29.653C37.9926 28.5367 37.9926 26.7269 39.109 25.6105C40.2251 24.4942 42.0351 24.4942 43.1514 25.6105L46.5202 28.9791L55.2789 20.2206C56.3951 19.1043 58.2051 19.1043 59.3214 20.2206C60.4377 21.3369 60.4377 23.1467 59.3214 24.2631L48.5415 35.0429C47.9832 35.6013 47.2516 35.8803 46.52 35.8803Z" fill="#6B61B1"/>
<path d="M55.2792 20.2206L49.2155 26.2844V34.3693L59.3217 24.2631C60.438 23.1467 60.438 21.3369 59.3217 20.2206C58.2053 19.1043 56.3954 19.1043 55.2792 20.2206Z" fill="#453D81"/>
<path d="M20.4402 65.1731C9.40707 65.1731 0.430908 74.1493 0.430908 85.1824V94.7106C0.430908 96.2892 1.71074 97.5691 3.28938 97.5691H33.0174L39.202 78.2275C36.3702 70.6128 29.0289 65.1731 20.4402 65.1731Z" fill="#A2E786"/>
<path d="M33.0174 97.5691L39.202 78.2275C36.3702 70.6128 29.0289 65.1731 20.4402 65.1731V97.5691H33.0174Z" fill="#00CB75"/>
<path d="M20.4402 70.89C13.6101 70.89 8.05347 65.3334 8.05347 58.5033C8.05347 51.6733 13.6101 46.1166 20.4402 46.1166C27.2702 46.1166 32.8269 51.6733 32.8269 58.5033C32.8269 65.3334 27.2702 70.89 20.4402 70.89Z" fill="#FFD5B2"/>
<path d="M32.8269 58.5033C32.8269 51.6733 27.2702 46.1166 20.4402 46.1166V70.89C27.2702 70.89 32.8269 65.3334 32.8269 58.5033Z" fill="#FAC394"/>
<path d="M77.9907 65.1731C69.4168 65.1731 62.0859 70.5943 59.2437 78.1885L65.4134 97.5691H95.1415C96.7202 97.5691 98 96.2892 98 94.7106V85.1824C98 74.1493 89.0238 65.1731 77.9907 65.1731Z" fill="#EF5CA2"/>
<path d="M95.1415 97.5691C96.7202 97.5691 98 96.2892 98 94.7106V85.1824C98 74.1493 89.0238 65.1731 77.9907 65.1731V97.5691H95.1415Z" fill="#EA1C81"/>
<path d="M77.9907 70.89C71.1607 70.89 65.604 65.3334 65.604 58.5033C65.604 51.6733 71.1607 46.1166 77.9907 46.1166C84.8207 46.1166 90.3774 51.6733 90.3774 58.5033C90.3774 65.3334 84.8207 70.89 77.9907 70.89Z" fill="#FFD5B2"/>
<path d="M90.3774 58.5033C90.3774 51.6733 84.8207 46.1166 77.9907 46.1166V70.89C84.8207 70.89 90.3774 65.3334 90.3774 58.5033Z" fill="#FAC394"/>
<path d="M65.4134 97.5691H33.0175V91.1059C33.0175 82.1882 40.1383 74.7886 49.0556 74.7021C58.0601 74.6148 65.4134 81.9146 65.4134 90.8993V97.5691Z" fill="#F5F5FF"/>
<path d="M49.2155 74.7026V97.5691H65.4134V90.8993C65.4134 81.9677 58.1468 74.7026 49.2155 74.7026Z" fill="#E2E7FA"/>
<path d="M49.2154 80.4183C43.4362 80.4183 38.7344 75.7165 38.7344 69.9372C38.7344 64.158 43.4362 59.4562 49.2154 59.4562C54.9947 59.4562 59.6965 64.158 59.6965 69.9372C59.6965 75.7165 54.9947 80.4183 49.2154 80.4183Z" fill="#FFD5B2"/>
<path d="M59.6965 69.9372C59.6965 64.158 54.9947 59.4562 49.2155 59.4562V80.4183C54.9947 80.4183 59.6965 75.7165 59.6965 69.9372Z" fill="#FAC394"/>
</g>
<defs>
<clipPath id="clip0">
<rect width="97.5691" height="97.5691" fill="white" transform="translate(0.430908)"/>
</clipPath>
</defs>
</svg>
