<svg width="93" height="93" viewBox="0 0 93 93" fill="none" xmlns="http://www.w3.org/2000/svg">
<g clip-path="url(#clip0)">
<path d="M91.2374 56.2892H27.1026C26.1296 56.2892 25.3407 55.5003 25.3407 54.5273V21.5406C25.3407 20.5676 26.1296 19.7787 27.1026 19.7787H91.2374C92.2104 19.7787 92.9993 20.5676 92.9993 21.5406V54.5273C92.9993 55.5003 92.2104 56.2892 91.2374 56.2892Z" fill="#04A550"/>
<path d="M91.2374 52.5727H27.1026C26.1296 52.5727 25.3407 51.7838 25.3407 50.8108V17.8241C25.3407 16.8511 26.1296 16.0622 27.1026 16.0622H91.2374C92.2104 16.0622 92.9993 16.8511 92.9993 17.8241V50.8108C92.9993 51.7838 92.2104 52.5727 91.2374 52.5727Z" fill="#0CC166"/>
<path d="M91.2374 48.8561H27.1026C26.1296 48.8561 25.3407 48.0673 25.3407 47.0942V14.1076C25.3407 13.1345 26.1296 12.3456 27.1026 12.3456H91.2374C92.2104 12.3456 92.9993 13.1345 92.9993 14.1076V47.0942C92.9993 48.0673 92.2104 48.8561 91.2374 48.8561Z" fill="#04A550"/>
<path d="M91.2374 44.5492H27.1026C26.1296 44.5492 25.3407 43.7603 25.3407 42.7873V9.80061C25.3407 8.82756 26.1296 8.0387 27.1026 8.0387H91.2374C92.2104 8.0387 92.9993 8.82756 92.9993 9.80061V42.7873C92.9993 43.7603 92.2104 44.5492 91.2374 44.5492Z" fill="#29E088"/>
<path d="M92.9994 9.80067V42.7866C92.9994 43.7609 92.21 44.5485 91.2374 44.5485H66.1289C79.8204 39.7721 89.6448 26.7447 89.6448 11.4251C89.6448 10.2835 89.5902 9.15221 89.4826 8.03876H91.2374C92.21 8.03876 92.9994 8.82817 92.9994 9.80067Z" fill="#0CC166"/>
<path d="M28.8647 39.2635V13.3245C28.8647 12.3514 29.6536 11.5626 30.6267 11.5626H87.7138C88.6868 11.5626 89.4757 12.3514 89.4757 13.3245V39.2635C89.4757 40.2365 88.6868 41.0254 87.7138 41.0254H30.6267C29.6536 41.0254 28.8647 40.2365 28.8647 39.2635Z" fill="#EEFFEE"/>
<path d="M89.4759 13.3243V39.2628C89.4759 40.2371 88.6865 41.0247 87.714 41.0247H67.6937C78.938 36.1089 86.7961 24.8875 86.7961 11.8319C86.7961 11.742 86.7961 11.6523 86.7945 11.5624H87.7141C88.6866 11.5626 89.4759 12.3518 89.4759 13.3243Z" fill="#C2FFC2"/>
<path d="M89.4754 18.9206H82.3475C81.3744 18.9206 80.5856 18.1318 80.5856 17.1587V11.5626H87.7135C88.6866 11.5626 89.4754 12.3514 89.4754 13.3245V18.9206Z" fill="#0CC166"/>
<path d="M37.7546 41.0254H30.6267C29.6536 41.0254 28.8647 40.2366 28.8647 39.2635V33.6674H35.9927C36.9657 33.6674 37.7546 34.4562 37.7546 35.4293V41.0254Z" fill="#0CC166"/>
<path d="M37.7539 35.4299V41.0257H30.627C30.3133 41.0257 30.0209 40.9447 29.7673 40.802C33.0109 40.0462 35.4265 37.139 35.4265 33.668H35.9922C36.9647 33.668 37.7539 34.4556 37.7539 35.4299Z" fill="#04A550"/>
<path d="M42.5156 30.1039C44.6198 30.1039 46.3255 28.3981 46.3255 26.294C46.3255 24.1898 44.6198 22.4841 42.5156 22.4841C40.4114 22.4841 38.7057 24.1898 38.7057 26.294C38.7057 28.3981 40.4114 30.1039 42.5156 30.1039Z" fill="#04A550"/>
<path d="M41.3497 28.9379C42.8099 28.9379 43.9936 27.7541 43.9936 26.2939C43.9936 24.8337 42.8099 23.65 41.3497 23.65C39.8894 23.65 38.7057 24.8337 38.7057 26.2939C38.7057 27.7541 39.8894 28.9379 41.3497 28.9379Z" fill="#0CC166"/>
<path d="M75.8242 30.1039C77.9284 30.1039 79.6341 28.3981 79.6341 26.294C79.6341 24.1898 77.9284 22.4841 75.8242 22.4841C73.72 22.4841 72.0143 24.1898 72.0143 26.294C72.0143 28.3981 73.72 30.1039 75.8242 30.1039Z" fill="#04A550"/>
<path d="M74.6582 28.9379C76.1185 28.9379 77.3022 27.7541 77.3022 26.2939C77.3022 24.8337 76.1185 23.65 74.6582 23.65C73.198 23.65 72.0143 24.8337 72.0143 26.2939C72.0143 27.7541 73.198 28.9379 74.6582 28.9379Z" fill="#0CC166"/>
<path d="M59.1703 38.3586C64.7259 38.3586 69.2296 32.9571 69.2296 26.2941C69.2296 19.631 64.7259 14.2295 59.1703 14.2295C53.6148 14.2295 49.1111 19.631 49.1111 26.2941C49.1111 32.9571 53.6148 38.3586 59.1703 38.3586Z" fill="#0CC166"/>
<path d="M69.2284 26.2946C69.2284 32.9562 64.725 38.3582 59.1699 38.3582C56.0936 38.3582 53.3382 36.7002 51.4934 34.0891C52.8624 34.9243 54.4129 35.3964 56.055 35.3964C61.6102 35.3964 66.1135 29.9944 66.1135 23.3311C66.1135 20.3605 65.2185 17.6419 63.7349 15.54C66.9961 17.5362 69.2284 21.6026 69.2284 26.2946Z" fill="#04A550"/>
<path d="M64.6903 22.7807H62.7154C62.6029 22.3647 62.4284 21.972 62.203 21.6108H64.6903C65.3446 21.6108 65.875 21.1103 65.875 20.4929C65.875 19.8755 65.3446 19.3751 64.6903 19.3751H58.0697H53.4972C52.8429 19.3751 52.3125 19.8755 52.3125 20.4929C52.3125 21.1103 52.8429 21.6108 53.4972 21.6108H58.0697C58.9765 21.6108 59.7682 22.0833 60.184 22.7807H53.4972C52.8429 22.7807 52.3125 23.2812 52.3125 23.8986C52.3125 24.516 52.8429 25.0165 53.4972 25.0165H60.184C59.7682 25.7139 58.9765 26.1863 58.0698 26.1863H53.4973C53.0245 26.1863 52.597 26.4515 52.4096 26.8611C52.2222 27.2706 52.3108 27.7461 52.635 28.0708L59.0781 34.5238C59.3112 34.7572 59.6256 34.8751 59.9407 34.8751C60.232 34.8751 60.524 34.7742 60.7528 34.5708C61.2291 34.1475 61.2514 33.44 60.8027 32.9906L56.2411 28.4221H58.0697C60.3044 28.4221 62.1866 26.9718 62.7154 25.0165H64.6903C65.3446 25.0165 65.875 24.516 65.875 23.8986C65.875 23.2812 65.3446 22.7807 64.6903 22.7807Z" fill="#04A550"/>
<path d="M64.8594 22.7807H63.1666C63.0702 22.3647 62.9206 21.972 62.7274 21.6108H64.8594C65.4202 21.6108 65.8748 21.1103 65.8748 20.4929C65.8748 19.8755 65.4202 19.3751 64.8594 19.3751H59.1847H55.2655C54.7046 19.3751 54.25 19.8755 54.25 20.4929C54.25 21.1103 54.7046 21.6108 55.2655 21.6108H59.1847C59.962 21.6108 60.6405 22.0833 60.9969 22.7807H55.2655C54.7046 22.7807 54.25 23.2812 54.25 23.8986C54.25 24.516 54.7046 25.0165 55.2655 25.0165H60.9969C60.6405 25.7139 59.962 26.1863 59.1848 26.1863H55.2655C54.8603 26.1863 54.4939 26.4515 54.3333 26.8611C54.1726 27.2706 54.2486 27.7461 54.5264 28.0708L60.049 34.5238C60.2488 34.7572 60.5183 34.8751 60.7884 34.8751C61.0381 34.8751 61.2884 34.7742 61.4845 34.5708C61.8927 34.1475 61.9119 33.44 61.5273 32.9906L57.6174 28.4221H59.1848C61.1002 28.4221 62.7135 26.9718 63.1668 25.0165H64.8595C65.4204 25.0165 65.875 24.516 65.875 23.8986C65.875 23.2812 65.4202 22.7807 64.8594 22.7807Z" fill="#EEFFEE"/>
<path d="M89.4755 37.3459V39.2628C89.4755 40.2371 88.6861 41.0247 87.7136 41.0247H68.4141V39.1079C68.4141 38.1354 69.2033 37.3459 70.176 37.3459H89.4755Z" fill="#0CC166"/>
<path d="M48.1646 15.2415H28.8656V13.3245C28.8656 12.3514 29.6545 11.5626 30.6275 11.5626H49.9265V13.4796C49.9265 14.4526 49.1376 15.2415 48.1646 15.2415Z" fill="#0CC166"/>
<path d="M58.5884 8.03784H35.7816C34.808 8.03784 34.0188 8.82707 34.0188 9.80066C34.0188 10.7743 34.808 11.5635 35.7816 11.5635H58.6489C59.6612 11.5635 60.4744 10.7101 60.4079 9.68332C60.3472 8.74642 59.5273 8.03784 58.5884 8.03784Z" fill="#79FF79"/>
<path d="M44.3563 8.03784H39.2482C38.2746 8.03784 37.4854 8.82707 37.4854 9.80066C37.4854 10.7743 38.2746 11.5635 39.2482 11.5635H44.3563C45.3299 11.5635 46.1191 10.7743 46.1191 9.80066C46.1191 8.82707 45.3299 8.03784 44.3563 8.03784Z" fill="#C2FFC2"/>
<path d="M89.4758 13.3254V18.9212H83.0061C85.5961 17.4906 87.3491 14.7315 87.3491 11.5635H87.7139C88.6864 11.5635 89.4758 12.3509 89.4758 13.3254Z" fill="#04A550"/>
<path d="M85.4935 35.5309H80.5886C79.8247 35.5309 79.2054 34.9116 79.2054 34.1477C79.2054 33.3837 79.8247 32.7645 80.5886 32.7645H85.4935C86.2575 32.7645 86.8767 33.3837 86.8767 34.1477C86.8767 34.9116 86.2573 35.5309 85.4935 35.5309Z" fill="#29E088"/>
<path d="M82.9322 32.7646H82.0354C81.2716 32.7646 80.6522 33.3839 80.6522 34.1478C80.6522 34.9116 81.2714 35.531 82.0354 35.531H82.9322C83.696 35.531 84.3154 34.9118 84.3154 34.1478C84.3154 33.3839 83.696 32.7646 82.9322 32.7646Z" fill="#79FF79"/>
<path d="M37.7508 19.8225H32.846C32.082 19.8225 31.4628 19.2033 31.4628 18.4393C31.4628 17.6754 32.082 17.0562 32.846 17.0562H37.7508C38.5148 17.0562 39.134 17.6754 39.134 18.4393C39.134 19.2033 38.5146 19.8225 37.7508 19.8225Z" fill="#79FF79"/>
<path d="M35.1895 17.0564H34.2927C33.5289 17.0564 32.9095 17.6756 32.9095 18.4396C32.9095 19.2034 33.5288 19.8228 34.2927 19.8228H35.1895C35.9533 19.8228 36.5727 19.2036 36.5727 18.4396C36.5727 17.6756 35.9535 17.0564 35.1895 17.0564Z" fill="#C2FFC2"/>
<path d="M89.4758 37.3459V39.2628C89.4758 40.2371 88.6863 41.0247 87.7138 41.0247H73.3915C75.0987 39.9358 76.7073 38.7043 78.1961 37.3459H89.4758Z" fill="#04A550"/>
<path d="M17.683 55.1324C27.4485 55.1324 35.365 47.2159 35.365 37.4504C35.365 27.6849 27.4485 19.7684 17.683 19.7684C7.91747 19.7684 0.000976562 27.6849 0.000976562 37.4504C0.000976562 47.2159 7.91747 55.1324 17.683 55.1324Z" fill="#FFE059"/>
<path d="M17.6823 49.8122C24.5095 49.8122 30.044 44.2777 30.044 37.4505C30.044 30.6233 24.5095 25.0887 17.6823 25.0887C10.8551 25.0887 5.32056 30.6233 5.32056 37.4505C5.32056 44.2777 10.8551 49.8122 17.6823 49.8122Z" fill="#FFAF40"/>
<path d="M30.0437 37.4501C30.0437 44.2783 24.5098 49.8122 17.6816 49.8122C11.9516 49.8122 7.13372 45.9142 5.73291 40.6244C7.70444 42.5209 10.386 43.6894 13.3386 43.6894C19.3952 43.6894 24.3058 38.7788 24.3058 32.7222C24.3058 30.102 23.386 27.6962 21.8535 25.81C26.6281 27.5209 30.0437 32.087 30.0437 37.4501Z" fill="#FF993A"/>
<path d="M16.9876 52.0229C16.9876 50.8077 16.1333 49.7749 14.9479 49.5073C9.43678 48.2633 5.32116 43.3385 5.32116 37.45C5.32116 31.5629 9.43696 26.637 14.9481 25.3927C16.1333 25.1252 16.9876 24.0924 16.9876 22.8772V22.695C16.9876 21.0457 15.4582 19.8305 13.8477 20.1867C5.92639 21.9379 0 29.001 0 37.45C0 45.899 5.92639 52.9621 13.8477 54.7135C15.4582 55.0695 16.9876 53.8545 16.9876 52.2052V52.0229Z" fill="#FFF370"/>
<path d="M33.0923 38.468C31.6306 37.9792 30.0587 38.8437 29.7001 40.3426C29.1874 42.4858 28.0955 44.5183 26.4226 46.1912C24.297 48.317 21.5899 49.5063 18.8131 49.7597C17.4517 49.884 16.4164 51.0379 16.4164 52.405C16.4164 53.9765 17.7712 55.1984 19.3361 55.0527C23.2953 54.6842 27.1535 52.9855 30.1853 49.9539C32.5831 47.5561 34.1471 44.6411 34.8789 41.5681C35.1926 40.251 34.4288 38.9149 33.1446 38.4855L33.0923 38.468Z" fill="#FFC751"/>
<path d="M6.02629 45.8217C6.81316 45.0379 7.03894 43.8378 6.55414 42.8386C5.76418 41.2102 5.32116 39.382 5.32116 37.4501C5.32116 35.0729 5.99232 32.8529 7.15537 30.9684C7.7991 29.9254 7.65397 28.5795 6.78846 27.7118C6.77592 27.6992 6.76339 27.6867 6.75086 27.674C5.54622 26.4661 3.53582 26.7104 2.6376 28.1606C0.965965 30.8596 0 34.0414 0 37.4501C0 40.2159 0.635379 42.833 1.76791 45.164C2.55423 46.7824 4.7123 47.1302 5.98724 45.8606C6.00013 45.8475 6.01321 45.8346 6.02629 45.8217Z" fill="#FFF7C7"/>
<g clip-path="url(#clip1)">
<path d="M38.75 36.8125C38.75 47.513 30.0755 56.1875 19.375 56.1875C13.7341 56.1875 8.65627 53.7771 5.11579 49.9298C4.18579 48.9199 3.36255 47.8104 2.66189 46.6202C0.970332 43.7432 0 40.3909 0 36.8125C0 26.112 8.67446 17.4375 19.375 17.4375C22.9542 17.4375 26.3065 18.4078 29.1827 20.1002C30.3729 20.8001 31.4816 21.6233 32.4915 22.5541C36.3388 26.093 38.75 31.1716 38.75 36.8125Z" fill="#F0CD00"/>
<path d="M38.75 36.8125C38.75 47.2719 30.4631 55.7953 20.0963 56.1741C9.72947 55.7953 1.4425 47.2719 1.4425 36.8125C1.4425 26.3532 9.72947 17.8298 20.0963 17.451C30.4631 17.8298 38.75 26.3532 38.75 36.8125Z" fill="#FFDE50"/>
<path d="M32.4915 22.5541L5.11577 49.9297C4.18577 48.9199 3.36253 47.8104 2.66187 46.6202L29.1827 20.1002C30.3729 20.8 31.4816 21.6233 32.4915 22.5541Z" fill="#FFEA94"/>
<path d="M37.4136 29.7292L12.2909 54.8518C10.5124 54.1527 8.86195 53.1982 7.3855 52.0333L34.5959 24.8229C35.7608 26.2994 36.7153 27.9498 37.4136 29.7292Z" fill="#FFEA94"/>
<path d="M34.4305 36.8125C34.4305 45.1271 27.6895 51.868 19.3749 51.868C16.4789 51.868 13.7743 51.0503 11.4786 49.6332C10.4782 49.0163 9.55612 48.2848 8.72893 47.4576C8.12079 46.8503 7.56406 46.19 7.06663 45.4853C6.38178 44.515 5.80844 43.4601 5.36638 42.3395C4.71158 40.6827 4.34306 38.8812 4.32092 36.9975C4.31934 36.9358 4.31934 36.8741 4.31934 36.8125C4.31934 28.4978 11.0595 21.7569 19.3749 21.7569C19.4366 21.7569 19.4991 21.7569 19.5607 21.7585C21.4445 21.7806 23.2452 22.1499 24.9019 22.8039C26.0225 23.2468 27.0774 23.8193 28.0478 24.5042C28.7524 25.0024 29.4119 25.5584 30.0201 26.1665C30.8473 26.9929 31.5788 27.9158 32.1956 28.9162C33.6128 31.2119 34.4305 33.9165 34.4305 36.8125Z" fill="#FAA300"/>
<path d="M30.0201 26.1665L8.72893 47.4576C8.12079 46.8503 7.56406 46.19 7.06663 45.4853C6.38179 44.515 5.80844 43.4601 5.36638 42.3395C4.71158 40.6827 4.34306 38.8812 4.32092 36.9975C4.31934 36.9358 4.31934 36.8741 4.31934 36.8125C4.31934 28.4978 11.0595 21.7569 19.3749 21.7569C19.4366 21.7569 19.4991 21.7569 19.5607 21.7585C21.4445 21.7806 23.2452 22.1499 24.9019 22.8039C26.0225 23.2468 27.0774 23.8193 28.0478 24.5042C28.7524 25.0024 29.4119 25.5584 30.0201 26.1665Z" fill="#FFBD00"/>
<path d="M34.43 36.8125C34.43 45.1271 27.6891 51.868 19.3744 51.868C19.0889 51.868 18.8058 51.8601 18.5243 51.8443C26.4435 51.4038 32.7289 44.8416 32.7289 36.8125C32.7289 28.7833 26.4435 22.2211 18.5243 21.7806C18.8058 21.7648 19.0889 21.7569 19.3744 21.7569C27.6891 21.7569 34.43 28.4978 34.43 36.8125Z" fill="#F68E00"/>
<path d="M25.3561 32.202H22.7196C22.5694 31.6134 22.3364 31.0578 22.0355 30.5467H25.3561C26.2296 30.5467 26.9377 29.8387 26.9377 28.9651C26.9377 28.0916 26.2296 27.3835 25.3561 27.3835H16.5176H10.4133C9.53976 27.3835 8.83167 28.0916 8.83167 28.9651C8.83167 29.8387 9.53976 30.5467 10.4133 30.5467H16.5176C17.7282 30.5467 18.785 31.2152 19.3402 32.202H10.4133C9.53976 32.202 8.83167 32.9101 8.83167 33.7836C8.83167 34.6572 9.53976 35.3653 10.4133 35.3653H19.3402C18.785 36.3521 17.7282 37.0205 16.5177 37.0205H10.4134C9.78223 37.0205 9.21149 37.3957 8.96136 37.9751C8.71114 38.5546 8.82945 39.2273 9.26219 39.6867L17.8638 48.8167C18.175 49.1471 18.5947 49.3138 19.0153 49.3138C19.4043 49.3138 19.7941 49.1711 20.0996 48.8833C20.7354 48.2844 20.7652 47.2833 20.1662 46.6475L14.0764 40.1837H16.5176C19.5009 40.1837 22.0136 38.1318 22.7196 35.3653H25.3561C26.2296 35.3653 26.9377 34.6572 26.9377 33.7836C26.9377 32.9101 26.2296 32.202 25.3561 32.202Z" fill="#F68E00"/>
<path d="M27.3332 32.202H24.6967C24.5465 31.6134 24.3135 31.0578 24.0126 30.5467H27.3332C28.2067 30.5467 28.9148 29.8387 28.9148 28.9651C28.9148 28.0916 28.2067 27.3835 27.3332 27.3835H18.4948H12.3905C11.5169 27.3835 10.8088 28.0916 10.8088 28.9651C10.8088 29.8387 11.5169 30.5467 12.3905 30.5467H18.4948C19.7054 30.5467 20.7622 31.2152 21.3174 32.202H12.3905C11.5169 32.202 10.8088 32.9101 10.8088 33.7836C10.8088 34.6572 11.5169 35.3653 12.3905 35.3653H21.3174C20.7622 36.3521 19.7054 37.0205 18.4949 37.0205H12.3905C11.7594 37.0205 11.1887 37.3957 10.9385 37.9751C10.6883 38.5546 10.8066 39.2273 11.2394 39.6867L19.841 48.8167C20.1522 49.1471 20.5719 49.3138 20.9925 49.3138C21.3815 49.3138 21.7713 49.1711 22.0768 48.8833C22.7126 48.2844 22.7424 47.2833 22.1434 46.6475L16.0537 40.1837H18.4949C21.4782 40.1837 23.9909 38.1318 24.6969 35.3653H27.3334C28.2069 35.3653 28.915 34.6572 28.915 33.7836C28.915 32.9101 28.2067 32.202 27.3332 32.202Z" fill="#FFEA94"/>
</g>
<path d="M68.7005 84.9623H14.904C13.5597 84.9623 12.4698 83.8725 12.4698 82.5281V50.7537C12.4698 49.4094 13.5597 48.3196 14.904 48.3196H68.7005C70.0448 48.3196 71.1347 49.4094 71.1347 50.7537V82.528C71.1347 83.8725 70.0448 84.9623 68.7005 84.9623Z" fill="#5CCEFF"/>
<path d="M39.7225 48.3196H19.133C17.5745 48.3196 16.311 49.5831 16.311 51.1416C16.311 52.7 17.5745 53.9635 19.133 53.9635H39.7227C41.2812 53.9635 42.5447 52.7 42.5447 51.1416C42.5445 49.5831 41.2812 48.3196 39.7225 48.3196Z" fill="#73E1FF"/>
<path d="M30.1375 48.3196H24.216C22.6575 48.3196 21.394 49.5831 21.394 51.1416C21.394 52.7 22.6575 53.9635 24.216 53.9635H30.1375C31.696 53.9635 32.9595 52.7 32.9595 51.1416C32.9595 49.5831 31.696 48.3196 30.1375 48.3196Z" fill="#B6F0FF"/>
<path d="M71.1347 50.754V82.528C71.1347 83.8729 70.0454 84.9622 68.7005 84.9622H41.3678C56.8227 81.0882 68.2684 67.1058 68.2684 50.4497C68.2684 49.7341 68.2477 49.0246 68.2052 48.3198H68.7005C70.0454 48.3198 71.1347 49.4091 71.1347 50.754Z" fill="#27B2FF"/>
<path d="M71.1347 74.9294V82.5278C71.1347 83.8726 70.0454 84.9619 68.7005 84.9619H53.9952C60.6493 83.2947 66.5595 79.7528 71.1347 74.9294Z" fill="#008CFF"/>
<path d="M67.5225 75.1501C66.7031 72.8987 64.1745 71.7636 61.9354 72.6765C59.8674 73.5197 58.8039 75.8699 59.5327 77.9811C60.1475 79.7623 61.8237 80.8632 63.6002 80.8378C63.9398 80.8329 64.2682 80.9595 64.5234 81.1836L64.9003 81.5146C65.1726 81.7538 65.6018 81.5976 65.6567 81.2392L65.7326 80.7439C65.7837 80.4108 65.9497 80.1025 66.2112 79.8902C67.5754 78.7831 68.1573 76.8938 67.5225 75.1501Z" fill="#FFC751"/>
<path d="M67.5225 75.1501C68.1571 76.8941 67.5748 78.7828 66.2109 79.8899C65.9497 80.1028 65.7838 80.4108 65.7326 80.744L65.6565 81.2393C65.6016 81.5978 65.1726 81.7541 64.9001 81.5147L64.5234 81.1841C64.2682 80.959 63.9398 80.8326 63.6003 80.8375C62.4405 80.8542 61.3236 80.3912 60.517 79.5718C61.3164 79.7693 62.181 79.7388 63.0131 79.436C65.2487 78.6222 66.4012 76.1508 65.5875 73.9152C65.3987 73.3966 65.1205 72.9367 64.777 72.5454C66.0063 72.9216 67.0493 73.85 67.5225 75.1501Z" fill="#FFAF40"/>
<path d="M61.8588 78.9156C62.0146 78.5805 61.9719 78.1889 61.7547 77.8899C61.6299 77.7181 61.5286 77.5262 61.4565 77.3172C61.1626 76.4671 61.4417 75.5249 62.0862 74.948C62.3946 74.6719 62.5014 74.2344 62.3599 73.8455C62.1136 73.169 61.2612 72.9534 60.7248 73.4335C59.4862 74.5424 58.9645 76.3347 59.5327 77.9811C59.6746 78.3923 59.8731 78.767 60.1165 79.0998C60.5713 79.7221 61.5251 79.6333 61.8501 78.9343L61.8588 78.9156Z" fill="#FFE059"/>
<path d="M25.3451 70.7593H19.7932C18.9286 70.7593 18.2277 70.0584 18.2277 69.1937C18.2277 68.3291 18.9286 67.6282 19.7932 67.6282H25.3451C26.2097 67.6282 26.9106 68.3291 26.9106 69.1937C26.9106 70.0584 26.2097 70.7593 25.3451 70.7593Z" fill="#706C64"/>
<path d="M22.4453 67.6272H21.4303C20.5657 67.6272 19.8647 68.3281 19.8647 69.1928C19.8647 70.0574 20.5657 70.7583 21.4303 70.7583H22.4453C23.3099 70.7583 24.0109 70.0574 24.0109 69.1928C24.0111 68.3281 23.3101 67.6272 22.4453 67.6272Z" fill="#8F8B81"/>
<path d="M36.5848 70.7593H31.033C30.1684 70.7593 29.4674 70.0584 29.4674 69.1937C29.4674 68.3291 30.1684 67.6282 31.033 67.6282H36.5848C37.4494 67.6282 38.1504 68.3291 38.1504 69.1937C38.1504 70.0584 37.4494 70.7593 36.5848 70.7593Z" fill="#706C64"/>
<path d="M33.6853 67.6272H32.6703C31.8057 67.6272 31.1047 68.3281 31.1047 69.1928C31.1047 70.0574 31.8057 70.7583 32.6703 70.7583H33.6853C34.5499 70.7583 35.2509 70.0574 35.2509 69.1928C35.2509 68.3281 34.5499 67.6272 33.6853 67.6272Z" fill="#8F8B81"/>
<path d="M47.7575 70.7593H42.2057C41.3411 70.7593 40.6401 70.0584 40.6401 69.1937C40.6401 68.3291 41.3411 67.6282 42.2057 67.6282H47.7575C48.6221 67.6282 49.3231 68.3291 49.3231 69.1937C49.3231 70.0584 48.6221 70.7593 47.7575 70.7593Z" fill="#706C64"/>
<path d="M44.858 67.6272H43.843C42.9784 67.6272 42.2775 68.3281 42.2775 69.1928C42.2775 70.0574 42.9784 70.7583 43.843 70.7583H44.858C45.7226 70.7583 46.4236 70.0574 46.4236 69.1928C46.4236 68.3281 45.7226 67.6272 44.858 67.6272Z" fill="#8F8B81"/>
<path d="M58.9974 70.7593H53.4456C52.581 70.7593 51.88 70.0584 51.88 69.1937C51.88 68.3291 52.581 67.6282 53.4456 67.6282H58.9974C59.862 67.6282 60.563 68.3291 60.563 69.1937C60.563 70.0584 59.862 70.7593 58.9974 70.7593Z" fill="#706C64"/>
<path d="M56.0979 67.6272H55.0829C54.2183 67.6272 53.5173 68.3281 53.5173 69.1928C53.5173 70.0574 54.2183 70.7583 55.0829 70.7583H56.0979C56.9625 70.7583 57.6635 70.0574 57.6635 69.1928C57.6635 68.3281 56.9625 67.6272 56.0979 67.6272Z" fill="#8F8B81"/>
<path d="M41.5284 79.2566H19.7582C18.9129 79.2566 18.2275 78.5713 18.2275 77.7259C18.2275 76.8806 18.9129 76.1953 19.7582 76.1953H41.5284C42.3738 76.1953 43.0589 76.8806 43.0589 77.7259C43.0591 78.5713 42.3738 79.2566 41.5284 79.2566Z" fill="#E8E4D8"/>
<path d="M33.716 76.1954H23.5633C22.718 76.1954 22.0328 76.8807 22.0328 77.7259C22.0328 78.5712 22.7182 79.2564 23.5633 79.2564H33.716C34.5613 79.2564 35.2465 78.571 35.2465 77.7259C35.2466 76.8807 34.5613 76.1954 33.716 76.1954Z" fill="#F1EEE0"/>
<path d="M28.7173 76.1954H26.4078C25.5624 76.1954 24.8771 76.8807 24.8771 77.7261C24.8771 78.5714 25.5624 79.2567 26.4078 79.2567H28.7173C29.5627 79.2567 30.248 78.5714 30.248 77.7261C30.248 76.8807 29.5627 76.1954 28.7173 76.1954Z" fill="#F9F8F2"/>
<path d="M26.6282 63.3247H20.0533C19.045 63.3247 18.2277 62.5073 18.2277 61.499V55.7891C18.2277 54.7808 19.045 53.9634 20.0533 53.9634H26.6282C27.6365 53.9634 28.4538 54.7808 28.4538 55.7891V61.499C28.4538 62.5073 27.6365 63.3247 26.6282 63.3247Z" fill="#FFC751"/>
<path d="M21.8357 59.0475V57.216C21.8357 56.2197 21.0281 55.4121 20.0318 55.4121C19.0355 55.4121 18.2279 56.2197 18.2279 57.216V59.0475C18.2279 60.0438 19.0355 60.8513 20.0318 60.8513C21.0279 60.8515 21.8357 60.0438 21.8357 59.0475Z" fill="#FFE059"/>
<path d="M28.4542 58.4688V61.4994C28.4542 62.5072 27.6363 63.3251 26.6286 63.3251H21.1528C24.2064 62.7736 26.8233 60.9723 28.4542 58.4688Z" fill="#FFAF40"/>
<path d="M63.652 58.2585H48.1425C47.4702 58.2585 46.9253 57.7136 46.9253 57.0413V52.9414C46.9253 52.2691 47.4702 51.7242 48.1425 51.7242H63.652C64.3243 51.7242 64.8692 52.2691 64.8692 52.9414V57.0413C64.8692 57.7136 64.3243 58.2585 63.652 58.2585Z" fill="#F1EEE0"/>
<path d="M49.0543 53.3123C49.0543 54.1893 49.7653 54.9002 50.6422 54.9002H57.4467C58.3236 54.9002 59.0346 54.1893 59.0346 53.3123C59.0346 52.4354 58.3236 51.7244 57.4467 51.7244H50.6422C49.7654 51.7244 49.0543 52.4354 49.0543 53.3123Z" fill="#F9F8F2"/>
<path d="M64.8694 52.941V57.0416C64.8694 57.7135 64.3241 58.2587 63.6522 58.2587H56.3933C59.178 57.0209 61.3457 54.6463 62.3073 51.7241H63.6522C64.3241 51.7239 64.8694 52.2692 64.8694 52.941Z" fill="#E8E4D8"/>
</g>
<defs>
<clipPath id="clip0">
<rect width="93" height="93" fill="white"/>
</clipPath>
<clipPath id="clip1">
<rect width="38.75" height="38.75" fill="white" transform="translate(0 17.4375)"/>
</clipPath>
</defs>
</svg>
