<svg width="104" height="104" viewBox="0 0 104 104" fill="none" xmlns="http://www.w3.org/2000/svg">
<path d="M100.168 47.7084V88.6853L91.885 96.9681V55.9911L100.168 47.7084Z" fill="#D9B089"/>
<path d="M100.168 47.7084L91.8852 55.9911H82.8055V55.8516L90.9487 47.7084H100.168Z" fill="#F8D3AC"/>
<path d="M47.9124 56.0275H92.0062V96.8851H47.9124V56.0275Z" fill="#EBC59D"/>
<path d="M91.151 47.7084L83.0078 55.8516V14.8747L91.2906 6.59192V47.5688L91.151 47.7084Z" fill="#967669"/>
<path d="M39.0309 14.9677L38.8104 15.0769V56.0275H83.1065V55.8515V14.9677H39.0309Z" fill="#AF8977"/>
<path d="M3.61621 56.0275H47.9123V96.8851H3.61621V56.0275Z" fill="#7F5D4A"/>
<path d="M69.2027 6.79419L60.9199 15.077H83.0073L91.2901 6.79419H69.2027Z" fill="#C79A83"/>
<path d="M47.1153 6.79419L39.0308 15.077H60.9199L69.2027 6.79419H47.1153Z" fill="#E1B7A3"/>
<path d="M38.8103 47.9105H33.9154L25.6327 56.1933H38.8325V47.9105H38.8103Z" fill="#926D56"/>
<path d="M11.8284 47.9105L3.54565 56.1933H25.633L33.9158 47.9105H11.8284Z" fill="#A07B67"/>
<path d="M63.8022 55.9911V56.0336V63.6367H76.2476V56.0336V55.9911H63.8022Z" fill="#CAE6EE"/>
<path d="M75.837 96.9478V96.968H64.2128V96.9478V85.8353L66.1141 87.8398L68.0801 85.8353L70.0259 87.8398L71.9696 85.8353L73.9357 87.8398L75.837 85.8353V96.9478Z" fill="#D8FF33"/>
<path d="M54.7228 14.8745V14.917V22.5201H67.1661V14.917V14.8745H54.7228Z" fill="#CAE6EE"/>
<path d="M64.8542 46.7233L62.8902 44.7189L60.9444 46.7233L59.0007 44.7189L57.0347 46.7233L55.1313 44.7189V55.9911H66.7576V44.7189L64.8542 46.7233Z" fill="#FB6771"/>
<path d="M19.4354 55.9911V56.0336V63.6367H31.8788V56.0336V55.9911H19.4354Z" fill="#CAE6EE"/>
<path d="M31.4702 96.9478V96.968H19.844V96.9478V85.8353L21.7473 87.8398L23.7133 85.8353L25.6571 87.8398L27.6009 85.8353L29.5669 87.8398L31.4702 85.8353V96.9478Z" fill="#5FA8ED"/>
<path d="M45.0989 14.9677H39.0309L38.8104 15.0769V56.0275H44.8784V15.0769L45.0989 14.9677Z" fill="#C6A599"/>
<path d="M3.61621 56.0275H9.68417V96.8851H3.61621V56.0275Z" fill="#997462"/>
<path d="M47.1153 6.79419L39.0308 15.077H45.0987L53.1833 6.79419H47.1153Z" fill="#EFCCBF"/>
<path d="M11.8284 47.9105L3.54565 56.1933H9.61361L17.8964 47.9105H11.8284Z" fill="#AF8C7D"/>
<path d="M9.0101 63.7255C8.68824 63.7255 8.37955 63.5976 8.15196 63.37C7.92437 63.1425 7.79651 62.8338 7.79651 62.5119V61.2376C7.79651 60.9158 7.92437 60.6071 8.15196 60.3795C8.37955 60.1519 8.68824 60.024 9.0101 60.024C9.33196 60.024 9.64065 60.1519 9.86824 60.3795C10.0958 60.6071 10.2237 60.9158 10.2237 61.2376V62.5119C10.2237 62.8338 10.0958 63.1425 9.86824 63.37C9.64065 63.5976 9.33196 63.7255 9.0101 63.7255Z" fill="#F4F8FC"/>
<path d="M9.0101 80.9178C8.68824 80.9178 8.37955 80.7899 8.15196 80.5624C7.92437 80.3348 7.79651 80.0261 7.79651 79.7042V66.3547C7.79651 66.0328 7.92437 65.7242 8.15196 65.4966C8.37955 65.269 8.68824 65.1411 9.0101 65.1411C9.33196 65.1411 9.64065 65.269 9.86824 65.4966C10.0958 65.7242 10.2237 66.0328 10.2237 66.3547V79.7042C10.2237 80.0261 10.0958 80.3348 9.86824 80.5624C9.64065 80.7899 9.33196 80.9178 9.0101 80.9178Z" fill="#F4F8FC"/>
</svg>
