<svg width="98" height="98" viewBox="0 0 98 98" fill="none" xmlns="http://www.w3.org/2000/svg">
<path d="M23.069 46.5594C24.2287 45.8803 25.1326 44.8384 25.6411 43.5944C26.1497 42.3505 26.2346 40.9737 25.8828 39.6767C25.531 38.3796 24.762 37.2345 23.6946 36.418C22.6271 35.6016 21.3206 35.1592 19.9767 35.1592C18.6328 35.1592 17.3263 35.6016 16.2589 36.418C15.1915 37.2345 14.4225 38.3796 14.0707 39.6767C13.7189 40.9737 13.8038 42.3505 14.3124 43.5944C14.8209 44.8384 15.7248 45.8803 16.8845 46.5594C15.5298 47.1571 14.3779 48.1356 13.5688 49.3758C12.7598 50.616 12.3285 52.0645 12.3274 53.5453V68.844H27.6261V53.5453C27.625 52.0645 27.1937 50.616 26.3846 49.3758C25.5756 48.1356 24.4237 47.1571 23.069 46.5594Z" fill="#FCCC38"/>
<path d="M36.6963 79.928V76.1185L33.6209 74.7614C33.4457 73.9749 33.205 73.2045 32.9012 72.4581L34.5959 69.5346C33.9765 68.4289 33.2366 67.3951 32.3899 66.4521L29.1357 67.1973C28.5407 66.6739 27.9024 66.2019 27.2278 65.7861L26.9165 62.3852C25.7855 61.855 24.5976 61.4556 23.376 61.1948L21.1583 63.768H18.7954L16.5778 61.1948C15.3562 61.4556 14.1684 61.8549 13.0373 62.3851L12.7261 65.786C12.0515 66.2018 11.4133 66.6739 10.8182 67.1971L7.56412 66.4518C6.71737 67.3949 5.97748 68.4288 5.35794 69.5345L7.05249 72.4578C6.74876 73.2042 6.50807 73.9747 6.33294 74.7612L3.25732 76.1185V79.928L6.33274 81.2851C6.508 82.0716 6.74872 82.8421 7.05239 83.5885L5.35771 86.5118C5.97718 87.6176 6.71704 88.6514 7.56378 89.5945L10.8179 88.8493C11.413 89.3727 12.0512 89.8448 12.7259 90.2605L13.0371 93.6614C14.1682 94.1915 15.3561 94.5909 16.5777 94.8519L18.7954 92.2786H21.1582L23.3759 94.8519C24.5974 94.5909 25.7852 94.1915 26.9163 93.6614L27.2275 90.2605C27.9021 89.8447 28.5403 89.3727 29.1355 88.8494L32.3895 89.5946C33.2363 88.6515 33.9762 87.6177 34.5958 86.5121L32.9012 83.5887C33.2049 82.8424 33.4456 82.0719 33.6208 81.2854L36.6963 79.928ZM19.9768 84.7547C18.6455 84.7547 17.344 84.36 16.237 83.6203C15.1301 82.8806 14.2673 81.8293 13.7578 80.5993C13.2483 79.3693 13.115 78.0159 13.3747 76.7101C13.6345 75.4043 14.2756 74.2049 15.217 73.2635C16.1584 72.3221 17.3578 71.681 18.6636 71.4212C19.9694 71.1615 21.3228 71.2948 22.5528 71.8043C23.7828 72.3138 24.8341 73.1766 25.5738 74.2835C26.3135 75.3905 26.7082 76.692 26.7082 78.0233C26.7082 79.8086 25.999 81.5208 24.7367 82.7832C23.4743 84.0455 21.7621 84.7547 19.9768 84.7547Z" fill="#17AFDC"/>
<path d="M52.1364 14.4323C53.296 13.7532 54.1999 12.7113 54.7085 11.4673C55.2171 10.2234 55.302 8.84662 54.9502 7.5496C54.5984 6.25257 53.8294 5.10743 52.762 4.29096C51.6945 3.47449 50.388 3.0321 49.0441 3.0321C47.7002 3.0321 46.3937 3.47449 45.3263 4.29096C44.2588 5.10743 43.4899 6.25257 43.1381 7.5496C42.7862 8.84662 42.8712 10.2234 43.3797 11.4673C43.8883 12.7113 44.7922 13.7532 45.9519 14.4323C44.5971 15.0301 43.4452 16.0085 42.6362 17.2487C41.8272 18.4889 41.3959 19.9375 41.3948 21.4182V36.7169H56.6935V21.4182C56.6923 19.9375 56.261 18.4889 55.452 17.2487C54.643 16.0085 53.4911 15.0301 52.1364 14.4323Z" fill="#F4393D"/>
<path d="M65.7637 46.2709V42.4614L62.6883 41.1043C62.5131 40.3178 62.2724 39.5474 61.9686 38.801L63.6633 35.8775C63.0439 34.7718 62.304 33.738 61.4572 32.795L58.2031 33.5402C57.6081 33.0168 56.9698 32.5448 56.2951 32.129L55.9839 28.7281C54.8529 28.1979 53.665 27.7985 52.4434 27.5377L50.2257 30.1109H47.8628L45.6452 27.5377C44.4236 27.7985 43.2357 28.1978 42.1047 28.728L41.7935 32.1289C41.1189 32.5447 40.4806 33.0168 39.8855 33.54L36.6315 32.7947C35.7848 33.7378 35.0449 34.7716 34.4253 35.8773L36.1199 38.8006C35.8161 39.547 35.5755 40.3176 35.4003 41.1041L32.3247 42.4613V46.2709L35.4001 47.628C35.5754 48.4145 35.8161 49.185 36.1198 49.9314L34.4251 52.8547C35.0446 53.9605 35.7844 54.9943 36.6312 55.9374L39.8853 55.1922C40.4803 55.7156 41.1186 56.1877 41.7933 56.6034L42.1045 60.0043C43.2356 60.5344 44.4235 60.9338 45.645 61.1948L47.8628 58.6215H50.2256L52.4433 61.1948C53.6648 60.9338 54.8526 60.5344 55.9837 60.0043L56.2949 56.6034C56.9695 56.1876 57.6077 55.7155 58.2029 55.1923L61.4569 55.9375C62.3037 54.9944 63.0436 53.9606 63.6632 52.855L61.9685 49.9316C62.2723 49.1853 62.513 48.4148 62.6882 47.6283L65.7637 46.2709ZM49.0442 51.0976C47.7129 51.0976 46.4114 50.7029 45.3044 49.9632C44.1974 49.2235 43.3347 48.1722 42.8252 46.9422C42.3157 45.7122 42.1824 44.3588 42.4421 43.053C42.7019 41.7472 43.343 40.5478 44.2844 39.6064C45.2258 38.665 46.4252 38.0239 47.731 37.7641C49.0367 37.5044 50.3902 37.6377 51.6202 38.1472C52.8502 38.6567 53.9015 39.5195 54.6412 40.6264C55.3808 41.7334 55.7756 43.0349 55.7756 44.3662C55.7756 46.1515 55.0664 47.8637 53.804 49.1261C52.5417 50.3884 50.8295 51.0976 49.0442 51.0976Z" fill="#5358A1"/>
<path d="M81.204 48.0893C82.3637 47.4102 83.2676 46.3683 83.7761 45.1243C84.2847 43.8804 84.3696 42.5036 84.0178 41.2066C83.666 39.9096 82.897 38.7644 81.8296 37.9479C80.7622 37.1315 79.4556 36.6891 78.1118 36.6891C76.7679 36.6891 75.4613 37.1315 74.3939 37.9479C73.3265 38.7644 72.5575 39.9096 72.2057 41.2066C71.8539 42.5036 71.9388 43.8804 72.4474 45.1243C72.9559 46.3683 73.8598 47.4102 75.0195 48.0893C73.6648 48.687 72.5129 49.6655 71.7038 50.9057C70.8948 52.1459 70.4635 53.5944 70.4624 55.0752V70.3739H85.7611V55.0752C85.76 53.5944 85.3287 52.1459 84.5197 50.9057C83.7106 49.6655 82.5587 48.687 81.204 48.0893Z" fill="#FCCC38"/>
<path d="M94.8311 79.928V76.1185L91.7557 74.7614C91.5805 73.9749 91.3397 73.2045 91.036 72.4581L92.7307 69.5346C92.1112 68.4289 91.3714 67.3951 90.5246 66.4521L87.2705 67.1973C86.6754 66.6739 86.0372 66.2019 85.3625 65.7861L85.0513 62.3852C83.9202 61.855 82.7324 61.4556 81.5107 61.1948L79.2931 63.768H76.9302L74.7126 61.1948C73.491 61.4556 72.3031 61.8549 71.1721 62.3851L70.8609 65.786C70.1863 66.2018 69.548 66.6739 68.9529 67.1971L65.6989 66.4518C64.8521 67.3949 64.1122 68.4288 63.4927 69.5345L65.1873 72.4578C64.8835 73.2042 64.6428 73.9747 64.4677 74.7612L61.3921 76.1185V79.928L64.4675 81.2851C64.6428 82.0716 64.8835 82.8421 65.1872 83.5885L63.4925 86.5118C64.112 87.6176 64.8518 88.6514 65.6986 89.5945L68.9527 88.8493C69.5477 89.3727 70.186 89.8448 70.8607 90.2605L71.1719 93.6614C72.303 94.1915 73.4908 94.5909 74.7124 94.8519L76.9302 92.2786H79.293L81.5107 94.8519C82.7322 94.5909 83.92 94.1915 85.0511 93.6614L85.3623 90.2605C86.0369 89.8447 86.6751 89.3727 87.2703 88.8494L90.5243 89.5946C91.3711 88.6515 92.111 87.6177 92.7306 86.5121L91.0359 83.5887C91.3397 82.8424 91.5804 82.0719 91.7556 81.2854L94.8311 79.928ZM78.1116 84.7547C76.7802 84.7547 75.4788 84.36 74.3718 83.6203C73.2648 82.8806 72.402 81.8293 71.8926 80.5993C71.3831 79.3693 71.2498 78.0159 71.5095 76.7101C71.7692 75.4043 72.4103 74.2049 73.3518 73.2635C74.2932 72.3221 75.4926 71.681 76.7984 71.4212C78.1041 71.1615 79.4576 71.2948 80.6876 71.8043C81.9176 72.3138 82.9689 73.1766 83.7086 74.2835C84.4482 75.3905 84.843 76.692 84.843 78.0233C84.843 79.8086 84.1338 81.5208 82.8714 82.7832C81.609 84.0455 79.8969 84.7547 78.1116 84.7547Z" fill="#8BB4FC"/>
<path d="M14.5685 33.2575L11.812 31.9293C16.1765 22.8624 23.6971 15.6979 32.965 11.7781L34.1572 14.5958C25.5745 18.2258 18.61 24.8607 14.5685 33.2575Z" fill="#848A8C"/>
<path d="M49.0877 94.852C44.9234 94.8554 40.7825 94.2293 36.8054 92.9949L37.7138 90.0726C45.3473 92.4231 53.5216 92.3505 61.1123 89.8649L62.0729 92.7693C57.8836 94.1531 53.4996 94.8562 49.0877 94.852Z" fill="#848A8C"/>
<path d="M83.71 33.6572C79.6479 24.9419 72.449 18.0788 63.5498 14.4374L64.7106 11.6063C74.321 15.5385 82.0951 22.9501 86.4814 32.3618L83.71 33.6572Z" fill="#848A8C"/>
<path d="M78.1116 68.8441C76.2961 68.8441 74.5214 69.3825 73.0119 70.3911C71.5024 71.3997 70.3259 72.8333 69.6311 74.5106C68.9364 76.1879 68.7546 78.0335 69.1088 79.8141C69.4629 81.5947 70.3372 83.2303 71.6209 84.514C72.9046 85.7977 74.5402 86.672 76.3208 87.0262C78.1014 87.3803 79.947 87.1986 81.6243 86.5038C83.3016 85.8091 84.7352 84.6325 85.7438 83.123C86.7525 81.6135 87.2908 79.8388 87.2908 78.0233C87.2908 75.5889 86.3237 73.2541 84.6023 71.5326C82.8808 69.8112 80.5461 68.8441 78.1116 68.8441ZM78.1116 84.7548C76.7802 84.7548 75.4788 84.36 74.3718 83.6203C73.2648 82.8806 72.4021 81.8293 71.8926 80.5993C71.3831 79.3693 71.2498 78.0159 71.5095 76.7101C71.7692 75.4043 72.4103 74.2049 73.3518 73.2635C74.2932 72.3221 75.4926 71.681 76.7984 71.4212C78.1041 71.1615 79.4576 71.2948 80.6876 71.8043C81.9176 72.3138 82.9689 73.1766 83.7086 74.2836C84.4482 75.3905 84.843 76.692 84.843 78.0233C84.843 79.8086 84.1338 81.5208 82.8714 82.7832C81.609 84.0456 79.8969 84.7548 78.1116 84.7548Z" fill="#B5CFF4"/>
<path d="M49.0442 35.187C47.2287 35.187 45.454 35.7254 43.9445 36.734C42.435 37.7426 41.2585 39.1762 40.5637 40.8535C39.869 42.5308 39.6872 44.3764 40.0414 46.157C40.3956 47.9376 41.2698 49.5732 42.5535 50.8569C43.8373 52.1406 45.4728 53.0149 47.2534 53.3691C49.034 53.7232 50.8797 53.5415 52.5569 52.8467C54.2342 52.152 55.6678 50.9754 56.6764 49.4659C57.6851 47.9564 58.2234 46.1817 58.2234 44.3662C58.2234 41.9317 57.2563 39.597 55.5349 37.8755C53.8134 36.1541 51.4787 35.187 49.0442 35.187ZM49.0442 51.0976C47.7129 51.0976 46.4114 50.7028 45.3044 49.9632C44.1974 49.2235 43.3347 48.1722 42.8252 46.9422C42.3157 45.7122 42.1824 44.3588 42.4421 43.053C42.7019 41.7472 43.343 40.5478 44.2844 39.6064C45.2258 38.665 46.4252 38.0239 47.731 37.7641C49.0367 37.5044 50.3902 37.6377 51.6202 38.1472C52.8502 38.6567 53.9015 39.5195 54.6412 40.6264C55.3808 41.7334 55.7756 43.0349 55.7756 44.3662C55.7756 46.1515 55.0664 47.8637 53.804 49.1261C52.5416 50.3884 50.8295 51.0976 49.0442 51.0976Z" fill="#6570D6"/>
<path d="M19.9766 68.8441C18.1611 68.8441 16.3864 69.3825 14.8769 70.3911C13.3674 71.3997 12.1908 72.8333 11.4961 74.5106C10.8013 76.1879 10.6196 78.0335 10.9737 79.8141C11.3279 81.5947 12.2022 83.2303 13.4859 84.514C14.7696 85.7977 16.4052 86.672 18.1858 87.0262C19.9664 87.3803 21.812 87.1986 23.4893 86.5038C25.1666 85.8091 26.6002 84.6325 27.6088 83.123C28.6174 81.6135 29.1558 79.8388 29.1558 78.0233C29.1558 75.5889 28.1887 73.2541 26.4673 71.5326C24.7458 69.8112 22.4111 68.8441 19.9766 68.8441ZM19.9766 84.7548C18.6452 84.7548 17.3438 84.36 16.2368 83.6203C15.1298 82.8806 14.267 81.8293 13.7576 80.5993C13.2481 79.3693 13.1148 78.0159 13.3745 76.7101C13.6342 75.4043 14.2753 74.2049 15.2167 73.2635C16.1581 72.3221 17.3576 71.681 18.6633 71.4212C19.9691 71.1615 21.3226 71.2948 22.5526 71.8043C23.7826 72.3138 24.8339 73.1766 25.5735 74.2836C26.3132 75.3905 26.708 76.692 26.708 78.0233C26.708 79.8086 25.9988 81.5208 24.7364 82.7832C23.474 84.0456 21.7619 84.7548 19.9766 84.7548Z" fill="#5AC8E2"/>
</svg>
