<svg width="147" height="124" viewBox="0 0 147 124" fill="none" xmlns="http://www.w3.org/2000/svg">
<path d="M17.0605 21.2819H129.274V90.9315H17.0605V21.2819Z" fill="#FEF3CE"/>
<path d="M18.0105 86.6752L102.997 81.3636C106.019 81.1747 108.576 79.0646 109.336 76.1339L123.822 20.2618H128.324V90.0522H18.0105V86.6752Z" fill="#FDE7C6"/>
<path d="M6.75391 92.3035H139.581V94.0574C139.581 96.8188 137.342 99.0574 134.581 99.0574H11.7539C8.99248 99.0574 6.75391 96.8188 6.75391 94.0574V92.3035Z" fill="#F4CC8F"/>
<path d="M125.404 5.8042H20.93C19.9037 5.8042 18.9195 6.21187 18.1939 6.93753C17.4682 7.66318 17.0605 8.64739 17.0605 9.67362V21.2819H129.274V9.67362C129.274 8.64739 128.866 7.66318 128.14 6.93753C127.415 6.21187 126.431 5.8042 125.404 5.8042Z" fill="#006DF0"/>
<path d="M36.4078 11.6084H34.473C33.9599 11.6084 33.4678 11.8122 33.105 12.1751C32.7422 12.5379 32.5383 13.03 32.5383 13.5431C32.5383 14.0562 32.7422 14.5483 33.105 14.9112C33.4678 15.274 33.9599 15.4778 34.473 15.4778H36.4078C36.9209 15.4778 37.413 15.274 37.7758 14.9112C38.1386 14.5483 38.3425 14.0562 38.3425 13.5431C38.3425 13.03 38.1386 12.5379 37.7758 12.1751C37.413 11.8122 36.9209 11.6084 36.4078 11.6084Z" fill="#F1F2F2"/>
<path d="M26.7342 11.6084H24.7995C24.2863 11.6084 23.7942 11.8122 23.4314 12.1751C23.0686 12.5379 22.8647 13.03 22.8647 13.5431C22.8647 14.0562 23.0686 14.5483 23.4314 14.9112C23.7942 15.274 24.2863 15.4778 24.7995 15.4778H26.7342C27.2473 15.4778 27.7394 15.274 28.1022 14.9112C28.465 14.5483 28.6689 14.0562 28.6689 13.5431C28.6689 13.03 28.465 12.5379 28.1022 12.1751C27.7394 11.8122 27.2473 11.6084 26.7342 11.6084Z" fill="#F1F2F2"/>
<path d="M46.0813 11.6084H44.1466C43.6335 11.6084 43.1414 11.8122 42.7786 12.1751C42.4157 12.5379 42.2119 13.03 42.2119 13.5431C42.2119 14.0562 42.4157 14.5483 42.7786 14.9112C43.1414 15.274 43.6335 15.4778 44.1466 15.4778H46.0813C46.5945 15.4778 47.0866 15.274 47.4494 14.9112C47.8122 14.5483 48.016 14.0562 48.016 13.5431C48.016 13.03 47.8122 12.5379 47.4494 12.1751C47.0866 11.8122 46.5945 11.6084 46.0813 11.6084Z" fill="#F1F2F2"/>
<g clip-path="url(#clip0)">
<path d="M115.554 69.7739C117.625 69.7739 119.304 68.0948 119.304 66.0236C119.304 63.9524 117.625 62.2733 115.554 62.2733C113.482 62.2733 111.803 63.9524 111.803 66.0236C111.803 68.0948 113.482 69.7739 115.554 69.7739Z" fill="#455A64"/>
<path d="M100.552 69.7739C102.623 69.7739 104.302 68.0948 104.302 66.0236C104.302 63.9524 102.623 62.2733 100.552 62.2733C98.4808 62.2733 96.8018 63.9524 96.8018 66.0236C96.8018 68.0948 98.4808 69.7739 100.552 69.7739Z" fill="#455A64"/>
<path d="M122.116 41.525C121.973 41.3637 121.768 41.2713 121.553 41.2715H94.551C94.1368 41.2714 93.8009 41.6071 93.8008 42.0214C93.8008 42.0718 93.8058 42.1221 93.816 42.1716L96.8162 57.1728C96.8875 57.5221 97.1948 57.7729 97.5513 57.7728C97.5843 57.775 97.6173 57.775 97.6503 57.7728L120.152 54.7726C120.49 54.7274 120.755 54.4599 120.797 54.1215L122.297 42.1204C122.326 41.9051 122.26 41.6878 122.116 41.525Z" fill="#FFC107"/>
<path d="M100.551 54.7712C100.185 54.7711 99.872 54.5058 99.8119 54.1442L98.3118 45.1434C98.2562 44.7329 98.5439 44.3551 98.9544 44.2995C99.3475 44.2462 99.7141 44.5083 99.791 44.8975L101.291 53.8982C101.359 54.3066 101.083 54.6927 100.675 54.7608C100.634 54.7678 100.593 54.7713 100.551 54.7712Z" fill="#FAFAFA"/>
<path d="M104.302 54.0225C103.913 54.0241 103.587 53.7277 103.552 53.3399L102.802 45.0892C102.763 44.6768 103.066 44.311 103.478 44.2722C103.481 44.272 103.482 44.2719 103.485 44.2717C103.897 44.2343 104.262 44.5386 104.299 44.9511V44.9512L105.049 53.2019C105.086 53.6145 104.782 53.9791 104.37 54.0165H104.37L104.302 54.0225Z" fill="#FAFAFA"/>
<path d="M108.052 53.2725C107.638 53.2725 107.302 52.9366 107.302 52.5224V45.0218C107.302 44.6076 107.638 44.2717 108.052 44.2717C108.467 44.2717 108.802 44.6076 108.802 45.0218V52.5225C108.802 52.9367 108.467 53.2725 108.052 53.2725Z" fill="#FAFAFA"/>
<path d="M111.803 52.5225H111.718C111.307 52.4789 111.008 52.1096 111.052 51.6976C111.052 51.695 111.052 51.6924 111.052 51.6899L111.803 44.9393C111.851 44.5268 112.222 44.2296 112.635 44.2718C113.047 44.3174 113.344 44.688 113.298 45.0998V45.0999L112.548 51.8504C112.508 52.2322 112.186 52.5222 111.803 52.5225Z" fill="#FAFAFA"/>
<path d="M115.553 51.7724C115.139 51.7723 114.803 51.4363 114.803 51.0221C114.803 50.961 114.811 50.9001 114.826 50.8408L116.326 44.8403C116.417 44.4362 116.818 44.1823 117.222 44.2732C117.626 44.3641 117.88 44.7655 117.789 45.1696C117.787 45.181 117.784 45.1922 117.781 45.2034L116.281 51.2039C116.197 51.5379 115.897 51.7723 115.553 51.7724Z" fill="#FAFAFA"/>
<path d="M118.553 60.7731H101.24C98.74 60.7673 96.5885 59.0038 96.092 56.5532L92.4362 38.2712H88.5509C88.1366 38.2712 87.8008 37.9353 87.8008 37.5211C87.8008 37.1068 88.1366 36.771 88.5509 36.771H93.0512C93.4078 36.7709 93.715 37.0218 93.7863 37.371L97.5636 56.2576C97.9176 58.0083 99.4543 59.2684 101.24 59.2729H118.553C118.968 59.2729 119.303 59.6087 119.303 60.023C119.303 60.4372 118.968 60.7731 118.553 60.7731Z" fill="#455A64"/>
</g>
<g clip-path="url(#clip1)">
<path d="M42.9724 70.9919L44.7099 55.2183C44.7625 54.7383 45.1679 54.3749 45.6507 54.3749H51.9689L50.9797 45.268C50.8964 44.5078 50.2543 43.9323 49.4896 43.9323H27.9431C27.1783 43.9323 26.5361 44.5079 26.4529 45.268L23.701 70.3791C23.6037 71.2663 24.2986 72.0415 25.1912 72.0415H43.9132C43.3497 72.0415 42.911 71.5521 42.9724 70.9919Z" fill="#7FB3FA"/>
<path d="M29.4385 70.3794L32.1903 45.2684C32.2737 44.5082 32.9158 43.9326 33.6805 43.9326H27.9431C27.1783 43.9326 26.5362 44.5083 26.4529 45.2684L23.701 70.3794C23.6037 71.2666 24.2986 72.0418 25.1912 72.0418H30.9286C30.0361 72.0418 29.3412 71.2666 29.4385 70.3794Z" fill="#64A6F4"/>
<path d="M46.4901 47.805C46.1573 47.805 45.8876 47.5353 45.8876 47.2026V39.8946C45.8876 35.9401 42.6705 32.723 38.7161 32.723C34.7616 32.723 31.5445 35.9401 31.5445 39.8946V47.2026C31.5445 47.5353 31.2748 47.805 30.9421 47.805C30.6093 47.805 30.3396 47.5353 30.3396 47.2026V39.8946C30.3397 35.2758 34.0974 31.5182 38.7161 31.5182C43.3348 31.5182 47.0925 35.2758 47.0925 39.8946V47.2026C47.0925 47.5354 46.8228 47.805 46.4901 47.805Z" fill="#B5DCFF"/>
<path d="M30.9426 50.6038C29.8617 50.6038 28.9822 49.7243 28.9822 48.6434C28.9822 47.5625 29.8616 46.6831 30.9426 46.6831C32.0236 46.6831 32.9029 47.5625 32.9029 48.6434C32.9029 49.7243 32.0235 50.6038 30.9426 50.6038ZM30.9426 47.888C30.526 47.888 30.1871 48.2269 30.1871 48.6434C30.1871 49.06 30.526 49.3989 30.9426 49.3989C31.3591 49.3989 31.698 49.06 31.698 48.6434C31.698 48.2269 31.3591 47.888 30.9426 47.888Z" fill="#DBEDFF"/>
<path d="M46.4903 50.6038C45.4094 50.6038 44.53 49.7243 44.53 48.6434C44.53 47.5625 45.4094 46.6831 46.4903 46.6831C47.5713 46.6831 48.4507 47.5625 48.4507 48.6434C48.4507 49.7243 47.5713 50.6038 46.4903 50.6038ZM46.4903 47.888C46.0738 47.888 45.7349 48.2269 45.7349 48.6434C45.7349 49.06 46.0738 49.3989 46.4903 49.3989C46.9069 49.3989 47.2458 49.06 47.2458 48.6434C47.2458 48.2269 46.9069 47.888 46.4903 47.888Z" fill="#DBEDFF"/>
<path d="M61.852 70.9922L60.1146 55.1382C60.062 54.6582 59.6566 54.2948 59.1738 54.2948H45.5702C45.0874 54.2948 44.682 54.6582 44.6294 55.1382L42.892 70.9922C42.8306 71.5524 43.2693 72.0418 43.8328 72.0418H60.9111C61.4747 72.0418 61.9134 71.5524 61.852 70.9922Z" fill="#FF94D5"/>
<path d="M48.6294 70.9922L50.3669 55.1382C50.4195 54.6582 50.8249 54.2948 51.3077 54.2948H45.5702C45.0874 54.2948 44.682 54.6582 44.6294 55.1382L42.892 70.9922C42.8306 71.5524 43.2693 72.0418 43.8328 72.0418H49.5703C49.0067 72.0418 48.568 71.5524 48.6294 70.9922Z" fill="#FF72C7"/>
<path d="M52.3719 67.6576C49.6035 67.6576 47.3513 65.4054 47.3513 62.6371V59.0634C47.3513 58.7307 47.6211 58.4609 47.9538 58.4609C48.2865 58.4609 48.5563 58.7307 48.5563 59.0634V62.6371C48.5563 64.741 50.268 66.4528 52.3719 66.4528C54.4759 66.4528 56.1876 64.741 56.1876 62.6371V59.0634C56.1876 58.7307 56.4574 58.4609 56.7901 58.4609C57.1228 58.4609 57.3926 58.7307 57.3926 59.0634V62.6371C57.3924 65.4054 55.1402 67.6576 52.3719 67.6576Z" fill="#B5DCFF"/>
<path d="M56.7896 59.5833C55.7491 59.5833 54.9026 58.7368 54.9026 57.6963C54.9026 56.6558 55.7491 55.8093 56.7896 55.8093C57.8301 55.8093 58.6766 56.6558 58.6766 57.6963C58.6766 58.7368 57.8301 59.5833 56.7896 59.5833ZM56.7896 57.0142C56.4135 57.0142 56.1075 57.3202 56.1075 57.6963C56.1075 58.0724 56.4135 58.3784 56.7896 58.3784C57.1657 58.3784 57.4717 58.0724 57.4717 57.6963C57.4717 57.3202 57.1657 57.0142 56.7896 57.0142Z" fill="#DBEDFF"/>
<path d="M47.9537 59.5833C46.9132 59.5833 46.0667 58.7368 46.0667 57.6963C46.0667 56.6558 46.9132 55.8093 47.9537 55.8093C48.9942 55.8093 49.8406 56.6558 49.8406 57.6963C49.8406 58.7368 48.9942 59.5833 47.9537 59.5833ZM47.9537 57.0142C47.5776 57.0142 47.2716 57.3202 47.2716 57.6963C47.2716 58.0724 47.5776 58.3784 47.9537 58.3784C48.3298 58.3784 48.6358 58.0724 48.6358 57.6963C48.6358 57.3202 48.3298 57.0142 47.9537 57.0142Z" fill="#DBEDFF"/>
</g>
<line x1="67.5391" y1="46.7773" x2="83.2982" y2="46.7773" stroke="black"/>
<line x1="67.5391" y1="53.5312" x2="83.2982" y2="53.5312" stroke="black"/>
<defs>
<clipPath id="clip0">
<rect width="34.5034" height="34.5034" fill="white" transform="translate(87.8008 36.0209)"/>
</clipPath>
<clipPath id="clip1">
<rect width="40.5234" height="40.5234" fill="white" transform="translate(22.5129 31.5182)"/>
</clipPath>
</defs>
</svg>
