<svg width="91" height="92" viewBox="0 0 91 92" fill="none" xmlns="http://www.w3.org/2000/svg">
<path d="M42.0835 48.4066C43.553 49.4803 45.36 50.1133 47.3139 50.1133H64.0271V58.3063L74.6216 50.1133H79.1921C84.1191 50.1133 88.1132 46.0877 88.1132 41.1218V8.99156C88.1134 4.0256 84.1193 0 79.1921 0H47.3137C42.3867 0 38.3926 4.0256 38.3926 8.99156V48.4066H42.0835Z" fill="#3B5998"/>
<path d="M68.7221 26.2562H64.2235V41.6191H57.4077V26.2562H54.1661V20.8571H57.4077V17.3632C57.4077 14.8647 58.6809 10.9524 64.2841 10.9524L69.3328 10.9721V16.2129H65.6697C65.0688 16.2129 64.2239 16.4927 64.2239 17.6845V20.8621H69.3175L68.7221 26.2562Z" fill="white"/>
<path d="M79.192 0H71.5507C76.4779 0 80.472 4.02579 80.472 8.99156V41.1218C80.472 46.0877 76.4779 50.1133 71.5509 50.1133H66.9804L64.027 52.3972V58.3063L74.6214 50.1133H79.192C84.119 50.1133 88.1131 46.0877 88.1131 41.1218V8.99156C88.1133 4.02579 84.119 0 79.192 0V0Z" fill="black" fill-opacity="0.19"/>
<path d="M42.0959 64.5086V32.0806C42.0959 28.1646 38.9463 24.9899 35.0607 24.9899H9.92204C6.03668 24.9899 2.88684 28.1646 2.88684 32.0806V57.418C2.88684 61.334 6.0365 64.5086 9.92204 64.5086H23.7322V71.0301L32.0869 64.5086H42.0959Z" fill="url(#paint0_linear)"/>
<path d="M34.6595 37.7002C34.4936 33.7933 31.2977 30.6667 27.3938 30.6667H15.9401C12.0349 30.6667 8.83898 33.794 8.67372 37.7013C8.66884 37.8075 8.66663 37.9134 8.66663 38.02V49.599C8.66663 50.1135 8.71935 50.6163 8.81949 51.101C10.0034 53.3691 11.7586 55.2856 13.8909 56.6552C14.5409 56.8487 15.229 56.9524 15.9401 56.9524H27.3938C28.1049 56.9524 28.7928 56.8487 29.443 56.6552C31.5746 55.2856 33.3292 53.3698 34.5138 51.1028C34.6139 50.6174 34.6666 50.1142 34.6666 49.599V38.02C34.6666 37.9128 34.6644 37.8062 34.6595 37.7002ZM32.2929 49.599C32.2929 52.3303 30.0948 54.5523 27.3938 54.5523H15.9401C13.2385 54.5523 11.0404 52.3303 11.0404 49.599V38.02C11.0404 35.2887 13.2385 33.0667 15.9401 33.0667H27.3938C30.0948 33.0667 32.2929 35.2887 32.2929 38.02V49.599Z" fill="#F1F1F1"/>
<path d="M8.67371 49.9189C8.83964 53.8258 12.0355 56.9524 15.9395 56.9524L27.3931 56.9524C31.2984 56.9524 34.4943 53.8251 34.6595 49.9177C34.6644 49.8116 34.6666 49.7056 34.6666 49.599L34.6666 38.02C34.6666 37.5056 34.6139 37.0028 34.5138 36.5181C33.3299 34.25 31.5746 32.3335 29.4423 30.9639C28.7924 30.7704 28.1043 30.6667 27.3931 30.6667L15.9395 30.6667C15.2283 30.6667 14.5405 30.7704 13.8902 30.9639C11.7586 32.3335 10.004 34.2493 8.81949 36.5163C8.71935 37.0016 8.66663 37.5049 8.66663 38.02L8.66662 49.599C8.66662 49.7063 8.66884 49.8129 8.67371 49.9189ZM11.0404 38.02C11.0404 35.2887 13.2385 33.0667 15.9395 33.0667L27.3931 33.0667C30.0948 33.0667 32.2929 35.2887 32.2929 38.02L32.2929 49.599C32.2929 52.3303 30.0948 54.5523 27.3931 54.5523L15.9395 54.5523C13.2385 54.5523 11.0404 52.3303 11.0404 49.599L11.0404 38.02Z" fill="#F1F1F1"/>
<path d="M21.6668 37.2381C18.0829 37.2381 15.1666 40.1864 15.1666 43.8098C15.1666 47.4333 18.0829 50.381 21.6668 50.381C25.251 50.381 28.1666 47.4333 28.1666 43.8098C28.1666 40.1864 25.251 37.2381 21.6668 37.2381ZM21.6668 48.0947C19.3292 48.0947 17.428 46.1725 17.428 43.8098C17.428 41.4465 19.3292 39.5244 21.6668 39.5244C24.004 39.5244 25.9052 41.4465 25.9052 43.8098C25.9052 46.1725 24.004 48.0947 21.6668 48.0947Z" fill="#F1F1F1"/>
<path d="M30.3333 37.2381C30.3333 38.4477 29.3632 39.4286 28.1668 39.4286C26.9701 39.4286 26 38.4477 26 37.2381C26 36.0281 26.9701 35.0476 28.1668 35.0476C29.3632 35.0476 30.3333 36.0281 30.3333 37.2381Z" fill="#F1F1F1"/>
<path d="M35.0611 24.9899H25.0989C28.9842 24.9899 32.1341 28.1646 32.1341 32.0806V64.5086H42.0963V32.0806C42.0961 28.1646 38.9465 24.9899 35.0611 24.9899Z" fill="black" fill-opacity="0.19"/>
<path d="M55.7044 59.3276H37.8647C35.1075 59.3276 32.8722 61.5804 32.8722 64.3595V82.34C32.8722 85.1191 35.1075 87.3719 37.8647 87.3719H47.6651V92L53.594 87.372H55.7044C58.4617 87.372 60.697 85.1193 60.697 82.3402V64.3597C60.697 61.5806 58.4617 59.3276 55.7044 59.3276Z" fill="#50ABF1"/>
<path d="M36.8346 81.2827C38.7962 82.5213 41.123 83.2381 43.6173 83.2381C50.6248 83.2381 56.3052 77.582 56.3052 70.606C56.3052 70.4318 56.3015 70.2589 56.2948 70.0865C56.5482 69.888 58.1158 68.637 58.5 67.8329C58.5 67.8329 57.227 68.3596 55.9812 68.4837C55.9787 68.4837 55.9757 68.4842 55.9732 68.4842C55.9732 68.4842 55.9757 68.483 55.9799 68.48C56.0947 68.4036 57.6997 67.3159 57.917 66.0198C57.917 66.0198 57.0166 66.4983 55.7559 66.9169C55.5472 66.9859 55.3287 67.0538 55.1035 67.1167C54.2908 66.2532 53.1357 65.7143 51.8536 65.7143C49.3942 65.7143 47.4013 67.6978 47.4013 70.1446C47.4013 70.4898 47.4412 70.8259 47.5167 71.1485C47.173 71.1345 41.9394 70.8424 38.3789 66.5496C38.3789 66.5496 36.251 69.4418 39.647 72.4159C39.647 72.4159 38.6146 72.3749 37.724 71.8451C37.724 71.8451 37.3969 75.349 41.2428 76.2448C41.2428 76.2448 40.486 76.5302 39.2787 76.3268C39.2787 76.3268 39.9539 79.1579 43.3707 79.4225C43.3707 79.4225 40.6688 81.8526 36.8334 81.2824L36.8346 81.2827Z" fill="white"/>
<path d="M55.7044 59.3276H48.0142C50.7715 59.3276 53.0068 61.5804 53.0068 64.3595V82.3402C53.0068 85.1193 50.7715 87.372 48.0142 87.372H47.665V92L53.594 87.372H55.7044C58.4616 87.372 60.6969 85.1193 60.6969 82.3402V64.3595C60.6969 61.5806 58.4616 59.3276 55.7044 59.3276Z" fill="black" fill-opacity="0.13"/>
<defs>
<linearGradient id="paint0_linear" x1="22.4914" y1="71.0301" x2="22.4914" y2="24.9899" gradientUnits="userSpaceOnUse">
<stop stop-color="#FFD600"/>
<stop offset="0.5271" stop-color="#FF0095"/>
<stop offset="0.5802" stop-color="#F2069C"/>
<stop offset="0.6791" stop-color="#CF14B0"/>
<stop offset="0.813" stop-color="#962CCF"/>
<stop offset="0.9753" stop-color="#494DFA"/>
<stop offset="0.9951" stop-color="#3F51FF"/>
</linearGradient>
</defs>
</svg>
