<svg width="83" height="82" viewBox="0 0 83 82" fill="none" xmlns="http://www.w3.org/2000/svg">
<g clip-path="url(#clip0)">
<path d="M75.1593 81.9227H15.5486V1.66505C15.5486 0.745649 16.2942 0 17.2136 0H75.1593C76.0787 0 76.8243 0.745649 76.8243 1.66505V80.2576C76.8243 81.177 76.0787 81.9227 75.1593 81.9227Z" fill="#DDF5FF"/>
<path d="M72.4948 0V32.2829C72.4948 33.6192 70.9898 34.4242 69.8935 33.6592C67.4665 31.9654 64.5164 30.971 61.3388 30.971C53.0754 30.971 46.3527 37.6937 46.3527 45.9571C46.3527 46.0609 46.354 46.164 46.3558 46.2677C46.3752 47.1959 45.6208 47.9553 44.692 47.9553H15.5486V81.9227H62.8376V62.3045C62.8376 61.5095 63.3989 60.8226 64.1795 60.672C66.2596 60.2707 68.1878 59.4382 69.8672 58.2706C70.9773 57.4994 72.4948 58.2713 72.4948 59.6232V81.9227H75.1586C76.0787 81.9227 76.8237 81.177 76.8237 80.2576V1.66505C76.8243 0.745649 76.0787 0 75.1593 0H72.4948Z" fill="#C1E9F4"/>
<path d="M46.1865 6.99335H29.2028C27.3634 6.99335 25.8721 8.48402 25.8721 10.3235V24.9764C25.8721 26.8159 27.3634 28.3065 29.2028 28.3065H63.1702C65.0096 28.3065 66.5009 26.8159 66.5009 24.9764V10.3235C66.5009 8.48402 65.0096 6.99335 63.1702 6.99335H46.1865Z" fill="#FFDA88"/>
<path d="M63.1701 6.99335H60.0068C61.8456 6.99335 63.3369 8.48402 63.3369 10.3235V24.9764C63.3369 26.8159 61.8456 28.3065 60.0068 28.3065H63.1701C65.0095 28.3065 66.5008 26.8159 66.5008 24.9764V10.3235C66.5008 8.48465 65.0095 6.99335 63.1701 6.99335Z" fill="#FFCD69"/>
<path d="M6.89015 51.2848C5.97075 51.2848 5.2251 52.0304 5.2251 52.9498V80.2576C5.2251 81.177 5.97075 81.922 6.89015 81.922H57.8424C58.7618 81.922 59.5075 81.177 59.5075 80.2576V51.2848H6.89015Z" fill="#ABDE97"/>
<path d="M56.6768 51.2848V81.9227H57.8424C58.7618 81.9227 59.5075 81.177 59.5075 80.2576V51.2848H56.6768Z" fill="#82CD64"/>
<path d="M32.3659 76.7606H16.0498C15.3354 76.7606 14.6878 76.31 14.4728 75.6293C14.0753 74.3712 13.1928 73.4093 11.8984 72.9986C11.2009 72.7774 10.7202 72.1392 10.7202 71.4073V61.8833C10.7202 61.1795 11.1746 60.5707 11.8359 60.3295C13.0878 59.8726 14.0441 58.8975 14.466 57.6975C14.6966 57.0412 15.3304 56.6131 16.026 56.6131H48.6752C49.3877 56.6131 50.0409 57.0519 50.269 57.7263C50.6946 58.9825 51.6434 59.9313 52.8991 60.3563C53.5741 60.5851 54.0122 61.2382 54.0122 61.9501V71.4086C54.0122 72.1261 53.5585 72.7792 52.8722 72.9886C51.5972 73.378 50.6546 74.2949 50.249 75.5931C50.0352 76.2794 49.4215 76.7612 48.7027 76.7612H32.3659V76.7606Z" fill="#6DC54A"/>
<path d="M51.5597 62.2839C51.5753 62.2908 51.5909 62.2977 51.6065 62.3039C51.7259 62.3545 51.8053 62.4695 51.8053 62.5989V70.7748C51.8053 70.9048 51.7259 71.0192 51.6065 71.0698C50.1309 71.6961 48.9471 72.8799 48.3214 74.3555C48.2702 74.4749 48.1558 74.5543 48.0264 74.5543H13.9666C14.1703 74.8656 14.3347 75.2087 14.4559 75.5787C14.6847 76.275 15.3141 76.7612 16.0472 76.7612H48.7027C49.4215 76.7612 50.0352 76.2787 50.249 75.5931C50.6546 74.2949 51.5978 73.378 52.8722 72.9886C53.5578 72.7792 54.0122 72.1261 54.0122 71.4086V61.9501C54.0122 61.2382 53.5741 60.5851 52.8991 60.3563C51.6434 59.9313 50.6946 58.9825 50.269 57.7263C50.0408 57.0519 49.3877 56.6131 48.6752 56.6131H48.2414V57.1212C48.2414 59.3432 49.5215 61.3995 51.5597 62.2839Z" fill="#5DB33A"/>
<path d="M72.9949 45.9565C72.9949 52.3942 67.7759 57.6125 61.3389 57.6125C54.9018 57.6125 49.6829 52.3942 49.6829 45.9565C49.6829 39.5194 54.9018 34.3011 61.3389 34.3011C67.7759 34.3011 72.9949 39.5194 72.9949 45.9565Z" fill="#E5646E"/>
<path d="M68.4253 36.7056C69.9322 38.6694 70.8297 41.1251 70.8297 43.792C70.8297 50.2291 65.6115 55.448 59.1744 55.448C56.5074 55.448 54.0517 54.5505 52.0879 53.0436C54.218 55.8206 57.5687 57.6125 61.3388 57.6125C67.7759 57.6125 72.9948 52.3942 72.9948 45.9565C72.9948 42.1864 71.2023 38.8356 68.4253 36.7056Z" fill="#E04955"/>
<path d="M37.6944 10.9066H31.0342C30.3448 10.9066 29.7854 11.4654 29.7854 12.1554C29.7854 12.8448 30.3442 13.4042 31.0342 13.4042H33.1155V23.1451C33.1155 23.8345 33.6749 24.3939 34.3643 24.3939C35.0543 24.3939 35.6131 23.8345 35.6131 23.1451V13.4042H37.6944C38.3844 13.4042 38.9432 12.8448 38.9432 12.1554C38.9432 11.4654 38.3844 10.9066 37.6944 10.9066Z" fill="#495959"/>
<path d="M47.8514 10.9066H44.5213C42.9143 10.9066 41.6074 12.2135 41.6074 13.8205V23.1445C41.6074 23.8345 42.1668 24.3933 42.8562 24.3933C43.5456 24.3933 44.105 23.8345 44.105 23.1445V18.8988H48.2676V23.1445C48.2676 23.8345 48.827 24.3933 49.5164 24.3933C50.2065 24.3933 50.7652 23.8345 50.7652 23.1445V13.8205C50.7652 12.2135 49.4583 10.9066 47.8514 10.9066ZM44.105 16.4012V13.8205C44.105 13.5911 44.2919 13.4042 44.5213 13.4042H47.8514C48.0808 13.4042 48.2676 13.5905 48.2676 13.8205V16.4012H44.105Z" fill="#495959"/>
<path d="M59.4689 17.65L62.4071 12.8023C62.7646 12.2129 62.5758 11.4448 61.9858 11.0873C61.3964 10.7298 60.6283 10.9185 60.2708 11.5079L58.0088 15.2405L55.7462 11.5079C55.3894 10.9185 54.6212 10.7298 54.0312 11.0873C53.4418 11.4448 53.253 12.2123 53.6105 12.8023L56.5481 17.65L53.6105 22.4976C53.253 23.087 53.4412 23.8552 54.0312 24.2127C54.2337 24.3352 54.4568 24.3933 54.6775 24.3933C55.0993 24.3933 55.5119 24.1796 55.7462 23.7921L58.0088 20.0594L60.2708 23.7921C60.5058 24.1796 60.9177 24.3933 61.3402 24.3933C61.5608 24.3933 61.7839 24.3352 61.9858 24.2127C62.5758 23.8552 62.7646 23.087 62.4071 22.4976L59.4689 17.65Z" fill="#495959"/>
<path d="M39.3475 65.4259H38.4843C37.9043 62.5795 35.3817 60.4307 32.366 60.4307C29.3509 60.4307 26.8277 62.5795 26.2477 65.4259H25.3633C24.6739 65.4259 24.1145 65.9853 24.1145 66.6747C24.1145 67.3647 24.6739 67.9235 25.3633 67.9235H26.2477C26.8277 70.7704 29.3509 72.9193 32.366 72.9193C35.3817 72.9193 37.9043 70.7704 38.4843 67.9235H39.3475C40.0369 67.9235 40.5963 67.3647 40.5963 66.6747C40.5963 65.9853 40.0369 65.4259 39.3475 65.4259ZM32.366 70.4211C30.3003 70.4211 28.6196 68.7404 28.6196 66.6747C28.6196 64.609 30.3003 62.9283 32.366 62.9283C34.4317 62.9283 36.1124 64.609 36.1124 66.6747C36.1124 68.7404 34.4317 70.4211 32.366 70.4211Z" fill="#5DB33A"/>
<path d="M47.8123 65.4258H43.6203C42.9302 65.4258 42.3708 65.9852 42.3708 66.6746C42.3708 67.3646 42.9302 67.9234 43.6203 67.9234H47.8123C48.5023 67.9234 49.0617 67.3646 49.0617 66.6746C49.0617 65.9852 48.5023 65.4258 47.8123 65.4258Z" fill="#5DB33A"/>
<path d="M21.1126 65.4258H16.9199C16.2305 65.4258 15.6711 65.9852 15.6711 66.6746C15.6711 67.3646 16.2305 67.9234 16.9199 67.9234H21.1126C21.802 67.9234 22.3614 67.3646 22.3614 66.6746C22.3614 65.9852 21.8026 65.4258 21.1126 65.4258Z" fill="#5DB33A"/>
<path d="M60.5183 42.5939V41.3863C60.5183 39.9369 59.3389 38.7581 57.8901 38.7581C56.4406 38.7581 55.2612 39.9369 55.2612 41.3863V42.5939C55.2612 44.0433 56.4406 45.2221 57.8901 45.2221C59.3389 45.2221 60.5183 44.0433 60.5183 42.5939Z" fill="#495959"/>
<path d="M64.7883 46.6909C63.3388 46.6909 62.1594 47.8703 62.1594 49.3191V50.5266C62.1594 51.976 63.3388 53.1548 64.7883 53.1548C66.2371 53.1548 67.4165 51.976 67.4165 50.5266V49.3191C67.4165 47.8703 66.2371 46.6909 64.7883 46.6909Z" fill="#495959"/>
<path d="M65.0205 38.8994C64.4086 38.5806 63.6548 38.8175 63.3355 39.4294L57.1271 51.3285C56.8083 51.9398 57.0452 52.6942 57.6565 53.0136C57.8409 53.1098 58.0384 53.1554 58.2334 53.1554C58.6834 53.1554 59.1184 52.9111 59.3416 52.4842L65.5499 40.5844C65.8687 39.9732 65.6318 39.2188 65.0205 38.8994Z" fill="#495959"/>
<path d="M47.1853 36.2155H25.8721C25.1827 36.2155 24.6233 35.6568 24.6233 34.9667C24.6233 34.2773 25.1827 33.718 25.8721 33.718H47.1853C47.8753 33.718 48.4347 34.2773 48.4347 34.9667C48.4347 35.6568 47.8753 36.2155 47.1853 36.2155Z" fill="#495959"/>
<path d="M40.5251 47.3721H25.8721C25.1827 47.3721 24.6233 46.8127 24.6233 46.1233C24.6233 45.4333 25.1827 44.8739 25.8721 44.8739H40.5251C41.2151 44.8739 41.7738 45.4333 41.7738 46.1233C41.7738 46.8127 41.2151 47.3721 40.5251 47.3721Z" fill="#495959"/>
<path d="M40.5251 41.7938H25.8721C25.1827 41.7938 24.6233 41.2351 24.6233 40.5451C24.6233 39.8557 25.1827 39.2963 25.8721 39.2963H40.5251C41.2151 39.2963 41.7738 39.855 41.7738 40.5451C41.7738 41.2351 41.2151 41.7938 40.5251 41.7938Z" fill="#495959"/>
</g>
<defs>
<clipPath id="clip0">
<rect width="81.9227" height="81.9227" fill="white" transform="translate(0.10498)"/>
</clipPath>
</defs>
</svg>
