<svg width="107" height="107" viewBox="0 0 107 107" fill="none" xmlns="http://www.w3.org/2000/svg">
<path d="M92.2413 1.84481H14.7587H5.53641C2.47939 1.84481 0 4.3242 0 7.38102V71.9482H14.7587H42.4311H64.5691H92.2415H107V7.38102C107 4.3242 104.521 1.8446 101.464 1.8446H92.2413V1.84481Z" fill="#E7ECED"/>
<path d="M99.6205 9.22424H7.37915V68.2588H99.6205V9.22424Z" fill="#28384C"/>
<path d="M23.9828 16.6034V51.6551H67.9025L75.6379 43.9032V16.6034H23.9828Z" fill="#E7ECED"/>
<path d="M101.464 83.0173H5.53641C2.47939 83.0173 0 80.5379 0 77.4811V68.2588H107V77.4811C107 80.5379 104.521 83.0173 101.464 83.0173Z" fill="#AFB6BB"/>
<path d="M59.0346 77.4828H47.9655C46.9471 77.4828 46.1206 76.6563 46.1206 75.6379C46.1206 74.6195 46.9471 73.793 47.9655 73.793H59.0346C60.053 73.793 60.8795 74.6195 60.8795 75.6379C60.8795 76.6563 60.053 77.4828 59.0346 77.4828Z" fill="white"/>
<path d="M77.483 105.155H29.5174C27.4789 105.155 25.8278 103.504 25.8278 101.465C25.8278 99.4269 27.4789 97.7758 29.5174 97.7758H77.4828C79.5213 97.7758 81.1725 99.4269 81.1725 101.465C81.1727 103.504 79.5215 105.155 77.483 105.155Z" fill="#AFB6BB"/>
<path d="M62.7242 83.0172H44.2759C44.2759 91.1751 41.3647 97.7759 33.2068 97.7759H73.793C65.6353 97.7759 62.7242 91.1751 62.7242 83.0172Z" fill="#6C797A"/>
<path d="M85.0043 55.6621L79.42 50.0778C79.3241 49.9819 79.3241 49.8268 79.42 49.7309L83.0285 46.1205L64.5802 40.5859L70.1147 59.0342L73.6309 55.5181C73.8503 55.2986 74.2064 55.2986 74.428 55.5181L79.7872 60.8792L85.0043 55.6621Z" fill="#7383BF"/>
<path d="M75.6379 16.6034H23.9828V25.8275H75.6379V16.6034Z" fill="#556080"/>
<path d="M46.1205 36.8966H31.3618V44.2758H46.1205V36.8966Z" fill="#DD352E"/>
</svg>
