<svg id="Layer_1" data-name="Layer 1" xmlns="http://www.w3.org/2000/svg" viewBox="0 0 800 800"><defs><style>.cls-1{fill:#e4efd7;}.cls-2{fill:#fff;}.cls-3{fill:#00854a;}</style></defs><title>Artboard 1 copy 3</title><path class="cls-1" d="M401.79,215.32c-1.7-.68-213.45,120.17-213.45,120.17s-31.66,3.74-32.34-19.06,15.66-27.24,15.66-27.24l209.7-125.62s15-12.93,35.07-1,129,73.54,129,73.54l1-51.41h45.27l-.34,80.68s44.6,24.85,45.62,33,6.47,32.68-6.13,35.07S569.28,313,569.28,313Z"/><path class="cls-1" d="M215.23,640.85H582.89V324.26L416.43,223.15s-13.28-13.28-29.62-5.11-177.7,104.17-177.7,104.17Z"/><path class="cls-2" d="M281.62,644.43s-18.39-110.81,80.17-143l12.76-7.66s-44.42-25-30.64-71.49c9.2-23.49,38.81-41.36,58.22-36.77s47,8.68,52.08,36.26S442,488.68,430.72,492.26c4.09,12.76,4.6,9.7,17.37,15.31s48.51,28.09,59.74,51.58,12.26,81.19,12.26,81.19Z"/><path class="cls-3" d="M593.32,633.54h55.73v15.61h-498V633.56h55.6V335.21l-6.45,3.69c-16.51,9.42-35.77,4.76-45.06-10.91-9.12-15.38-4-34.65,12.16-44.32q106.43-63.62,213-127c13.06-7.77,26.43-7.73,39.51,0q55.69,33,111.27,66.28c1.56.93,3.15,1.81,5.39,3.09V175.41h64.58v5.44c0,26.47.06,52.93-.07,79.4,0,3.22.82,5.1,3.75,6.75,9.46,5.35,18.76,11,28,16.67,16,9.77,21.2,28.91,12.08,44.36s-28.31,20.24-44.62,11.08c-2.15-1.21-4.29-2.44-6.92-3.94ZM363.15,493.41c-33.62-25.15-34.85-68.37-11.84-94.89,23.38-26.95,63.81-30.06,90.54-6.86,13.4,11.64,21.14,26.39,22.27,44.07,1.54,24-8.29,43.12-27.25,57.66,64.49,24.73,94.5,71.72,92,139.76h48.09V448.59q0-59.29-.07-118.59c0-1.93-.48-4.61-1.77-5.63a20.58,20.58,0,0,0-13.29-4.69q-161.8.27-323.62.14c-1.17,0-2.34,0-3.52,0-6.77.27-11.54,5.13-11.54,11.76V633.11H271.2C268.84,564.75,298.91,518,363.15,493.41Zm36.92-286.17.47-1.29c6.35,2.28,13.2,3.72,19,7,19.92,11.31,39.49,23.27,59.18,35,42.68,25.44,85.32,51,128.12,76.21a23.21,23.21,0,0,0,12.23,3.13c7.3-.35,12.5-5.72,13.89-12.49,1.45-7-1.86-13.48-9.22-17.88Q518.34,234.07,413,171.19c-8.81-5.27-17.11-5.21-25.95.08q-79.44,47.58-159,94.9c-17.68,10.55-35.38,21-53,31.66-6.3,3.8-9.25,10.56-7.86,17.1,1.48,6.92,7,12.35,14.47,12.48a24.46,24.46,0,0,0,12.16-3.54Q286.17,269.15,378.36,214C385.11,210,392.11,207.2,400.07,207.24Zm140,96.25c-2.52-1.58-3.89-2.5-5.31-3.34-40.37-24.06-80.81-48-121.1-72.24-9.32-5.6-17.87-5.68-27.25,0C346.17,252.1,305.72,276,265.34,300.09c-1.48.89-2.89,1.91-4.86,3.22H367.37c-11.42-20.89-9.16-40.26,6-53.73a40,40,0,0,1,50.49-2.28C441,259.91,444,278,432.93,303.49ZM462,524c-2.35,25.59-4.68,50.88-7.1,77.09L426,577.12c1.91,19.53,3.69,37.76,5.48,56.06h80.62C516.82,586.68,496.32,545.7,462,524Zm-123.84-.07c-37,23.75-54.86,66.39-50.07,109.11h80.59c1.78-18.45,3.52-36.49,5.39-55.85-10.08,8.38-19.1,15.86-28.85,24C342.76,574.78,340.47,549.68,338.11,523.89Zm110-82.71c-10-.8-19.91-.45-29.19-2.68s-17.85-7.06-27.44-11c-10.82,8.62-24.49,12.84-39.35,13.13-1.14,25.15,21.19,47.69,47.11,48.06C425.9,489,448.51,467.06,448.06,441.18Zm-48-185.68a24.11,24.11,0,1,0,24.07,24.39A24.2,24.2,0,0,0,400.05,255.5Zm184.76-64h-32c0,10.72.75,21.15-.21,31.43-.92,9.76,2,15.76,11.17,19.75,7.21,3.16,13.71,7.94,21,12.3ZM415.14,633.26c-.12-2.12-.17-3.77-.33-5.42-1.87-19-4.18-37.88-5.42-56.87-.47-7.29-3.2-11.86-9.42-15-5.73,3.11-9,7.24-9.28,14.46-.45,12-2.21,23.95-3.36,35.92-.86,8.89-1.65,17.78-2.49,26.89ZM354.76,425.42c7.24-2.31,14.06-3.56,19.95-6.62,6.08-3.17,11.25-8.09,17.24-12.57,15.2,12.37,31.92,21.46,52.83,17.49-5.22-18.1-24.69-31.69-45.27-31.53C379.53,392.35,360.1,406.24,354.76,425.42Zm86,143c.56-.67.94-.9,1-1.16,1.55-16.62,3.17-33.23,4.42-49.88.09-1.29-2.21-3.35-3.83-4-1.37-.56-4-.26-5,.74-5,5.36-9.68,11.05-14.47,16.63-3.76,4.38-7.5,8.78-11.4,13.34Zm-82.27.73L388.6,544c-8.94-10.43-17.43-20.5-26.2-30.32-.82-.92-3.71-.89-5.08-.19s-3.46,2.87-3.39,4.31c.36,8.34,1.23,16.65,2,25S357.55,559.61,358.47,569.11ZM421.92,507a106.56,106.56,0,0,0-43.78,0L400,532.6C407.49,523.9,414.41,515.81,421.92,507Z"/><path class="cls-3" d="M239.54,336.13h79.81V432H239.54Zm16,15.94V416h47.55V352.07Z"/><path class="cls-3" d="M480.66,432V336.16h79.79V432Zm16-16.13H544.5V352.29H496.69Z"/><path class="cls-3" d="M255.06,448.84v15.44H239.6V448.84Z"/><path class="cls-3" d="M239.4,496.47V481H255v15.49Z"/><path class="cls-3" d="M239.43,528.61V513.17H255v15.44Z"/><path class="cls-3" d="M544.94,552.61V537.24h15.63v15.37Z"/><path class="cls-3" d="M545,584.92V569.43h15.58v15.49Z"/><path class="cls-3" d="M560.56,617.1H545.13V601.58h15.43Z"/></svg>