<svg id="Layer_1" data-name="Layer 1" xmlns="http://www.w3.org/2000/svg" viewBox="0 0 800 800"><defs><style>.cls-1{fill:#c9e7ec;}.cls-2{fill:#0eabbc;}</style></defs><title>Artboard 1 copy 2</title><polygon class="cls-1" points="247.49 209.11 181.62 321.7 621.28 324 555.4 202.98 247.49 209.11"/><path class="cls-1" d="M177,329.36s4.09,54.13,49,53.62c17.87-2,50.56.85,59-29.11,0,0,31.07,28.09,51.15,28.26S393,371.4,394.89,358.3s4.77-7.15,4.77-7.15,43.23,38.47,55.83,34,50.21-22.47,51.91-31,17.2,18.73,38.13,25.19,62.13,1.54,68.43-18.55,7.83-33.36,7.83-33.36Z"/><path class="cls-1" d="M583,595.15H214.55V389.87s51.32-3.83,70.47-36c3.07-13.78,37.53,45.19,67.41,32.94S390.72,370,392.26,355.4,403,353.11,403,353.11s36.76,41.36,55.91,36,46.73-25.28,49-34.47,23.75,25.27,41.37,28.34,37.53,1.53,37.53,1.53Z"/><path class="cls-2" d="M164.94,335.77v-9.19c1.31-2.4,2.6-4.82,3.95-7.2,21.59-38,43.36-75.95,64.64-114.14,4.29-7.69,9.56-10.68,18.28-10.66q148.31.31,296.62.14h4.13c5.39,0,9.24,2.46,11.91,7.16q34.17,60.23,68.37,120.46a16.12,16.12,0,0,1,2.21,8.21c-1.22,26.05-13.14,45.67-36.1,58.24-3.1,1.7-4.25,3.37-4.24,7q.19,97.33.09,194.68c0,10.74-4.21,15-15,15H220.3c-10.83,0-15-4.15-15-14.93q0-96.87.09-193.76c0-4.16-1.06-6.48-4.93-8.43-11.33-5.72-19.87-14.51-26.4-25.4C169,354.47,166.91,345.17,164.94,335.77Zm63.67,246.17h40.57v-6.38c0-38.27-.07-76.53,0-114.79.07-25.91,16.71-42.33,42.62-42.36,9.64,0,19.32-.49,28.91.17,6.28.44,13,1.44,18.57,4.09,15.3,7.26,22.35,20.27,22.39,37,.09,39,0,78.06,0,117.09v5.11H571.51V396.63a69.26,69.26,0,0,1-33.45-6.87c-10.65-5.22-19.14-13-26.21-22.66-14,19-32.29,29.41-55.67,29.47s-41.87-10.47-55.84-29.15c-28.61,40.31-86.26,37.41-112.12-.14-14.75,20.06-34.6,30-59.61,29.44ZM198.89,313.67H601.26c-.47-1-.68-1.53-1-2-17.21-30.31-34.48-60.59-51.57-91-1.58-2.81-3.67-2.7-6.12-2.7q-142.55,0-285.1-.07c-3.36,0-5.14,1.05-6.78,4Q226,265.85,201,309.65C200.32,310.82,199.74,312,198.89,313.67ZM358.54,582.05c.1-1.15.2-1.75.2-2.35q0-60.56,0-121.11c0-10.16-6.84-17-17-17.13-9.94-.15-19.88,0-29.82,0-13.3,0-19.47,6.06-19.48,19.23q0,58.26,0,116.52v4.88Zm-82.8-244.6H189.13c4.26,21.41,22,36.08,43.29,36.05A44,44,0,0,0,275.74,337.45Zm25.2-.19c4.08,23.27,26,38.92,49.31,35.86,22.64-3,37.14-23.57,36.59-35.86Zm112.26.05c.7,15.42,17.71,36.13,42.67,36.21s42.26-20.69,43-36.21Zm111.47.09c2.82,21.35,23.27,37.22,45.87,36,20.05-1.05,39.7-18.61,40.11-36Z"/><path class="cls-2" d="M466.84,530.74c-9.94,0-19.89.08-29.84,0-20.22-.2-33.27-13.15-33.45-33.32-.14-15.3-.17-30.6,0-45.91.23-19.86,13.49-33,33.29-33.06q30.3-.12,60.6,0c19.78.08,33.05,13.29,33.23,33.14q.2,22.95,0,45.91c-.16,19.94-13.14,33-33.07,33.23C487.35,530.85,477.1,530.74,466.84,530.74Zm.28-23.08c10.09,0,20.18,0,30.27,0,7,0,10.21-3.16,10.24-10q.12-22.94,0-45.87c0-7.09-3.28-10.29-10.48-10.31q-30-.09-60.08,0c-7.19,0-10.42,3.22-10.45,10.34q-.11,22.7,0,45.4c0,7.46,3.1,10.43,10.7,10.47C447.25,507.7,457.19,507.66,467.12,507.66Z"/></svg>