<svg id="Layer_1" data-name="Layer 1" xmlns="http://www.w3.org/2000/svg" viewBox="0 0 800 800"><defs><style>.cls-1{fill:#fff6d5;}.cls-2{fill:#ffdb06;}</style></defs><title>Artboard 1 copy 4</title><rect class="cls-1" x="190.98" y="290.34" width="417.7" height="342.13"/><path d="M257.62,589.57h91.15V418.77S337.28,372,305.87,377.4c0,0-41.61.51-48.25,37.79C257.11,420.55,257.62,589.57,257.62,589.57Z"/><rect class="cls-1" x="189.96" y="168.81" width="420.77" height="93.96" rx="14.81"/><rect class="cls-1" x="162.38" y="259.7" width="476.43" height="29.62" rx="14.81"/><path class="cls-2" d="M614.06,254.81c4.18,0,8.05,0,11.91,0a19.39,19.39,0,0,1,19.42,21c-.8,11.15-9.17,18.59-20.34,18.57h-11.7c0,2.91,0,5.57,0,8.22.1,7,.13,14.08.42,21.12a10.34,10.34,0,0,0,1.72,4.53c4.13,6.91,8.64,13.61,12.49,20.67s4.52,14.67-.53,21.77a19.93,19.93,0,0,1-11.08,7.47c-1.91.55-2.36,1.45-2.35,3.31.07,16.76,0,33.52,0,50.28q0,92.88,0,185.76V637.4H185.72v-343c-3.91,0-7.58,0-11.24,0-8.06-.09-14-3.77-17.72-10.86A19.85,19.85,0,0,1,173,254.73c4-.25,8.12,0,12.6,0V187.24c0-14.56,9.39-24.45,23.93-24.55,25-.18,50.05,0,75.08,0l60.33,0H536.57q26.41,0,52.82,0c10.44,0,18.33,4.32,22.64,14a25.29,25.29,0,0,1,1.94,9.95c.17,21.51.09,43,.09,64.52Zm-417.76-.32h407c.06-.78.13-1.24.13-1.7q0-33.49,0-67a11.19,11.19,0,0,0-.49-3.26c-1.93-6.11-6.13-9.15-13-9.18-15.2-.06-30.4,0-45.59,0q-69.93,0-139.85,0-63.24,0-126.49,0-33.91,0-67.84.05c-9,0-13.89,5-13.89,14q0,32,0,63.94Zm407,372.33V380c-9.75-.26-18.65-3-27.6-8.07V568.32h-154q.46-96.89.91-193.14c-5.5,1.41-10.68,3.28-16,3.95s-11,.14-16.73.14q-.51,124-1,247.55ZM565.1,366.24c-2.15,2.2-4.28,5.13-7.08,7.11-11.27,7.95-23.76,8.13-36.41,4.4a36,36,0,0,1-20.29-14.48,11,11,0,0,1-.82,1.64c-10.46,14-31.29,18-46.85,13a26.75,26.75,0,0,1-16.32-13.68c-3.36,1.69-4.19,4.32-4.2,7.78-.06,33.92-.27,67.84-.41,101.76q-.15,34.75-.25,69.51c0,4.79,0,9.58,0,14.47H565.1Zm-187,260.54c.07-1.16.16-2.06.16-3,.09-13,.21-25.94.25-38.91.08-26.21.06-52.42.17-78.63.08-17.88.4-35.75.47-53.63q.17-37.92,0-75.86a6,6,0,0,0-1.61-3.77c-3.77-3.9-5.79-8.46-5.2-13.83.41-3.71,1.51-7.34,2.34-11.21H372q-16.95-.12-33.91-.25-50.73-.33-101.45-.62c-5.72,0-8.23,2.55-8.23,8.33V540.84q0,36.69,0,73.39v12.55Zm30.5-332.24H196.43V626.72h21.44v-3.17q0-38.24,0-76.47,0-96.06,0-192.12c0-11.26,7.1-18.49,18.31-18.47,10.1,0,20.2.22,30.29.28,14.27.09,28.54.12,42.81.19q35,.18,70.06.41a4.18,4.18,0,0,0,4.19-2.35c3.15-5.34,6.5-10.56,9.77-15.83C398.31,311.11,403.32,303,408.57,294.54Zm-8.26-10.78H594.87c10.38,0,20.76.06,31.14-.05,5.06,0,8.44-3.7,8.89-9.18a8.8,8.8,0,0,0-7.23-8.89,56.41,56.41,0,0,0-9.11-.37q-60.62,0-121.23,0-66.7,0-133.42,0-57.27,0-114.56-.11-36.71,0-73.41.13a18.21,18.21,0,0,0-3,.21,8.76,8.76,0,0,0-7.3,6.75c-1.49,5.25,2.61,11.67,9.56,11.6,20.73-.2,41.47-.07,62.2-.07Zm107.15,13.7V301c.05,15.66.14,31.31.13,47A17.39,17.39,0,0,0,513.23,361c8.24,7.92,23.81,10.69,34.29,6.23,6.84-2.91,11.77-9.17,8.41-17.86-.89-2.32-1.42-4.78-2.16-7.16C549.38,328,545,313.8,540.61,299.56a2.52,2.52,0,0,0-2.9-2.14c-5.65.1-11.3,0-17,0Zm-44.22.08c-.25.66-.5,1.25-.69,1.86L446.8,350.54c-2,6.38.32,12.4,6.44,15.45,10.69,5.34,21.37,4.32,31.62-1.26,7.11-3.87,10.82-9.83,10.65-18.33-.25-12.31.06-24.63.13-36.95,0-3.94,0-7.87,0-11.91Zm-12.4-.08c-9.69,0-18.95.09-28.21-.07a5,5,0,0,0-5.05,2.77c-10.55,17.2-21.23,34.31-31.8,51.5a22.11,22.11,0,0,0-2.6,6.08c-.93,3.78,0,7.31,3.79,8.89a32,32,0,0,0,10.58,2.69,41.3,41.3,0,0,0,21.56-5.22c8-4.29,14.32-10,16.82-19.26,1.67-6.15,3.84-12.17,5.76-18.25C444.72,317,447.72,307.39,450.84,297.46Zm101.45,0c.2.78.29,1.22.43,1.65,4,12.77,8,25.57,12.15,38.3,1.72,5.25,3.17,10.8,6,15.4,5.13,8.2,13.43,12.51,22.59,15,6.61,1.8,13.3,2.26,20,.15,5.91-1.86,8.22-6.7,5.87-12.43a26.13,26.13,0,0,0-2.06-3.92c-4.71-7.52-9.52-15-14.2-22.53-6.13-9.9-12.14-19.88-18.28-29.77a3.75,3.75,0,0,0-2.41-1.77C572.5,297.42,562.59,297.46,552.29,297.46Zm50.39-2.76h-8.1l8.1,12.93Z"/><path d="M391.18,239c-12.62,0-22.11-9.82-22.15-22.88s9.6-23.21,22.18-23.24,22.38,10.21,22.35,23.16C413.54,229.23,404,239.05,391.18,239Zm10.34-22.91c.09-6.32-4.28-11.35-10-11.46S381,209.74,380.88,216s4.24,11.24,10,11.44C396.52,227.59,401.43,222.37,401.52,216.13Z"/><path d="M431.32,238c-3.95,0-7.46-.07-11,0-1.87.06-2.4-.73-2.33-2.49.26-6.09.51-12.2.59-18.3.1-7.39,0-14.78,0-22.64-.35.31-.23.1-.09.09,9.11-.44,18.34-2.14,27.24.8,9.61,3.17,12.06,16.52,4.31,23.12-2.29,1.95-2.36,3.29-1,5.69,1.9,3.37,3.41,7,5,10.49.41.89.64,1.86,1.09,3.19-4.26,0-8.12.09-12-.1-.68,0-1.56-1.15-1.91-2-1.55-3.56-2.9-7.2-4.4-10.78-.77-1.86-4.35-3-5.9-1.88a2.56,2.56,0,0,0-.62,1.93c.16,3.05.45,6.09.68,9.13C431.18,235.38,431.23,236.47,431.32,238Zm-1-23.25a49.55,49.55,0,0,0,6,.3c3.92-.3,6.17-2.58,5.52-6-.33-1.74-1.64-4.11-3.09-4.66-2.33-.89-5.15-.55-7.77-.59-.21,0-.63,1.06-.65,1.63C430.31,208.32,430.34,211.26,430.34,214.73Z"/><path d="M458.88,194.32c.79-.06,1.51-.15,2.24-.15,8.15,0,16.3.07,24.45-.06,2.41,0,3.37.82,3.44,3.14s.29,4.75.48,7.56c-5.12-.25-9.89-.5-14.66-.69-3.27-.14-3.72.43-3.63,3.58.07,2.58,1.54,3,3.69,2.92,4.34-.21,8.69-.32,13-.45.15,0,.31.17.67.38-.36,3.35-.72,6.8-1.07,10.16-4.5,0-8.9,0-13.31,0-1.24,0-3-.62-3,1.72,0,2.11-.48,4.76,2.61,4.89,4.33.19,8.68-.09,13-.19,1.08,0,2.16-.14,3.94-.26-.6,3.73-1.05,7.07-1.73,10.36-.1.48-1.26,1.08-1.92,1.07-8.71-.06-17.41-.26-26.12-.33-1.67,0-2.53-.3-2.52-2.25.08-13.52.07-27,.1-40.56A3.89,3.89,0,0,1,458.88,194.32Z"/><path d="M366.7,204.5l-10-.54c0,4.74-.09,9.32,0,13.9q.19,8.61.7,17.21c.12,2.17-.57,3.05-2.79,3a71.93,71.93,0,0,0-7.77,0c-2.26.13-2.89-.8-2.81-2.93.28-6.76.45-13.52.59-20.28.08-3.5,0-7,0-10.39H334.26c.35-3,.61-5.93,1.12-8.82a2.37,2.37,0,0,1,1.77-1.45c9.43-.16,18.87-.21,28.31-.26a7.49,7.49,0,0,1,1.24.25Z"/><path d="M331.29,202.55a36.21,36.21,0,0,0-4.7.39c-3.31.72-4.56,3.36-2.89,6.27a30.41,30.41,0,0,0,3.78,5.11c7.13,7.88,4.25,17.11-4.18,22.19-7.36,4.43-9.76,3.73-13.47-3.92-.43-.89-.76-1.83-1.25-3,1.92-.56,3.68-1,5.41-1.6,4.47-1.5,5.64-5,2.87-8.84-1.29-1.79-2.87-3.38-4.25-5.11-3.95-5-3.25-12.74,2-16.3,3.12-2.13,6.93-3.29,10.5-4.7a2.48,2.48,0,0,1,2.24.87C328.72,196.58,329.87,199.39,331.29,202.55Z"/><path d="M499.3,438.35c11.21,0,22.43,0,33.64,0,6.3,0,12.6.18,18.9.32,4.15.1,5.95,1.75,5.92,5.29s-2.25,5.35-6.33,5.3c-10-.12-20-.31-30-.39q-35.17-.27-70.35-.47c-1.48,0-3-.09-4.44-.09-4,0-6.32-2-6.29-5.38s2.39-5.3,6.41-5.28c6.68,0,13.35.13,20,.14,10.85,0,21.69,0,32.53,0Z"/><path d="M499,512.14H450.08a43.69,43.69,0,0,1-4.72-.13c-3.27-.37-5.13-2.5-5-5.55a5,5,0,0,1,5.25-5c4.63-.11,9.26.08,13.89.12l58.94.42c11.11.08,22.22.13,33.34.22,4,0,6,1.86,6,5.3s-2,5.4-6,5.38c-12.6-.07-25.2-.24-37.81-.34-5,0-10,0-15,0Z"/><path d="M355,593.69H251.62v-3.12q0-35,0-70.06c0-32.23.16-64.47-.07-96.7A51.68,51.68,0,0,1,265,387.76c10.89-12.13,24.9-17.83,41.22-16.66,20,1.42,34.71,11.23,43.87,29.09a46.62,46.62,0,0,1,5,21.45q.06,84.93,0,169.86C355.11,592.14,355,592.78,355,593.69Zm-92.71-10.63h82c.05-1.13.14-2.12.14-3.11q0-48.5,0-97c0-21.22.27-42.45-.3-63.65-.56-21-19.76-38.23-40.8-37.77-23.91.53-41.44,19.43-41.15,42.05.36,28.15,0,56.31-.05,84.46,0,19.74.1,39.47.14,59.2C262.29,572.43,262.28,577.61,262.28,583.06Z"/></svg>