<svg id="Layer_1" data-name="Layer 1" xmlns="http://www.w3.org/2000/svg" viewBox="0 0 800 800"><defs><style>.cls-1{fill:#e8e8e8;}.cls-2{fill:none;}.cls-3{fill:#ffdb06;}</style></defs><title>Artboard 1 copy</title><path class="cls-1" d="M602.21,389.11V270.38c5.36-40.59-30.89-45.19-30.89-45.19l-20.89,0V189.45a9.19,9.19,0,0,0-9.2-9.19h-30a9.18,9.18,0,0,0-9.19,9.19v35.78c-16.15,0-34.28,0-53.45,0V189.45a9.19,9.19,0,0,0-9.19-9.19h-30a9.18,9.18,0,0,0-9.19,9.19v35.71L346.51,225V189.45a9.18,9.18,0,0,0-9.19-9.19h-30a9.19,9.19,0,0,0-9.19,9.19v35.38c-20.74-.11-39.79-.24-55.83-.41v-35a9.18,9.18,0,0,0-9.19-9.19h-30a9.19,9.19,0,0,0-9.19,9.19v33.86a7.38,7.38,0,0,1-1.06-.16c-41.37-4.6-54.13,23.49-54.13,23.49s-2,273.7,1,314.55,40.85,28.6,40.85,28.6H430.89c25.54-4.6,45.71,19.15,45.71,19.15,101.1,43.66,149.83-24.86,157-33.71C704.85,461.11,602.21,389.11,602.21,389.11Z"/><path class="cls-1" d="M425.92,426.8v-9.57h6.87Z"/><path class="cls-2" d="M409.58,327.17H333.67v73.9h75.91Z"/><path class="cls-2" d="M333.77,417.33v74h69.52c6.56-24.5,8.15-49.05,6.14-74Z"/><path class="cls-2" d="M540.69,201.56c-.08-9.89-6.33-16.78-15.22-16.92-8.58-.14-15.44,6.49-15.6,16q-.42,26.5,0,53c.16,9.49,7.19,16.12,15.74,15.88,8.71-.24,15-7,15-16.55.09-8.67,0-17.33,0-26C540.7,218.54,540.75,210.05,540.69,201.56Z"/><path class="cls-2" d="M317.42,327.16h-75.9v73.73h75.9Z"/><path class="cls-2" d="M320.21,184.64c-8.74.17-15,6.9-15.11,16.45-.1,8.66,0,17.32,0,26s-.08,17.32,0,26c.11,9.56,6.32,16.31,15,16.52s15.5-6.48,15.61-15.93q.3-26.49,0-53C335.64,191.14,328.87,184.47,320.21,184.64Z"/><path class="cls-2" d="M233.39,201.55c-.08-9.9-6.33-16.79-15.21-16.91-8.6-.13-15.42,6.48-15.58,16q-.42,26.5,0,53c.17,9.5,7.17,16.1,15.73,15.87,8.72-.24,14.93-7,15-16.56.09-8.66,0-17.33,0-26C233.4,218.53,233.46,210,233.39,201.55Z"/><path class="cls-2" d="M148.92,293.28c.07,5.72,0,11.44,0,17.59H593.65c.15-.22.5-.51.5-.8,0-18.56.43-37.14-.19-55.69-.37-11-8.61-18.49-19.61-19.19-5.82-.37-11.68-.07-18.11-.07,0,7,.24,13.59,0,20.13-.7,16.22-12.56,28.2-29.23,29.81-13.93,1.35-28-8.89-31.63-23.4-.95-3.81-1-7.89-1.13-11.87-.18-4.65,0-9.32,0-14.41H453.41c0,7.74.67,15.39-.14,22.88-1.66,15.38-14.83,26.74-30.2,26.93a30.86,30.86,0,0,1-30.67-26.51c-.78-5.63-.48-11.42-.64-17.14-.06-2,0-4.06,0-6.34H351.44c0,6.06.14,11.89,0,17.72-.5,17.58-10.9,29.55-27.52,31.85-16.87,2.34-33.14-10.81-34.21-28-.43-7.05-.07-14.14-.07-21.57-2.44-.12-4.13-.28-5.82-.28-11.41,0-22.82,0-34.85,0,0,7.16.2,13.72,0,20.26a31,31,0,0,1-55.82,17.26c-4.71-6.24-6.17-13.44-6.17-21.07v-17c-8.28.64-16.35.24-23.85,2.11-8.7,2.17-13,9.28-14,18.16-.14,1.2-.06,2.43-.11,3.64,0,.2,0,.38,0,.57v33.73C148.9,292.86,148.92,293.07,148.92,293.28Z"/><path class="cls-2" d="M225.13,327.16H149.26v73.72h75.87Z"/><path class="cls-2" d="M423.08,184.65c-9-.17-15.6,6.95-15.7,17-.09,8.49,0,17,0,25.47s-.07,17,0,25.47c.1,9.84,6.42,16.79,15.25,17s15.68-7,15.75-17q.17-25.47,0-50.94C438.31,191.74,431.89,184.81,423.08,184.65Z"/><path class="cls-2" d="M425.74,401.31c6.63,0,12.67.2,18.69-.1A11.85,11.85,0,0,0,451,399a134.91,134.91,0,0,1,48.29-25.66,22.83,22.83,0,0,0,2.55-1V327.34H425.74Z"/><path class="cls-2" d="M425.92,426.8l6.87-9.57h-6.87Z"/><path class="cls-2" d="M518,369.29c26.84-3.22,51.91,1.13,76.09,12.64V327.29H518Z"/><path class="cls-2" d="M149.33,491.29h75.8v-74h-75.8Z"/><path class="cls-2" d="M241.58,581.37h75.79V507.5H241.58Z"/><path class="cls-2" d="M333.67,507.5v73.81h98.79c-17.36-22.07-26.36-46.54-28.36-73.81Z"/><path class="cls-2" d="M149.15,562a19.83,19.83,0,0,0,19.47,19.37c18.36.44,36.75.16,55.13.15.45,0,.91-.39,1.43-.63V507.49H149C149,526,148.71,544,149.15,562Z"/><path class="cls-2" d="M246.55,416.81c-4.41-.05-5.52,1.35-5.48,5.59.19,21.32.07,42.64.1,64,0,1.64.25,3.29.39,5.06h75.87V417.16c-1.8-.1-3.32-.24-4.84-.24C290.58,416.9,268.56,417,246.55,416.81Z"/><path class="cls-3" d="M665.85,485.59c-4.61-37.32-21.61-67.63-51.49-90.53a10.17,10.17,0,0,1-4.46-9.1q.23-63,.08-126c0-25.43-15.09-40.45-40.42-40.56-4.29,0-8.58,0-13.35,0,0-7.45.3-14.21-.05-20.94a31.1,31.1,0,0,0-30.75-29.38,30.64,30.64,0,0,0-30.71,28.11c-.59,7.18-.1,14.44-.1,21.92H454c0-5.78.05-11.29,0-16.79-.08-7.63-1.71-14.8-6.55-20.95a30.67,30.67,0,0,0-33.95-10.66c-12.78,4-21.1,15.12-21.67,29.35-.26,6.22-.05,12.45-.05,19H351.45c0-5.84-.05-11.35,0-16.85.11-9.47-2.62-17.91-9.66-24.4-9.53-8.8-20.79-11.1-32.8-6.33s-18.59,14.2-19.39,27.16c-.41,6.69-.07,13.43-.07,20.45H248.86c0-7.37.38-14.46-.08-21.51-1-15.78-14.51-28.18-30.49-28.48A30.63,30.63,0,0,0,187.42,197c-.55,7.21-.09,14.49-.09,22.56-6.88,0-12.76-.33-18.6.05-19.2,1.29-32.92,14.46-35.1,32.65h15.26v6.67c0-.19,0-.37,0-.57,0-1.21,0-2.44.11-3.64,1-8.88,5.32-16,14-18.16,7.5-1.87,15.57-1.47,23.85-2.11v17c0,7.63,1.46,14.83,6.17,21.07a31,31,0,0,0,55.82-17.26c.25-6.54,0-13.1,0-20.26,12,0,23.44,0,34.85,0,1.69,0,3.38.16,5.82.28,0,7.43-.36,14.52.07,21.57,1.07,17.15,17.34,30.3,34.21,28,16.62-2.3,27-14.27,27.52-31.85.16-5.83,0-11.66,0-17.72h40.31c0,2.28-.05,4.31,0,6.34.16,5.72-.14,11.51.64,17.14a30.86,30.86,0,0,0,30.67,26.51c15.37-.19,28.54-11.55,30.2-26.93.81-7.49.14-15.14.14-22.88h40.76c0,5.09-.14,9.76,0,14.41.16,4,.18,8.06,1.13,11.87C499,276.17,513,286.41,527,285.06c16.67-1.61,28.53-13.59,29.23-29.81.28-6.54,0-13.11,0-20.13,6.43,0,12.29-.3,18.11.07,11,.7,19.24,8.17,19.61,19.19.62,18.55.2,37.13.19,55.69,0,.29-.35.58-.5.8H148.93c0-6.15.06-11.87,0-17.59,0-.21,0-.42,0-.62v13H133.31q0,6.28,0,12.58,0,119.52,0,239.05c0,9.29,1.87,17.9,7.65,25.39,8.46,10.94,19.89,14.7,33.36,14.68q133.85-.2,267.7.06a16.24,16.24,0,0,1,9.31,3.17c40.2,31.47,84.35,38.66,132.13,21,10.11-3.74,19.32-10,28.67-15.62a7.39,7.39,0,0,0,2.46-10.88c-2.46-3.66-6.62-4.4-11-1.94-.91.51-1.74,1.14-2.61,1.71-38.3,24.89-78.12,27.39-119,7.27-49.6-24.41-74.78-86.56-56.64-138.61s65.11-83,120-79.21c56.12,3.88,103.45,52.64,105.69,108.87,1.16,29-7,55.09-24.77,78.15-4,5.21-3.76,9.87.27,12.77,3.87,2.78,8.18,1.62,12-3.27,9.95-12.68,17.64-26.61,22-42.14,2.52-8.94,4.18-18.13,6.22-27.2V488.55A18.75,18.75,0,0,1,665.85,485.59ZM233.38,253c-.1,9.55-6.31,16.32-15,16.56-8.56.23-15.56-6.37-15.73-15.87q-.47-26.5,0-53c.16-9.56,7-16.17,15.58-16,8.88.12,15.13,7,15.21,16.91.07,8.49,0,17,0,25.47C233.4,235.68,233.47,244.35,233.38,253Zm102.36.63c-.11,9.45-7,16.14-15.61,15.93s-14.93-7-15-16.52c-.09-8.66,0-17.32,0-26s-.08-17.32,0-26c.1-9.55,6.37-16.28,15.11-16.45s15.43,6.5,15.53,16Q336,227.15,335.74,253.64Zm102.64-1.1c-.07,10-6.84,17.2-15.75,17s-15.15-7.12-15.25-17c-.09-8.49,0-17,0-25.47s-.07-17,0-25.47c.1-10.07,6.72-17.19,15.7-17,8.81.16,15.23,7.09,15.3,16.95Q438.55,227.07,438.38,252.54Zm102.3.48c-.1,9.52-6.34,16.31-15,16.55-8.55.24-15.58-6.39-15.74-15.88q-.48-26.5,0-53c.16-9.55,7-16.18,15.6-16,8.89.14,15.14,7,15.22,16.92.06,8.49,0,17,0,25.47C540.7,235.69,540.77,244.35,540.68,253Zm-207,74.15h75.91v73.9H333.67Zm69.62,164.15H333.77v-74h75.66C411.44,442.27,409.85,466.82,403.29,491.32ZM241.52,327.16h75.9v73.73h-75.9Zm-92.26,0h75.87v73.72H149.26Zm75.87,90.16v74h-75.8v-74Zm.05,163.56c-.52.24-1,.63-1.43.63-18.38,0-36.77.29-55.13-.15A19.83,19.83,0,0,1,149.15,562c-.44-18-.12-36-.12-54.5h76.15Zm92.19.49H241.58V507.5h75.79Zm.06-89.95H241.56c-.14-1.77-.39-3.42-.39-5.06,0-21.32.09-42.64-.1-64,0-4.24,1.07-5.64,5.48-5.59,22,.21,44,.09,66,.11,1.52,0,3,.14,4.84.24Zm115,89.89H333.67V507.5H404.1C406.1,534.77,415.1,559.24,432.46,581.31ZM425.92,426.8v-9.57h6.87Zm75.9-54.54a22.83,22.83,0,0,1-2.55,1A134.91,134.91,0,0,0,451,399a11.85,11.85,0,0,1-6.55,2.26c-6,.3-12.06.1-18.69.1v-74h76.08Zm92.28,9.67c-24.18-11.51-49.25-15.86-76.09-12.64v-42H594.1Z"/><polygon class="cls-3" points="148.89 292.66 148.89 258.93 148.89 252.25 133.63 252.25 133.28 252.25 133.28 305.62 133.31 305.62 148.89 305.62 148.89 292.66"/><circle class="cls-1" cx="535.31" cy="499.77" r="120"/><path d="M535.62,597.25c-57.18-.79-102.12-50.27-96.5-106.84a99.57,99.57,0,0,1,13.29-40.67c2.86-4.92,7.16-6.5,11.25-4.19s5.19,6.68,2.3,11.72a85.15,85.15,0,0,0-11.74,46.25c1.51,43.76,40.75,79.57,84.49,77,35.42-2.07,64.49-24.6,74.35-57.63,10-33.41-2.11-68.58-30.72-89.43-27.15-19.78-65.69-20-93.21-.64a43.84,43.84,0,0,1-4.74,3.21c-3.91,2.05-7.56,1.46-10.12-2.16s-1.92-7.34,1.31-10.29a45.12,45.12,0,0,1,7.12-5.23c35.07-21.06,70.76-21.87,105.05.32,33.56,21.71,48.55,54.12,43.15,93.76-5.45,40-29,66.66-67.33,79.46C554.65,594.87,545,595.53,535.62,597.25Z"/><path d="M543,503.3c16.88,0,33,0,49.12,0a26,26,0,0,1,6.18.56c4.12,1,6.16,3.91,5.76,8.06-.37,3.89-2.79,6.24-6.73,6.8a25.81,25.81,0,0,1-3.63.15q-27.86,0-55.71,0c-8,0-10.54-2.58-10.56-10.66-.06-18.4,0-36.8,0-55.19a21.67,21.67,0,0,1,.15-3.12c.74-5.06,3.76-7.85,8.29-7.43,4.8.44,7,3.43,7.08,8,.09,12.33.06,24.65.07,37Z"/></svg>