<svg width="74" height="74" viewBox="0 0 74 74" fill="none" xmlns="http://www.w3.org/2000/svg">
<path d="M51.4056 22.3872C51.1584 21.6723 50.6945 21.0523 50.0786 20.6132C49.4626 20.1742 48.7252 19.938 47.9688 19.9375H46.75V17.5H47.9688C48.9376 17.4971 49.8659 17.111 50.5509 16.4259C51.236 15.7409 51.6221 14.8126 51.625 13.8438V4.09375C51.6221 3.12494 51.236 2.19664 50.5509 1.51159C49.8659 0.826534 48.9376 0.440393 47.9688 0.4375H4.09375C3.12494 0.440393 2.19664 0.826534 1.51159 1.51159C0.826534 2.19664 0.440393 3.12494 0.4375 4.09375V13.8438C0.440393 14.8126 0.826534 15.7409 1.51159 16.4259C2.19664 17.111 3.12494 17.4971 4.09375 17.5H5.3125V19.9375H4.09375C3.12494 19.9404 2.19664 20.3265 1.51159 21.0116C0.826534 21.6966 0.440393 22.6249 0.4375 23.5938V33.3438C0.440393 34.3126 0.826534 35.2409 1.51159 35.9259C2.19664 36.611 3.12494 36.9971 4.09375 37H5.3125V39.4375H4.09375C3.12494 39.4404 2.19664 39.8265 1.51159 40.5116C0.826534 41.1966 0.440393 42.1249 0.4375 43.0938V52.8438C0.440393 53.8126 0.826534 54.7409 1.51159 55.4259C2.19664 56.111 3.12494 56.4971 4.09375 56.5H27.25V66.25C27.25 71.0519 38.9012 73.5625 50.4062 73.5625C61.9113 73.5625 73.5625 71.0519 73.5625 66.25V29.6875C73.5625 25.0197 62.5816 22.5334 51.4056 22.3872ZM4.09375 15.0625C3.77052 15.0625 3.46052 14.9341 3.23196 14.7055C3.0034 14.477 2.875 14.167 2.875 13.8438V4.09375C2.875 3.77052 3.0034 3.46052 3.23196 3.23196C3.46052 3.0034 3.77052 2.875 4.09375 2.875H47.9688C48.292 2.875 48.602 3.0034 48.8305 3.23196C49.0591 3.46052 49.1875 3.77052 49.1875 4.09375V13.8438C49.1875 14.167 49.0591 14.477 48.8305 14.7055C48.602 14.9341 48.292 15.0625 47.9688 15.0625H4.09375ZM44.3125 17.5V19.9375H39.4375V17.5H44.3125ZM37 17.5V19.9375H15.0625V17.5H37ZM12.625 17.5V19.9375H7.75V17.5H12.625ZM27.25 54.0625H4.09375C3.77052 54.0625 3.46052 53.9341 3.23196 53.7055C3.0034 53.477 2.875 53.167 2.875 52.8438V43.0938C2.875 42.7705 3.0034 42.4605 3.23196 42.232C3.46052 42.0034 3.77052 41.875 4.09375 41.875H27.25V54.0625ZM7.75 39.4375V37H12.625V39.4375H7.75ZM27.25 39.4375H15.0625V37H27.25V39.4375ZM27.25 29.6875V34.5625H4.09375C3.77052 34.5625 3.46052 34.4341 3.23196 34.2055C3.0034 33.977 2.875 33.667 2.875 33.3438V23.5938C2.875 23.2705 3.0034 22.9605 3.23196 22.732C3.46052 22.5034 3.77052 22.375 4.09375 22.375H47.9688C48.0267 22.3813 48.0839 22.3936 48.1394 22.4116C37.4144 22.7163 27.25 25.2025 27.25 29.6875ZM71.125 66.25C71.125 67.9075 63.8125 71.125 50.4062 71.125C37 71.125 29.6875 67.9075 29.6875 66.25V57.4994C33.6972 60.0466 42.07 61.375 50.4062 61.375C58.7425 61.375 67.1153 60.0466 71.125 57.4994V66.25ZM71.125 54.0625C71.125 55.72 63.8125 58.9375 50.4062 58.9375C37 58.9375 29.6875 55.72 29.6875 54.0625V45.3119C33.6972 47.8591 42.07 49.1875 50.4062 49.1875C58.7425 49.1875 67.1153 47.8591 71.125 45.3119V54.0625ZM71.125 41.875C71.125 43.5325 63.8125 46.75 50.4062 46.75C37 46.75 29.6875 43.5325 29.6875 41.875V33.1244C33.6972 35.6716 42.07 37 50.4062 37C58.7425 37 67.1153 35.6716 71.125 33.1244V41.875ZM50.4062 34.5625C37 34.5625 29.6875 31.345 29.6875 29.6875C29.6875 28.03 37 24.8125 50.4062 24.8125C63.8125 24.8125 71.125 28.03 71.125 29.6875C71.125 31.345 63.8125 34.5625 50.4062 34.5625Z" fill="black"/>
<path d="M49.1875 40.6562H51.625V43.0938H49.1875V40.6562Z" fill="#28B04B"/>
<path d="M49.1875 54.0625H51.625V56.5H49.1875V54.0625Z" fill="#28B04B"/>
<path d="M49.1875 65.0312H51.625V67.4688H49.1875V65.0312Z" fill="#28B04B"/>
<path d="M11.4062 24.8125H6.53125C6.20802 24.8125 5.89802 24.9409 5.66946 25.1695C5.4409 25.398 5.3125 25.708 5.3125 26.0312V30.9062C5.3125 31.2295 5.4409 31.5395 5.66946 31.768C5.89802 31.9966 6.20802 32.125 6.53125 32.125H11.4062C11.7295 32.125 12.0395 31.9966 12.268 31.768C12.4966 31.5395 12.625 31.2295 12.625 30.9062V26.0312C12.625 25.708 12.4966 25.398 12.268 25.1695C12.0395 24.9409 11.7295 24.8125 11.4062 24.8125ZM10.1875 29.6875H7.75V27.25H10.1875V29.6875Z" fill="#28B04B"/>
<path d="M21.1562 24.8125H16.2812C15.958 24.8125 15.648 24.9409 15.4195 25.1695C15.1909 25.398 15.0625 25.708 15.0625 26.0312V30.9062C15.0625 31.2295 15.1909 31.5395 15.4195 31.768C15.648 31.9966 15.958 32.125 16.2812 32.125H21.1562C21.4795 32.125 21.7895 31.9966 22.018 31.768C22.2466 31.5395 22.375 31.2295 22.375 30.9062V26.0312C22.375 25.708 22.2466 25.398 22.018 25.1695C21.7895 24.9409 21.4795 24.8125 21.1562 24.8125ZM19.9375 29.6875H17.5V27.25H19.9375V29.6875Z" fill="#28B04B"/>
<path d="M11.4062 5.3125H6.53125C6.20802 5.3125 5.89802 5.4409 5.66946 5.66946C5.4409 5.89802 5.3125 6.20802 5.3125 6.53125V11.4062C5.3125 11.7295 5.4409 12.0395 5.66946 12.268C5.89802 12.4966 6.20802 12.625 6.53125 12.625H11.4062C11.7295 12.625 12.0395 12.4966 12.268 12.268C12.4966 12.0395 12.625 11.7295 12.625 11.4062V6.53125C12.625 6.20802 12.4966 5.89802 12.268 5.66946C12.0395 5.4409 11.7295 5.3125 11.4062 5.3125ZM10.1875 10.1875H7.75V7.75H10.1875V10.1875Z" fill="#28B04B"/>
<path d="M21.1562 5.3125H16.2812C15.958 5.3125 15.648 5.4409 15.4195 5.66946C15.1909 5.89802 15.0625 6.20802 15.0625 6.53125V11.4062C15.0625 11.7295 15.1909 12.0395 15.4195 12.268C15.648 12.4966 15.958 12.625 16.2812 12.625H21.1562C21.4795 12.625 21.7895 12.4966 22.018 12.268C22.2466 12.0395 22.375 11.7295 22.375 11.4062V6.53125C22.375 6.20802 22.2466 5.89802 22.018 5.66946C21.7895 5.4409 21.4795 5.3125 21.1562 5.3125ZM19.9375 10.1875H17.5V7.75H19.9375V10.1875Z" fill="#28B04B"/>
<path d="M24.8125 5.3125H41.875V7.75H24.8125V5.3125Z" fill="black"/>
<path d="M44.3125 5.3125H46.75V7.75H44.3125V5.3125Z" fill="black"/>
<path d="M24.8125 10.1875H41.875V12.625H24.8125V10.1875Z" fill="black"/>
<path d="M44.3125 10.1875H46.75V12.625H44.3125V10.1875Z" fill="black"/>
<path d="M11.4062 44.3125H6.53125C6.20802 44.3125 5.89802 44.4409 5.66946 44.6695C5.4409 44.898 5.3125 45.208 5.3125 45.5312V50.4062C5.3125 50.7295 5.4409 51.0395 5.66946 51.268C5.89802 51.4966 6.20802 51.625 6.53125 51.625H11.4062C11.7295 51.625 12.0395 51.4966 12.268 51.268C12.4966 51.0395 12.625 50.7295 12.625 50.4062V45.5312C12.625 45.208 12.4966 44.898 12.268 44.6695C12.0395 44.4409 11.7295 44.3125 11.4062 44.3125ZM10.1875 49.1875H7.75V46.75H10.1875V49.1875Z" fill="#28B04B"/>
<path d="M21.1562 44.3125H16.2812C15.958 44.3125 15.648 44.4409 15.4195 44.6695C15.1909 44.898 15.0625 45.208 15.0625 45.5312V50.4062C15.0625 50.7295 15.1909 51.0395 15.4195 51.268C15.648 51.4966 15.958 51.625 16.2812 51.625H21.1562C21.4795 51.625 21.7895 51.4966 22.018 51.268C22.2466 51.0395 22.375 50.7295 22.375 50.4062V45.5312C22.375 45.208 22.2466 44.898 22.018 44.6695C21.7895 44.4409 21.4795 44.3125 21.1562 44.3125ZM19.9375 49.1875H17.5V46.75H19.9375V49.1875Z" fill="#28B04B"/>
</svg>
