<svg width="56" height="55" viewBox="0 0 56 55" fill="none" xmlns="http://www.w3.org/2000/svg">
<g clip-path="url(#clip0)">
<path d="M42.0927 32.6992C38.2189 32.6992 35.0675 35.8092 35.0675 39.632C35.0675 43.4548 38.2189 46.5648 42.0927 46.5648C45.9671 46.5648 49.1179 43.4548 49.1179 39.632C49.1179 35.8092 45.9665 32.6992 42.0927 32.6992ZM42.0927 43.0984C40.1555 43.0984 38.5801 41.5437 38.5801 39.632C38.5801 37.7203 40.1555 36.1656 42.0927 36.1656C44.0299 36.1656 45.6053 37.7203 45.6053 39.632C45.6053 41.5438 44.0299 43.0984 42.0927 43.0984Z" fill="black"/>
<path d="M18.0899 32.6992C14.2161 32.6992 11.0647 35.8092 11.0647 39.632C11.0647 43.4548 14.2161 46.5648 18.0899 46.5648C21.9637 46.5648 25.1152 43.4548 25.1152 39.632C25.1152 35.8092 21.9637 32.6992 18.0899 32.6992ZM18.0899 43.0984C16.1528 43.0984 14.5773 41.5437 14.5773 39.632C14.5773 37.7203 16.1528 36.1656 18.0899 36.1656C20.0266 36.1656 21.6025 37.7203 21.6025 39.632C21.6025 41.5438 20.0271 43.0984 18.0899 43.0984Z" fill="black"/>
<path d="M46.8236 12.8568C46.525 12.2716 45.918 11.9023 45.2541 11.9023H36.0042V15.3687H44.171L48.9534 24.7557L52.0925 23.1981L46.8236 12.8568Z" fill="black"/>
<path d="M36.8238 37.957H23.5345V41.4234H36.8238V37.957Z" fill="black"/>
<path d="M12.8209 37.957H6.73251C5.7624 37.957 4.97626 38.7329 4.97626 39.6902C4.97626 40.6475 5.76251 41.4233 6.73251 41.4233H12.8211C13.7912 41.4233 14.5773 40.6474 14.5773 39.6902C14.5773 38.7328 13.7911 37.957 12.8209 37.957Z" fill="black"/>
<path d="M55.3645 27.36L51.9099 22.9693C51.578 22.5464 51.0658 22.2991 50.523 22.2991H37.7605V10.1667C37.7605 9.20939 36.9743 8.43359 36.0043 8.43359H6.73251C5.7624 8.43359 4.97626 9.2095 4.97626 10.1667C4.97626 11.124 5.76251 11.8999 6.73251 11.8999H34.2479V24.0322C34.2479 24.9896 35.0342 25.7654 36.0042 25.7654H49.663L52.2207 29.0168V37.9555H47.3616C46.3915 37.9555 45.6053 38.7314 45.6053 39.6886C45.6053 40.646 46.3916 41.4218 47.3616 41.4218H53.977C54.9471 41.4218 55.7332 40.6459 55.7333 39.6886V28.4231C55.7333 28.0383 55.6034 27.6639 55.3645 27.36Z" fill="black"/>
<path d="M12.7039 29.1758H4.62487C3.65477 29.1758 2.86862 29.9517 2.86862 30.9089C2.86862 31.8663 3.65488 32.6421 4.62487 32.6421H12.7038C13.6739 32.6421 14.4601 31.8662 14.4601 30.9089C14.4602 29.9517 13.6739 29.1758 12.7039 29.1758Z" fill="#28B04B"/>
<path d="M16.7434 22.3574H1.75625C0.786254 22.3574 0 23.1333 0 24.0907C0 25.048 0.786254 25.8238 1.75625 25.8238H16.7434C17.7135 25.8238 18.4997 25.0479 18.4997 24.0907C18.4997 23.1334 17.7135 22.3574 16.7434 22.3574Z" fill="#28B04B"/>
<path d="M19.612 15.541H4.62487C3.65477 15.541 2.86862 16.3169 2.86862 17.2742C2.86862 18.2315 3.65488 19.0073 4.62487 19.0073H19.612C20.5821 19.0073 21.3683 18.2314 21.3683 17.2742C21.3684 16.3169 20.5821 15.541 19.612 15.541Z" fill="#28B04B"/>
</g>
<defs>
<clipPath id="clip0">
<rect width="55.7333" height="55" fill="white"/>
</clipPath>
</defs>
</svg>
