<svg width="62" height="57" viewBox="0 0 62 57" fill="none" xmlns="http://www.w3.org/2000/svg">
<rect x="2" y="2" width="58.4373" height="45.8331" rx="4" stroke="black" stroke-width="3"/>
<line x1="18.0417" y1="55.5" x2="44.3958" y2="55.5" stroke="black" stroke-width="3"/>
<path d="M23.771 47.834V55.8548M38.6668 47.834V55.8548" stroke="black" stroke-width="3"/>
<path d="M2.34375 36.834H16.0665L19.4971 40.5006H60.0935" stroke="black" stroke-width="3"/>
<rect x="7.84351" y="42.332" width="0.916663" height="0.916663" fill="black"/>
<rect x="9.677" y="42.332" width="0.916663" height="0.916663" fill="black"/>
<rect x="6.0105" y="42.332" width="0.916663" height="0.916663" fill="black"/>
<circle cx="14.6037" cy="15.4043" r="5.15623" stroke="#28B04B" stroke-width="3"/>
<path d="M22.0519 28.5813C22.0519 26.4541 21.2068 24.414 19.7026 22.9098C18.1984 21.4056 16.1583 20.5605 14.0311 20.5605C11.9038 20.5605 9.86369 21.4056 8.35949 22.9098C6.8553 24.414 6.01025 26.4541 6.01025 28.5813L14.0311 28.5813H22.0519Z" stroke="#28B04B" stroke-width="3"/>
<circle cx="48.9787" cy="15.4043" r="5.15623" stroke="#28B04B" stroke-width="3"/>
<path d="M56.4269 28.5813C56.4269 26.4541 55.5818 24.414 54.0776 22.9098C52.5734 21.4056 50.5333 20.5605 48.4061 20.5605C46.2788 20.5605 44.2387 21.4056 42.7345 22.9098C41.2303 24.414 40.3853 26.4541 40.3853 28.5813L48.4061 28.5813H56.4269Z" stroke="#28B04B" stroke-width="3"/>
<path d="M23.198 15.9785H32.3646M32.3646 15.9785L28.9271 12.541M32.3646 15.9785L28.9271 18.2702" stroke="#28B04B" stroke-width="3"/>
<path d="M36.9482 24H27.7816M27.7816 24L31.2191 20.5625M27.7816 24L31.2191 26.2916" stroke="#28B04B" stroke-width="3"/>
</svg>
