<svg width="45" height="45" viewBox="0 0 45 45" fill="none" xmlns="http://www.w3.org/2000/svg">
<path d="M44.5537 22.1576C44.5537 9.9205 34.5797 0 22.2768 0C9.97391 0 0 9.9205 0 22.1576C0 34.3945 9.97391 44.3151 22.2768 44.3151C34.5797 44.3151 44.5537 34.3945 44.5537 22.1576ZM2.02515 22.1576C2.02515 11.0324 11.0918 2.01431 22.2768 2.01431C33.4618 2.01431 42.5285 11.0324 42.5285 22.1576C42.5285 33.2827 33.4618 42.3008 22.2768 42.3008C11.0918 42.3008 2.02515 33.2827 2.02515 22.1576Z" fill="#68696A"/>
<path d="M23.1313 34.9469V22.158H27.374L28.0443 17.9199H23.1313V15.7948C23.1313 14.6889 23.4958 13.6334 25.0916 13.6334H28.2812V9.40332H23.753C19.9457 9.40332 18.9067 11.897 18.9067 15.3536V17.9179H16.2943V22.158H18.9067V34.9469H23.1313Z" fill="#68696A"/>
</svg>
