<svg width="46" height="45" viewBox="0 0 46 45" fill="none" xmlns="http://www.w3.org/2000/svg">
<path d="M45.3686 22.1576C45.3686 9.9205 35.3946 0 23.0918 0C10.7888 0 0.814941 9.9205 0.814941 22.1576C0.814941 34.3945 10.7888 44.3151 23.0918 44.3151C35.3946 44.3151 45.3686 34.3945 45.3686 22.1576ZM2.8401 22.1576C2.8401 11.0324 11.9068 2.01431 23.0918 2.01431C34.2768 2.01431 43.3435 11.0324 43.3435 22.1576C43.3435 33.2827 34.2768 42.3008 23.0918 42.3008C11.9068 42.3008 2.8401 33.2827 2.8401 22.1576Z" fill="#68696A"/>
<path d="M15.9958 12.6621H30.1885C31.5364 12.6621 32.6392 13.6547 32.6392 15.0996V29.2168C32.6392 30.6617 31.5364 31.6543 30.1885 31.6543H15.9958C14.6475 31.6543 13.5449 30.6617 13.5449 29.2168V15.0996C13.5449 13.6547 14.6475 12.6621 15.9958 12.6621ZM27.4544 14.7722C26.9815 14.7722 26.5951 15.1568 26.5951 15.6273V17.6738C26.5951 18.1442 26.9815 18.5289 27.4544 18.5289H29.6125C30.0854 18.5289 30.4722 18.1442 30.4722 17.6738V15.6273C30.4722 15.1568 30.0854 14.7722 29.6125 14.7722H27.4544ZM30.4812 20.6938H28.8007C28.9597 21.2102 29.0457 21.7572 29.0457 22.3231C29.0457 25.4821 26.3881 28.0429 23.1103 28.0429C19.8327 28.0429 17.1754 25.4821 17.1754 22.3231C17.1754 21.7568 17.2613 21.21 17.4205 20.6938H15.6668V28.7164C15.6668 29.1316 16.0083 29.4715 16.4259 29.4715H29.7225C30.1401 29.4715 30.4816 29.1318 30.4816 28.7164V20.6938H30.4812ZM23.1101 18.4211C20.9923 18.4211 19.2753 20.0757 19.2753 22.117C19.2753 24.1582 20.9923 25.8128 23.1101 25.8128C25.228 25.8128 26.9452 24.1582 26.9452 22.117C26.9452 20.0757 25.2282 18.4211 23.1101 18.4211Z" fill="#68696A"/>
</svg>
