<svg width="45" height="45" viewBox="0 0 45 45" fill="none" xmlns="http://www.w3.org/2000/svg">
<path d="M14.2367 29.5436H17.4191V16.8821H14.2367V29.5436ZM26.9663 16.8821C24.2418 16.9275 22.9013 18.9027 22.7231 18.9924V16.8821H19.5407V29.5436H22.7231V22.1577C22.7231 21.8868 23.3944 19.7177 25.9055 20.0475C27.2543 20.135 27.9815 21.9094 28.0271 22.1577V29.5436L31.1971 29.558V20.7925C31.0852 19.5271 30.4491 16.9274 26.9663 16.8821ZM15.8279 12.6616C14.9494 12.6616 14.2367 13.3695 14.2367 14.2443C14.2367 15.1191 14.9494 15.827 15.8279 15.827C16.7064 15.827 17.4191 15.1191 17.4191 14.2443C17.4191 13.3695 16.7064 12.6616 15.8279 12.6616Z" fill="#68696A"/>
<path d="M45 22.1576C45 9.9205 35.026 0 22.7231 0C10.4202 0 0.446289 9.9205 0.446289 22.1576C0.446289 34.3945 10.4202 44.3151 22.7231 44.3151C35.026 44.3151 45 34.3945 45 22.1576ZM2.47144 22.1576C2.47144 11.0324 11.5381 2.01431 22.7231 2.01431C33.9081 2.01431 42.9748 11.0324 42.9748 22.1576C42.9748 33.2827 33.9081 42.3008 22.7231 42.3008C11.5381 42.3008 2.47144 33.2827 2.47144 22.1576Z" fill="#68696A"/>
</svg>
