<svg width="41" height="26" viewBox="0 0 41 26" fill="none" xmlns="http://www.w3.org/2000/svg">
<path d="M2.06049 26C1.52629 26 1.03025 25.8057 0.57236 25.417C0.190787 24.9507 0 24.4066 0 23.7847C0 23.3184 0.114472 22.8132 0.343416 22.2691L7.66961 2.9148C8.1275 1.98206 8.58539 1.28251 9.04328 0.816148C9.57748 0.272051 10.3788 0 11.4472 0H17.2852C17.8958 0 18.3918 0.233182 18.7734 0.699548C19.155 1.16592 19.3076 1.78775 19.2313 2.56502L16.255 22.2691C16.1024 23.3573 15.7208 24.2511 15.1103 24.9507C14.4998 25.6502 13.6603 26 12.5919 26H2.06049ZM23.8101 26C23.2759 26 22.7799 25.8057 22.322 25.417C21.9404 24.9507 21.7496 24.4066 21.7496 23.7847C21.7496 23.3184 21.8641 22.8132 22.0931 22.2691L29.4193 2.9148C29.8008 1.98206 30.2587 1.28251 30.7929 0.816148C31.4034 0.272051 32.2047 0 33.1968 0H39.0349C39.7217 0 40.2178 0.233182 40.523 0.699548C40.9046 1.16592 41.0572 1.78775 40.9809 2.56502L38.0047 22.2691C37.852 23.3573 37.4704 24.2511 36.8599 24.9507C36.2494 25.6502 35.41 26 34.3416 26H23.8101Z" fill="#28B04B" fill-opacity="0.2"/>
</svg>
