<svg width="41" height="26" viewBox="0 0 41 26" fill="none" xmlns="http://www.w3.org/2000/svg">
<path d="M38.9395 -2.08748e-06C39.4737 -2.04078e-06 39.9698 0.194315 40.4276 0.582954C40.8092 1.04932 41 1.59343 41 2.21525C41 2.68162 40.8855 3.18685 40.6566 3.73094L33.3304 23.0852C32.8725 24.0179 32.4146 24.7175 31.9567 25.1839C31.4225 25.7279 30.6212 26 29.5528 26L23.7148 26C23.1042 26 22.6082 25.7668 22.2266 25.3005C21.845 24.8341 21.6924 24.2123 21.7687 23.435L24.745 3.73094C24.8976 2.64275 25.2792 1.74887 25.8897 1.04932C26.5002 0.34977 27.3397 -3.10157e-06 28.4081 -3.00817e-06L38.9395 -2.08748e-06ZM17.1899 -3.9889e-06C17.7241 -3.9422e-06 18.2201 0.194313 18.678 0.582952C19.0596 1.04932 19.2504 1.59342 19.2504 2.21525C19.2504 2.68162 19.1359 3.18684 18.9069 3.73094L11.5807 23.0852C11.1992 24.0179 10.7413 24.7175 10.2071 25.1838C9.59656 25.7279 8.79525 26 7.80317 26L1.9651 26C1.27827 26 0.782227 25.7668 0.476967 25.3004C0.0953942 24.8341 -0.0572317 24.2123 0.0190813 23.435L2.99535 3.73094C3.14798 2.64274 3.52955 1.74887 4.14007 1.04932C4.75059 0.349768 5.59005 -5.00298e-06 6.65845 -4.90958e-06L17.1899 -3.9889e-06Z" fill="#28B04B" fill-opacity="0.2"/>
</svg>
