<svg width="55" height="55" viewBox="0 0 55 55" fill="none" xmlns="http://www.w3.org/2000/svg">
<path d="M7.91879 8.85687V22.8402C7.91879 23.3988 8.37166 23.8514 8.92996 23.8514H22.9136C23.4719 23.8514 23.9248 23.3988 23.9248 22.8402V20.1887C23.9248 19.6301 23.4719 19.1776 22.9136 19.1776C22.3553 19.1776 21.9027 19.6301 21.9027 20.1887V21.8293H9.94113V9.86773H21.9027V12.302C21.9027 12.8606 22.3553 13.3135 22.9136 13.3135C23.4719 13.3135 23.9248 12.8606 23.9248 12.302V8.85687C23.9248 8.29826 23.4719 7.8457 22.9136 7.8457H8.92996C8.37166 7.8457 7.91879 8.29826 7.91879 8.85687Z" fill="#28B04B"/>
<path d="M13.8244 12.7402C13.2658 12.7402 12.8135 13.1928 12.8135 13.7511V17.9462C12.8135 18.5045 13.2658 18.9574 13.8244 18.9574H18.0195C18.5778 18.9574 19.0307 18.5045 19.0307 17.9462V13.7511C19.0307 13.1928 18.5778 12.7402 18.0195 12.7402H13.8244ZM17.0086 16.9354H14.8356V14.7623H17.0086V16.9354Z" fill="#28B04B"/>
<path d="M22.9136 31.0723H8.92996C8.37166 31.0723 7.91879 31.5248 7.91879 32.0831V46.0671C7.91879 46.6254 8.37166 47.0779 8.92996 47.0779H22.9136C23.4719 47.0779 23.9248 46.6254 23.9248 46.0671V32.0831C23.9248 31.5248 23.4719 31.0723 22.9136 31.0723ZM21.9027 45.0559H9.94113V33.0943H21.9027V45.0559Z" fill="#28B04B"/>
<path d="M32.2266 23.8514H46.2105C46.7685 23.8514 47.2214 23.3988 47.2214 22.8402V8.85687C47.2214 8.29826 46.7685 7.8457 46.2105 7.8457H32.2266C31.6683 7.8457 31.2154 8.29826 31.2154 8.85687V22.8402C31.2154 23.3988 31.6683 23.8514 32.2266 23.8514ZM33.2374 9.86773H45.199V21.8293H33.2374V9.86773Z" fill="#28B04B"/>
<path d="M47.2214 46.0671V32.0831C47.2214 31.5248 46.7685 31.0723 46.2105 31.0723H32.2266C31.6683 31.0723 31.2154 31.5248 31.2154 32.0831V46.0671C31.2154 46.6254 31.6683 47.0779 32.2266 47.0779H46.2105C46.7685 47.0779 47.2214 46.6254 47.2214 46.0671ZM45.199 45.0559H33.2374V33.0943H45.199V45.0559Z" fill="#28B04B"/>
<path d="M46.2105 28.5347C46.7685 28.5347 47.2214 28.0818 47.2214 27.5235C47.2214 26.9649 46.7685 26.5126 46.2105 26.5126H28.4834V8.74555C28.4834 8.18725 28.0305 7.73438 27.4725 7.73438C26.9136 7.73438 26.461 8.18725 26.461 8.74555V26.5126H13.0411C12.4831 26.5126 12.0302 26.9652 12.0302 27.5235C12.0302 28.0821 12.4831 28.5347 13.0411 28.5347H26.461V46.0676C26.461 46.6259 26.9136 47.0785 27.4725 47.0785C28.0305 47.0785 28.4834 46.6259 28.4834 46.0676V28.5347H46.2105Z" fill="#28B04B"/>
<path d="M13.8244 42.2601H18.0195C18.5778 42.2601 19.0307 41.8072 19.0307 41.2489V37.0538C19.0307 36.4952 18.5778 36.043 18.0195 36.043H13.8244C13.2658 36.043 12.8135 36.4952 12.8135 37.0538V41.2489C12.8135 41.8072 13.2658 42.2601 13.8244 42.2601ZM14.8356 38.065H17.0086V40.2381H14.8356V38.065Z" fill="#28B04B"/>
<path d="M41.3158 12.7402H37.1207C36.5624 12.7402 36.1095 13.1928 36.1095 13.7511V17.9462C36.1095 18.5045 36.5624 18.9574 37.1207 18.9574H41.3158C41.8744 18.9574 42.327 18.5045 42.327 17.9462V13.7511C42.327 13.1928 41.8744 12.7402 41.3158 12.7402ZM40.3046 16.9354H38.1322V14.7623H40.3046V16.9354Z" fill="#28B04B"/>
<path d="M37.1207 42.2601H41.3158C41.8744 42.2601 42.327 41.8072 42.327 41.2489V37.0538C42.327 36.4952 41.8744 36.043 41.3158 36.043H37.1207C36.5624 36.043 36.1095 36.4952 36.1095 37.0538V41.2489C36.1095 41.8072 36.5624 42.2601 37.1207 42.2601ZM38.1322 38.065H40.3046V40.2381H38.1322V38.065Z" fill="#28B04B"/>
<path d="M8.7254 26.5173L8.67095 26.5299C8.12744 26.6583 7.7907 27.2028 7.91879 27.7463C8.02862 28.2117 8.44373 28.5258 8.90195 28.5258C8.97906 28.5258 9.05679 28.5167 9.13484 28.4981L9.18897 28.4855C9.73279 28.3574 10.0695 27.813 9.94113 27.2695C9.81336 26.7263 9.26891 26.3895 8.7254 26.5173Z" fill="#28B04B"/>
<path d="M22.71 15.2378L22.6555 15.2507C22.112 15.3782 21.775 15.9223 21.9024 16.4662C22.0113 16.9323 22.4267 17.2467 22.8859 17.2467C22.9621 17.2467 23.0395 17.2378 23.1175 17.2193L23.1717 17.2067C23.7155 17.0792 24.0525 16.5348 23.9251 15.9916C23.7976 15.4481 23.2532 15.1104 22.71 15.2378Z" fill="#28B04B"/>
<path d="M2.70275 10.0278C3.26168 10.0278 3.71392 9.57519 3.71392 9.01689V3.76812H8.77167C9.33028 3.76812 9.78315 3.31588 9.78315 2.75726C9.78315 2.19896 9.33028 1.74609 8.77167 1.74609H2.70275C2.14477 1.74609 1.69189 2.19896 1.69189 2.75726V9.01689C1.69189 9.57519 2.14477 10.0278 2.70275 10.0278Z" fill="black"/>
<path d="M52.2435 1.74609H46.1746C45.616 1.74609 45.1631 2.19896 45.1631 2.75726C45.1631 3.31588 45.616 3.76812 46.1746 3.76812H51.2324V9.01689C51.2324 9.57519 51.6846 10.0278 52.2435 10.0278C52.8015 10.0278 53.2544 9.57519 53.2544 9.01689V2.75726C53.2544 2.19896 52.8015 1.74609 52.2435 1.74609Z" fill="black"/>
<path d="M8.77167 51.2417H3.71392V45.9933C3.71392 45.4353 3.26168 44.9824 2.70275 44.9824C2.14477 44.9824 1.69189 45.4353 1.69189 45.9933V52.2529C1.69189 52.8112 2.14477 53.2641 2.70275 53.2641H8.77167C9.33028 53.2641 9.78315 52.8112 9.78315 52.2529C9.78315 51.6943 9.33028 51.2417 8.77167 51.2417Z" fill="black"/>
<path d="M52.2435 44.9824C51.6846 44.9824 51.2324 45.4353 51.2324 45.9933V51.2417H46.1746C45.616 51.2417 45.1631 51.6943 45.1631 52.2529C45.1631 52.8112 45.616 53.2641 46.1746 53.2641H52.2435C52.8015 53.2641 53.2544 52.8112 53.2544 52.2529V45.9933C53.2544 45.4353 52.8015 44.9824 52.2435 44.9824Z" fill="black"/>
</svg>
