<svg width="223" height="147" viewBox="0 0 223 147" fill="none" xmlns="http://www.w3.org/2000/svg">
<path fill-rule="evenodd" clip-rule="evenodd" d="M151.815 94.1018C141.486 83.7184 127.263 77.3397 111.5 77.3397V23.0818C142.284 23.0818 170.188 35.636 190.282 55.8377L151.815 94.1018Z" fill="#FFF500"/>
<path fill-rule="evenodd" clip-rule="evenodd" d="M71.02 94.2036C60.6366 104.532 54.2579 118.755 54.2579 134.518H0C0 103.734 12.5542 75.8304 32.7559 55.7357L71.02 94.2036Z" fill="#FF1701"/>
<path fill-rule="evenodd" clip-rule="evenodd" d="M151.98 94.2036C162.363 104.532 168.742 118.755 168.742 134.518H223C223 103.734 210.446 75.8304 190.244 55.7357L151.98 94.2036Z" fill="#28B04B"/>
<path fill-rule="evenodd" clip-rule="evenodd" d="M111.43 77.4197C96.7848 77.3808 82.2174 82.9273 71.071 94.0738L32.7048 55.7076C54.4727 33.9398 83.0804 23.0864 111.574 23.162L111.43 77.4197Z" fill="#FFBF01"/>
<path d="M111.998 138.545C113.673 138.94 115.436 138.656 116.903 137.756C118.37 136.856 119.421 135.412 119.828 133.74L139.497 53.0001L107.469 129.684C107.105 130.558 106.936 131.5 106.973 132.446C107.01 133.393 107.252 134.319 107.683 135.162C108.114 136.005 108.723 136.744 109.468 137.329C110.214 137.913 111.077 138.328 111.998 138.545Z" fill="black"/>
<path d="M156.869 121.917C156.809 121.817 156.756 121.713 156.709 121.606L156.255 120.682C156.062 120.279 155.835 119.758 155.533 119.178L154.441 117.17C154.021 116.431 153.491 115.633 152.945 114.742C152.399 113.852 151.702 112.953 150.979 111.978C149.291 109.798 147.434 107.753 145.426 105.862C140.156 100.961 133.864 97.2908 127.003 95.1172C122.96 93.8464 118.755 93.1645 114.518 93.0925C105.375 92.8931 96.3616 95.2906 88.5252 100.007C84.8875 102.185 81.5779 104.869 78.6959 107.979C73.8234 113.278 70.1853 119.59 68.0432 126.462C67.2437 129.098 66.6483 131.791 66.2621 134.519C66.1193 135.72 66.0101 136.854 65.9345 137.879C65.8589 138.904 65.8337 139.87 65.8421 140.727C65.8505 141.584 65.8421 142.34 65.8925 143.004C65.9429 143.668 65.9849 144.222 66.0101 144.684C66.0353 145.146 66.0689 145.457 66.0857 145.709C66.0932 145.827 66.0932 145.944 66.0857 146.062C66.0575 145.949 66.0378 145.834 66.0269 145.717C66.0269 145.465 65.9597 145.121 65.9177 144.692C65.8757 144.264 65.7916 143.684 65.7496 143.012C65.7076 142.34 65.6992 141.584 65.6656 140.727C65.632 139.87 65.6656 138.912 65.716 137.862C65.7664 136.812 65.8757 135.686 66.0101 134.502C66.3539 131.751 66.9157 129.032 67.6903 126.37C69.8102 119.435 73.4494 113.061 78.343 107.711C81.2415 104.564 84.5773 101.851 88.248 99.6538C96.1463 94.8807 105.242 92.4589 114.468 92.6724C118.746 92.7522 122.99 93.4483 127.07 94.7391C133.981 96.9546 140.31 100.686 145.594 105.661C147.599 107.576 149.45 109.646 151.131 111.852C151.853 112.844 152.5 113.776 153.08 114.658C153.659 115.54 154.138 116.339 154.55 117.111L155.609 119.144C155.903 119.733 156.113 120.253 156.297 120.674C156.482 121.094 156.608 121.388 156.709 121.614C156.77 121.711 156.823 121.812 156.869 121.917Z" fill="#263238"/>
<path d="M147.367 119.597C147.217 119.448 147.084 119.282 146.972 119.102C146.72 118.766 146.392 118.262 145.897 117.623C144.548 115.828 143.059 114.142 141.444 112.582C139.058 110.283 136.407 108.275 133.547 106.601C126.519 102.44 118.389 100.52 110.242 101.098C106.936 101.317 103.668 101.926 100.505 102.913C98.3669 103.588 96.2854 104.43 94.2798 105.433C93.5657 105.761 93.0365 106.08 92.6584 106.273C92.4728 106.381 92.279 106.473 92.0787 106.55C92.2451 106.414 92.4254 106.296 92.6164 106.198C92.9777 105.988 93.4565 105.643 94.2042 105.29C96.1891 104.23 98.2639 103.347 100.404 102.652C107.512 100.323 115.125 100 122.405 101.72C129.684 103.439 136.348 107.134 141.662 112.398C143.266 113.975 144.727 115.69 146.031 117.522C146.51 118.161 146.812 118.699 147.048 119.051C147.164 119.227 147.271 119.41 147.367 119.597Z" fill="#263238"/>
<path d="M24.21 100.1C23.6167 100.1 23.1067 100.01 22.68 99.83C22.2533 99.65 21.93 99.4133 21.71 99.12C21.49 98.8267 21.3733 98.51 21.36 98.17C21.36 98.11 21.38 98.06 21.42 98.02C21.46 97.98 21.51 97.96 21.57 97.96H22.46C22.54 97.96 22.6 97.9767 22.64 98.01C22.6867 98.0367 22.73 98.0833 22.77 98.15C22.8367 98.3767 22.99 98.5667 23.23 98.72C23.47 98.8733 23.7967 98.95 24.21 98.95C24.6833 98.95 25.04 98.8733 25.28 98.72C25.52 98.56 25.64 98.34 25.64 98.06C25.64 97.8733 25.5767 97.72 25.45 97.6C25.33 97.48 25.1467 97.3767 24.9 97.29C24.66 97.2033 24.3 97.0967 23.82 96.97C23.0333 96.7833 22.4567 96.5367 22.09 96.23C21.73 95.9167 21.55 95.4733 21.55 94.9C21.55 94.5133 21.6533 94.17 21.86 93.87C22.0733 93.57 22.3767 93.3333 22.77 93.16C23.17 92.9867 23.6333 92.9 24.16 92.9C24.7067 92.9 25.18 92.9967 25.58 93.19C25.98 93.3833 26.2833 93.6267 26.49 93.92C26.7033 94.2067 26.8167 94.4933 26.83 94.78C26.83 94.84 26.81 94.89 26.77 94.93C26.73 94.97 26.68 94.99 26.62 94.99H25.69C25.55 94.99 25.4533 94.9267 25.4 94.8C25.36 94.5867 25.2267 94.41 25 94.27C24.7733 94.1233 24.4933 94.05 24.16 94.05C23.7867 94.05 23.4933 94.12 23.28 94.26C23.0667 94.4 22.96 94.6033 22.96 94.87C22.96 95.0567 23.0133 95.21 23.12 95.33C23.2267 95.45 23.3933 95.5567 23.62 95.65C23.8533 95.7433 24.1867 95.8467 24.62 95.96C25.2067 96.0933 25.6733 96.2433 26.02 96.41C26.3733 96.5767 26.6333 96.7867 26.8 97.04C26.9667 97.2933 27.05 97.6167 27.05 98.01C27.05 98.4367 26.93 98.81 26.69 99.13C26.4567 99.4433 26.1233 99.6833 25.69 99.85C25.2633 100.017 24.77 100.1 24.21 100.1ZM29.8979 100C29.8312 100 29.7746 99.9767 29.7279 99.93C29.6812 99.8833 29.6579 99.8267 29.6579 99.76V94.23H27.8079C27.7412 94.23 27.6846 94.2067 27.6379 94.16C27.5912 94.1133 27.5679 94.0567 27.5679 93.99V93.25C27.5679 93.1767 27.5879 93.1167 27.6279 93.07C27.6746 93.0233 27.7346 93 27.8079 93H32.9079C32.9812 93 33.0412 93.0233 33.0879 93.07C33.1346 93.1167 33.1579 93.1767 33.1579 93.25V93.99C33.1579 94.0567 33.1346 94.1133 33.0879 94.16C33.0412 94.2067 32.9812 94.23 32.9079 94.23H31.0679V99.76C31.0679 99.8267 31.0446 99.8833 30.9979 99.93C30.9512 99.9767 30.8912 100 30.8179 100H29.8979ZM33.0102 100C32.9568 100 32.9068 99.98 32.8602 99.94C32.8202 99.9 32.8002 99.85 32.8002 99.79L32.8202 99.7L35.2302 93.25C35.2768 93.0833 35.3935 93 35.5802 93H36.6702C36.8435 93 36.9602 93.0833 37.0202 93.25L39.4302 99.7C39.4368 99.72 39.4402 99.75 39.4402 99.79C39.4402 99.85 39.4202 99.9 39.3802 99.94C39.3402 99.98 39.2935 100 39.2402 100H38.3702C38.2835 100 38.2168 99.98 38.1702 99.94C38.1235 99.9 38.0935 99.8567 38.0802 99.81L37.6102 98.59H34.6402L34.1702 99.81C34.1168 99.9367 34.0202 100 33.8802 100H33.0102ZM37.2602 97.44L36.1202 94.35L34.9902 97.44H37.2602ZM40.6138 100C40.5471 100 40.4904 99.9767 40.4438 99.93C40.3971 99.8833 40.3738 99.8267 40.3738 99.76V93.25C40.3738 93.1767 40.3938 93.1167 40.4338 93.07C40.4804 93.0233 40.5404 93 40.6138 93H43.2038C44.0171 93 44.6538 93.19 45.1138 93.57C45.5804 93.95 45.8138 94.49 45.8138 95.19C45.8138 95.6767 45.6938 96.0867 45.4538 96.42C45.2204 96.7467 44.8938 96.9833 44.4738 97.13L45.9338 99.68C45.9538 99.72 45.9638 99.7567 45.9638 99.79C45.9638 99.85 45.9404 99.9 45.8938 99.94C45.8538 99.98 45.8071 100 45.7538 100H44.8438C44.7371 100 44.6538 99.9767 44.5938 99.93C44.5404 99.8833 44.4904 99.8167 44.4438 99.73L43.1538 97.36H41.7638V99.76C41.7638 99.8267 41.7404 99.8833 41.6938 99.93C41.6538 99.9767 41.5971 100 41.5238 100H40.6138ZM43.1738 96.23C43.5738 96.23 43.8738 96.14 44.0738 95.96C44.2804 95.78 44.3838 95.52 44.3838 95.18C44.3838 94.84 44.2804 94.5767 44.0738 94.39C43.8738 94.2033 43.5738 94.11 43.1738 94.11H41.7638V96.23H43.1738Z" fill="black"/>
<path d="M49.02 62C48.9533 62 48.8967 61.9767 48.85 61.93C48.8033 61.8833 48.78 61.8267 48.78 61.76V55.25C48.78 55.1767 48.8 55.1167 48.84 55.07C48.8867 55.0233 48.9467 55 49.02 55H51.61C52.4233 55 53.06 55.19 53.52 55.57C53.9867 55.95 54.22 56.49 54.22 57.19C54.22 57.6767 54.1 58.0867 53.86 58.42C53.6267 58.7467 53.3 58.9833 52.88 59.13L54.34 61.68C54.36 61.72 54.37 61.7567 54.37 61.79C54.37 61.85 54.3467 61.9 54.3 61.94C54.26 61.98 54.2133 62 54.16 62H53.25C53.1433 62 53.06 61.9767 53 61.93C52.9467 61.8833 52.8967 61.8167 52.85 61.73L51.56 59.36H50.17V61.76C50.17 61.8267 50.1467 61.8833 50.1 61.93C50.06 61.9767 50.0033 62 49.93 62H49.02ZM51.58 58.23C51.98 58.23 52.28 58.14 52.48 57.96C52.6867 57.78 52.79 57.52 52.79 57.18C52.79 56.84 52.6867 56.5767 52.48 56.39C52.28 56.2033 51.98 56.11 51.58 56.11H50.17V58.23H51.58ZM55.7485 62C55.6818 62 55.6252 61.9767 55.5785 61.93C55.5318 61.8833 55.5085 61.8267 55.5085 61.76V55.24C55.5085 55.1667 55.5318 55.11 55.5785 55.07C55.6252 55.0233 55.6818 55 55.7485 55H56.6885C56.7618 55 56.8185 55.0233 56.8585 55.07C56.9052 55.11 56.9285 55.1667 56.9285 55.24V61.76C56.9285 61.8267 56.9052 61.8833 56.8585 61.93C56.8185 61.9767 56.7618 62 56.6885 62H55.7485ZM60.9268 62.1C60.3335 62.1 59.8235 62.01 59.3968 61.83C58.9701 61.65 58.6468 61.4133 58.4268 61.12C58.2068 60.8267 58.0901 60.51 58.0768 60.17C58.0768 60.11 58.0968 60.06 58.1368 60.02C58.1768 59.98 58.2268 59.96 58.2868 59.96H59.1768C59.2568 59.96 59.3168 59.9767 59.3568 60.01C59.4035 60.0367 59.4468 60.0833 59.4868 60.15C59.5535 60.3767 59.7068 60.5667 59.9468 60.72C60.1868 60.8733 60.5135 60.95 60.9268 60.95C61.4001 60.95 61.7568 60.8733 61.9968 60.72C62.2368 60.56 62.3568 60.34 62.3568 60.06C62.3568 59.8733 62.2935 59.72 62.1668 59.6C62.0468 59.48 61.8635 59.3767 61.6168 59.29C61.3768 59.2033 61.0168 59.0967 60.5368 58.97C59.7501 58.7833 59.1735 58.5367 58.8068 58.23C58.4468 57.9167 58.2668 57.4733 58.2668 56.9C58.2668 56.5133 58.3701 56.17 58.5768 55.87C58.7901 55.57 59.0935 55.3333 59.4868 55.16C59.8868 54.9867 60.3501 54.9 60.8768 54.9C61.4235 54.9 61.8968 54.9967 62.2968 55.19C62.6968 55.3833 63.0001 55.6267 63.2068 55.92C63.4201 56.2067 63.5335 56.4933 63.5468 56.78C63.5468 56.84 63.5268 56.89 63.4868 56.93C63.4468 56.97 63.3968 56.99 63.3368 56.99H62.4068C62.2668 56.99 62.1701 56.9267 62.1168 56.8C62.0768 56.5867 61.9435 56.41 61.7168 56.27C61.4901 56.1233 61.2101 56.05 60.8768 56.05C60.5035 56.05 60.2101 56.12 59.9968 56.26C59.7835 56.4 59.6768 56.6033 59.6768 56.87C59.6768 57.0567 59.7301 57.21 59.8368 57.33C59.9435 57.45 60.1101 57.5567 60.3368 57.65C60.5701 57.7433 60.9035 57.8467 61.3368 57.96C61.9235 58.0933 62.3901 58.2433 62.7368 58.41C63.0901 58.5767 63.3501 58.7867 63.5168 59.04C63.6835 59.2933 63.7668 59.6167 63.7668 60.01C63.7668 60.4367 63.6468 60.81 63.4068 61.13C63.1735 61.4433 62.8401 61.6833 62.4068 61.85C61.9801 62.0167 61.4868 62.1 60.9268 62.1ZM65.1528 62C65.0861 62 65.0295 61.9767 64.9828 61.93C64.9361 61.8833 64.9128 61.8267 64.9128 61.76V55.24C64.9128 55.1667 64.9361 55.11 64.9828 55.07C65.0295 55.0233 65.0861 55 65.1528 55H66.0928C66.1661 55 66.2228 55.0233 66.2628 55.07C66.3095 55.11 66.3328 55.1667 66.3328 55.24V61.76C66.3328 61.8267 66.3095 61.8833 66.2628 61.93C66.2228 61.9767 66.1661 62 66.0928 62H65.1528ZM68.1411 62C68.0744 62 68.0178 61.9767 67.9711 61.93C67.9244 61.8833 67.9011 61.8267 67.9011 61.76V55.25C67.9011 55.1767 67.9211 55.1167 67.9611 55.07C68.0078 55.0233 68.0678 55 68.1411 55H68.9111C68.9911 55 69.0511 55.0167 69.0911 55.05C69.1311 55.0767 69.1678 55.1133 69.2011 55.16L72.0811 59.64V55.25C72.0811 55.1767 72.1011 55.1167 72.1411 55.07C72.1878 55.0233 72.2478 55 72.3211 55H73.1611C73.2344 55 73.2944 55.0233 73.3411 55.07C73.3878 55.1167 73.4111 55.1767 73.4111 55.25V61.75C73.4111 61.8233 73.3878 61.8833 73.3411 61.93C73.2944 61.9767 73.2378 62 73.1711 62H72.3911C72.2778 62 72.1811 61.9467 72.1011 61.84L69.2311 57.46V61.76C69.2311 61.8333 69.2078 61.8933 69.1611 61.94C69.1144 61.98 69.0544 62 68.9811 62H68.1411ZM77.6914 62.1C76.7781 62.1 76.0647 61.8633 75.5514 61.39C75.0447 60.9167 74.7747 60.2567 74.7414 59.41C74.7347 59.2167 74.7314 58.9067 74.7314 58.48C74.7314 58.0533 74.7347 57.7433 74.7414 57.55C74.7747 56.7233 75.0481 56.0767 75.5614 55.61C76.0814 55.1367 76.7914 54.9 77.6914 54.9C78.3047 54.9 78.8314 55.0033 79.2714 55.21C79.7114 55.4167 80.0447 55.6767 80.2714 55.99C80.4981 56.2967 80.6181 56.6 80.6314 56.9V56.92C80.6314 56.9733 80.6114 57.02 80.5714 57.06C80.5314 57.0933 80.4814 57.11 80.4214 57.11H79.3914C79.3247 57.11 79.2747 57.1 79.2414 57.08C79.2081 57.0533 79.1781 57.01 79.1514 56.95C79.0581 56.7033 78.8947 56.4933 78.6614 56.32C78.4281 56.14 78.1047 56.05 77.6914 56.05C77.2247 56.05 76.8581 56.1767 76.5914 56.43C76.3314 56.6833 76.1914 57.0733 76.1714 57.6C76.1647 57.7933 76.1614 58.0867 76.1614 58.48C76.1614 58.8667 76.1647 59.16 76.1714 59.36C76.2114 60.42 76.7247 60.95 77.7114 60.95C78.1847 60.95 78.5647 60.8233 78.8514 60.57C79.1381 60.31 79.2814 59.9267 79.2814 59.42V59.11H78.0614C77.9881 59.11 77.9281 59.0867 77.8814 59.04C77.8414 58.9933 77.8214 58.9333 77.8214 58.86V58.33C77.8214 58.2567 77.8414 58.1967 77.8814 58.15C77.9281 58.1033 77.9881 58.08 78.0614 58.08H80.4514C80.5247 58.08 80.5814 58.1033 80.6214 58.15C80.6681 58.1967 80.6914 58.2567 80.6914 58.33V59.38C80.6914 59.9333 80.5681 60.4167 80.3214 60.83C80.0814 61.2367 79.7347 61.55 79.2814 61.77C78.8281 61.99 78.2981 62.1 77.6914 62.1ZM86.6885 62.1C86.0952 62.1 85.5852 62.01 85.1585 61.83C84.7318 61.65 84.4085 61.4133 84.1885 61.12C83.9685 60.8267 83.8518 60.51 83.8385 60.17C83.8385 60.11 83.8585 60.06 83.8985 60.02C83.9385 59.98 83.9885 59.96 84.0485 59.96H84.9385C85.0185 59.96 85.0785 59.9767 85.1185 60.01C85.1652 60.0367 85.2085 60.0833 85.2485 60.15C85.3152 60.3767 85.4685 60.5667 85.7085 60.72C85.9485 60.8733 86.2752 60.95 86.6885 60.95C87.1618 60.95 87.5185 60.8733 87.7585 60.72C87.9985 60.56 88.1185 60.34 88.1185 60.06C88.1185 59.8733 88.0552 59.72 87.9285 59.6C87.8085 59.48 87.6252 59.3767 87.3785 59.29C87.1385 59.2033 86.7785 59.0967 86.2985 58.97C85.5118 58.7833 84.9352 58.5367 84.5685 58.23C84.2085 57.9167 84.0285 57.4733 84.0285 56.9C84.0285 56.5133 84.1318 56.17 84.3385 55.87C84.5518 55.57 84.8552 55.3333 85.2485 55.16C85.6485 54.9867 86.1118 54.9 86.6385 54.9C87.1852 54.9 87.6585 54.9967 88.0585 55.19C88.4585 55.3833 88.7618 55.6267 88.9685 55.92C89.1818 56.2067 89.2952 56.4933 89.3085 56.78C89.3085 56.84 89.2885 56.89 89.2485 56.93C89.2085 56.97 89.1585 56.99 89.0985 56.99H88.1685C88.0285 56.99 87.9318 56.9267 87.8785 56.8C87.8385 56.5867 87.7052 56.41 87.4785 56.27C87.2518 56.1233 86.9718 56.05 86.6385 56.05C86.2652 56.05 85.9718 56.12 85.7585 56.26C85.5452 56.4 85.4385 56.6033 85.4385 56.87C85.4385 57.0567 85.4918 57.21 85.5985 57.33C85.7052 57.45 85.8718 57.5567 86.0985 57.65C86.3318 57.7433 86.6652 57.8467 87.0985 57.96C87.6852 58.0933 88.1518 58.2433 88.4985 58.41C88.8518 58.5767 89.1118 58.7867 89.2785 59.04C89.4452 59.2933 89.5285 59.6167 89.5285 60.01C89.5285 60.4367 89.4085 60.81 89.1685 61.13C88.9352 61.4433 88.6018 61.6833 88.1685 61.85C87.7418 62.0167 87.2485 62.1 86.6885 62.1ZM92.3764 62C92.3097 62 92.2531 61.9767 92.2064 61.93C92.1597 61.8833 92.1364 61.8267 92.1364 61.76V56.23H90.2864C90.2197 56.23 90.1631 56.2067 90.1164 56.16C90.0697 56.1133 90.0464 56.0567 90.0464 55.99V55.25C90.0464 55.1767 90.0664 55.1167 90.1064 55.07C90.1531 55.0233 90.2131 55 90.2864 55H95.3864C95.4597 55 95.5197 55.0233 95.5664 55.07C95.6131 55.1167 95.6364 55.1767 95.6364 55.25V55.99C95.6364 56.0567 95.6131 56.1133 95.5664 56.16C95.5197 56.2067 95.4597 56.23 95.3864 56.23H93.5464V61.76C93.5464 61.8267 93.5231 61.8833 93.4764 61.93C93.4297 61.9767 93.3697 62 93.2964 62H92.3764ZM95.4887 62C95.4353 62 95.3853 61.98 95.3387 61.94C95.2987 61.9 95.2787 61.85 95.2787 61.79L95.2987 61.7L97.7087 55.25C97.7553 55.0833 97.872 55 98.0587 55H99.1487C99.322 55 99.4387 55.0833 99.4987 55.25L101.909 61.7C101.915 61.72 101.919 61.75 101.919 61.79C101.919 61.85 101.899 61.9 101.859 61.94C101.819 61.98 101.772 62 101.719 62H100.849C100.762 62 100.695 61.98 100.649 61.94C100.602 61.9 100.572 61.8567 100.559 61.81L100.089 60.59H97.1187L96.6487 61.81C96.5953 61.9367 96.4987 62 96.3587 62H95.4887ZM99.7387 59.44L98.5987 56.35L97.4687 59.44H99.7387ZM103.092 62C103.026 62 102.969 61.9767 102.922 61.93C102.876 61.8833 102.852 61.8267 102.852 61.76V55.25C102.852 55.1767 102.872 55.1167 102.912 55.07C102.959 55.0233 103.019 55 103.092 55H105.682C106.496 55 107.132 55.19 107.592 55.57C108.059 55.95 108.292 56.49 108.292 57.19C108.292 57.6767 108.172 58.0867 107.932 58.42C107.699 58.7467 107.372 58.9833 106.952 59.13L108.412 61.68C108.432 61.72 108.442 61.7567 108.442 61.79C108.442 61.85 108.419 61.9 108.372 61.94C108.332 61.98 108.286 62 108.232 62H107.322C107.216 62 107.132 61.9767 107.072 61.93C107.019 61.8833 106.969 61.8167 106.922 61.73L105.632 59.36H104.242V61.76C104.242 61.8267 104.219 61.8833 104.172 61.93C104.132 61.9767 104.076 62 104.002 62H103.092ZM105.652 58.23C106.052 58.23 106.352 58.14 106.552 57.96C106.759 57.78 106.862 57.52 106.862 57.18C106.862 56.84 106.759 56.5767 106.552 56.39C106.352 56.2033 106.052 56.11 105.652 56.11H104.242V58.23H105.652Z" fill="black"/>
<path d="M120.21 62.1C119.617 62.1 119.107 62.01 118.68 61.83C118.253 61.65 117.93 61.4133 117.71 61.12C117.49 60.8267 117.373 60.51 117.36 60.17C117.36 60.11 117.38 60.06 117.42 60.02C117.46 59.98 117.51 59.96 117.57 59.96H118.46C118.54 59.96 118.6 59.9767 118.64 60.01C118.687 60.0367 118.73 60.0833 118.77 60.15C118.837 60.3767 118.99 60.5667 119.23 60.72C119.47 60.8733 119.797 60.95 120.21 60.95C120.683 60.95 121.04 60.8733 121.28 60.72C121.52 60.56 121.64 60.34 121.64 60.06C121.64 59.8733 121.577 59.72 121.45 59.6C121.33 59.48 121.147 59.3767 120.9 59.29C120.66 59.2033 120.3 59.0967 119.82 58.97C119.033 58.7833 118.457 58.5367 118.09 58.23C117.73 57.9167 117.55 57.4733 117.55 56.9C117.55 56.5133 117.653 56.17 117.86 55.87C118.073 55.57 118.377 55.3333 118.77 55.16C119.17 54.9867 119.633 54.9 120.16 54.9C120.707 54.9 121.18 54.9967 121.58 55.19C121.98 55.3833 122.283 55.6267 122.49 55.92C122.703 56.2067 122.817 56.4933 122.83 56.78C122.83 56.84 122.81 56.89 122.77 56.93C122.73 56.97 122.68 56.99 122.62 56.99H121.69C121.55 56.99 121.453 56.9267 121.4 56.8C121.36 56.5867 121.227 56.41 121 56.27C120.773 56.1233 120.493 56.05 120.16 56.05C119.787 56.05 119.493 56.12 119.28 56.26C119.067 56.4 118.96 56.6033 118.96 56.87C118.96 57.0567 119.013 57.21 119.12 57.33C119.227 57.45 119.393 57.5567 119.62 57.65C119.853 57.7433 120.187 57.8467 120.62 57.96C121.207 58.0933 121.673 58.2433 122.02 58.41C122.373 58.5767 122.633 58.7867 122.8 59.04C122.967 59.2933 123.05 59.6167 123.05 60.01C123.05 60.4367 122.93 60.81 122.69 61.13C122.457 61.4433 122.123 61.6833 121.69 61.85C121.263 62.0167 120.77 62.1 120.21 62.1ZM126.986 62.1C126.086 62.1 125.386 61.87 124.886 61.41C124.386 60.95 124.136 60.2533 124.136 59.32V55.25C124.136 55.1767 124.156 55.1167 124.196 55.07C124.243 55.0233 124.303 55 124.376 55H125.286C125.359 55 125.416 55.0233 125.456 55.07C125.503 55.1167 125.526 55.1767 125.526 55.25V59.32C125.526 59.8533 125.653 60.2567 125.906 60.53C126.159 60.7967 126.519 60.93 126.986 60.93C127.453 60.93 127.809 60.7967 128.056 60.53C128.309 60.2567 128.436 59.8533 128.436 59.32V55.25C128.436 55.1767 128.459 55.1167 128.506 55.07C128.553 55.0233 128.613 55 128.686 55H129.586C129.659 55 129.716 55.0233 129.756 55.07C129.803 55.1167 129.826 55.1767 129.826 55.25V59.32C129.826 60.2533 129.576 60.95 129.076 61.41C128.583 61.87 127.886 62.1 126.986 62.1ZM131.565 62C131.498 62 131.442 61.9767 131.395 61.93C131.348 61.8833 131.325 61.8267 131.325 61.76V55.25C131.325 55.1767 131.345 55.1167 131.385 55.07C131.432 55.0233 131.492 55 131.565 55H134.245C135.045 55 135.675 55.19 136.135 55.57C136.595 55.9433 136.825 56.4933 136.825 57.22C136.825 57.9467 136.595 58.4967 136.135 58.87C135.682 59.2367 135.052 59.42 134.245 59.42H132.755V61.76C132.755 61.8267 132.732 61.8833 132.685 61.93C132.645 61.9767 132.588 62 132.515 62H131.565ZM134.195 58.31C134.582 58.31 134.878 58.22 135.085 58.04C135.292 57.8533 135.395 57.58 135.395 57.22C135.395 56.8733 135.295 56.6033 135.095 56.41C134.895 56.21 134.595 56.11 134.195 56.11H132.735V58.31H134.195ZM138.157 62C138.09 62 138.033 61.9767 137.987 61.93C137.94 61.8833 137.917 61.8267 137.917 61.76V55.25C137.917 55.1767 137.937 55.1167 137.977 55.07C138.023 55.0233 138.083 55 138.157 55H142.557C142.63 55 142.69 55.0233 142.737 55.07C142.783 55.1167 142.807 55.1767 142.807 55.25V55.91C142.807 55.9833 142.783 56.0433 142.737 56.09C142.69 56.13 142.63 56.15 142.557 56.15H139.267V57.92H142.337C142.41 57.92 142.47 57.9433 142.517 57.99C142.563 58.03 142.587 58.0867 142.587 58.16V58.78C142.587 58.8533 142.563 58.9133 142.517 58.96C142.47 59 142.41 59.02 142.337 59.02H139.267V60.85H142.637C142.71 60.85 142.77 60.8733 142.817 60.92C142.863 60.9667 142.887 61.0267 142.887 61.1V61.76C142.887 61.8333 142.863 61.8933 142.817 61.94C142.77 61.98 142.71 62 142.637 62H138.157ZM144.377 62C144.311 62 144.254 61.9767 144.207 61.93C144.161 61.8833 144.137 61.8267 144.137 61.76V55.25C144.137 55.1767 144.157 55.1167 144.197 55.07C144.244 55.0233 144.304 55 144.377 55H146.967C147.781 55 148.417 55.19 148.877 55.57C149.344 55.95 149.577 56.49 149.577 57.19C149.577 57.6767 149.457 58.0867 149.217 58.42C148.984 58.7467 148.657 58.9833 148.237 59.13L149.697 61.68C149.717 61.72 149.727 61.7567 149.727 61.79C149.727 61.85 149.704 61.9 149.657 61.94C149.617 61.98 149.571 62 149.517 62H148.607C148.501 62 148.417 61.9767 148.357 61.93C148.304 61.8833 148.254 61.8167 148.207 61.73L146.917 59.36H145.527V61.76C145.527 61.8267 145.504 61.8833 145.457 61.93C145.417 61.9767 145.361 62 145.287 62H144.377ZM146.937 58.23C147.337 58.23 147.637 58.14 147.837 57.96C148.044 57.78 148.147 57.52 148.147 57.18C148.147 56.84 148.044 56.5767 147.837 56.39C147.637 56.2033 147.337 56.11 146.937 56.11H145.527V58.23H146.937ZM155.581 62.1C154.988 62.1 154.478 62.01 154.051 61.83C153.624 61.65 153.301 61.4133 153.081 61.12C152.861 60.8267 152.744 60.51 152.731 60.17C152.731 60.11 152.751 60.06 152.791 60.02C152.831 59.98 152.881 59.96 152.941 59.96H153.831C153.911 59.96 153.971 59.9767 154.011 60.01C154.058 60.0367 154.101 60.0833 154.141 60.15C154.208 60.3767 154.361 60.5667 154.601 60.72C154.841 60.8733 155.168 60.95 155.581 60.95C156.054 60.95 156.411 60.8733 156.651 60.72C156.891 60.56 157.011 60.34 157.011 60.06C157.011 59.8733 156.948 59.72 156.821 59.6C156.701 59.48 156.518 59.3767 156.271 59.29C156.031 59.2033 155.671 59.0967 155.191 58.97C154.404 58.7833 153.828 58.5367 153.461 58.23C153.101 57.9167 152.921 57.4733 152.921 56.9C152.921 56.5133 153.024 56.17 153.231 55.87C153.444 55.57 153.748 55.3333 154.141 55.16C154.541 54.9867 155.004 54.9 155.531 54.9C156.078 54.9 156.551 54.9967 156.951 55.19C157.351 55.3833 157.654 55.6267 157.861 55.92C158.074 56.2067 158.188 56.4933 158.201 56.78C158.201 56.84 158.181 56.89 158.141 56.93C158.101 56.97 158.051 56.99 157.991 56.99H157.061C156.921 56.99 156.824 56.9267 156.771 56.8C156.731 56.5867 156.598 56.41 156.371 56.27C156.144 56.1233 155.864 56.05 155.531 56.05C155.158 56.05 154.864 56.12 154.651 56.26C154.438 56.4 154.331 56.6033 154.331 56.87C154.331 57.0567 154.384 57.21 154.491 57.33C154.598 57.45 154.764 57.5567 154.991 57.65C155.224 57.7433 155.558 57.8467 155.991 57.96C156.578 58.0933 157.044 58.2433 157.391 58.41C157.744 58.5767 158.004 58.7867 158.171 59.04C158.338 59.2933 158.421 59.6167 158.421 60.01C158.421 60.4367 158.301 60.81 158.061 61.13C157.828 61.4433 157.494 61.6833 157.061 61.85C156.634 62.0167 156.141 62.1 155.581 62.1ZM161.269 62C161.202 62 161.146 61.9767 161.099 61.93C161.052 61.8833 161.029 61.8267 161.029 61.76V56.23H159.179C159.112 56.23 159.056 56.2067 159.009 56.16C158.962 56.1133 158.939 56.0567 158.939 55.99V55.25C158.939 55.1767 158.959 55.1167 158.999 55.07C159.046 55.0233 159.106 55 159.179 55H164.279C164.352 55 164.412 55.0233 164.459 55.07C164.506 55.1167 164.529 55.1767 164.529 55.25V55.99C164.529 56.0567 164.506 56.1133 164.459 56.16C164.412 56.2067 164.352 56.23 164.279 56.23H162.439V61.76C162.439 61.8267 162.416 61.8833 162.369 61.93C162.322 61.9767 162.262 62 162.189 62H161.269ZM164.381 62C164.328 62 164.278 61.98 164.231 61.94C164.191 61.9 164.171 61.85 164.171 61.79L164.191 61.7L166.601 55.25C166.648 55.0833 166.765 55 166.951 55H168.041C168.215 55 168.331 55.0833 168.391 55.25L170.801 61.7C170.808 61.72 170.811 61.75 170.811 61.79C170.811 61.85 170.791 61.9 170.751 61.94C170.711 61.98 170.665 62 170.611 62H169.741C169.655 62 169.588 61.98 169.541 61.94C169.495 61.9 169.465 61.8567 169.451 61.81L168.981 60.59H166.011L165.541 61.81C165.488 61.9367 165.391 62 165.251 62H164.381ZM168.631 59.44L167.491 56.35L166.361 59.44H168.631ZM171.985 62C171.918 62 171.862 61.9767 171.815 61.93C171.768 61.8833 171.745 61.8267 171.745 61.76V55.25C171.745 55.1767 171.765 55.1167 171.805 55.07C171.852 55.0233 171.912 55 171.985 55H174.575C175.388 55 176.025 55.19 176.485 55.57C176.952 55.95 177.185 56.49 177.185 57.19C177.185 57.6767 177.065 58.0867 176.825 58.42C176.592 58.7467 176.265 58.9833 175.845 59.13L177.305 61.68C177.325 61.72 177.335 61.7567 177.335 61.79C177.335 61.85 177.312 61.9 177.265 61.94C177.225 61.98 177.178 62 177.125 62H176.215C176.108 62 176.025 61.9767 175.965 61.93C175.912 61.8833 175.862 61.8167 175.815 61.73L174.525 59.36H173.135V61.76C173.135 61.8267 173.112 61.8833 173.065 61.93C173.025 61.9767 172.968 62 172.895 62H171.985ZM174.545 58.23C174.945 58.23 175.245 58.14 175.445 57.96C175.652 57.78 175.755 57.52 175.755 57.18C175.755 56.84 175.652 56.5767 175.445 56.39C175.245 56.2033 174.945 56.11 174.545 56.11H173.135V58.23H174.545Z" fill="black"/>
<path d="M163.02 97C162.953 97 162.897 96.9767 162.85 96.93C162.803 96.8833 162.78 96.8267 162.78 96.76V90.25C162.78 90.1767 162.8 90.1167 162.84 90.07C162.887 90.0233 162.947 90 163.02 90H165.46C167.42 90 168.42 90.9067 168.46 92.72C168.473 93.1067 168.48 93.3667 168.48 93.5C168.48 93.6267 168.473 93.8833 168.46 94.27C168.433 95.2033 168.183 95.8933 167.71 96.34C167.237 96.78 166.503 97 165.51 97H163.02ZM165.46 95.85C166.02 95.85 166.423 95.7267 166.67 95.48C166.917 95.2267 167.047 94.8133 167.06 94.24C167.073 93.84 167.08 93.59 167.08 93.49C167.08 93.3833 167.073 93.1367 167.06 92.75C167.047 92.2033 166.907 91.8 166.64 91.54C166.38 91.28 165.97 91.15 165.41 91.15H164.17V95.85H165.46ZM170.051 97C169.985 97 169.928 96.9767 169.881 96.93C169.835 96.8833 169.811 96.8267 169.811 96.76V90.24C169.811 90.1667 169.835 90.11 169.881 90.07C169.928 90.0233 169.985 90 170.051 90H170.991C171.065 90 171.121 90.0233 171.161 90.07C171.208 90.11 171.231 90.1667 171.231 90.24V96.76C171.231 96.8267 171.208 96.8833 171.161 96.93C171.121 96.9767 171.065 97 170.991 97H170.051ZM175.52 97.1C174.606 97.1 173.893 96.8633 173.38 96.39C172.873 95.9167 172.603 95.2567 172.57 94.41C172.563 94.2167 172.56 93.9067 172.56 93.48C172.56 93.0533 172.563 92.7433 172.57 92.55C172.603 91.7233 172.876 91.0767 173.39 90.61C173.91 90.1367 174.62 89.9 175.52 89.9C176.133 89.9 176.66 90.0033 177.1 90.21C177.54 90.4167 177.873 90.6767 178.1 90.99C178.326 91.2967 178.446 91.6 178.46 91.9V91.92C178.46 91.9733 178.44 92.02 178.4 92.06C178.36 92.0933 178.31 92.11 178.25 92.11H177.22C177.153 92.11 177.103 92.1 177.07 92.08C177.036 92.0533 177.006 92.01 176.98 91.95C176.886 91.7033 176.723 91.4933 176.49 91.32C176.256 91.14 175.933 91.05 175.52 91.05C175.053 91.05 174.686 91.1767 174.42 91.43C174.16 91.6833 174.02 92.0733 174 92.6C173.993 92.7933 173.99 93.0867 173.99 93.48C173.99 93.8667 173.993 94.16 174 94.36C174.04 95.42 174.553 95.95 175.54 95.95C176.013 95.95 176.393 95.8233 176.68 95.57C176.966 95.31 177.11 94.9267 177.11 94.42V94.11H175.89C175.816 94.11 175.756 94.0867 175.71 94.04C175.67 93.9933 175.65 93.9333 175.65 93.86V93.33C175.65 93.2567 175.67 93.1967 175.71 93.15C175.756 93.1033 175.816 93.08 175.89 93.08H178.28C178.353 93.08 178.41 93.1033 178.45 93.15C178.496 93.1967 178.52 93.2567 178.52 93.33V94.38C178.52 94.9333 178.396 95.4167 178.15 95.83C177.91 96.2367 177.563 96.55 177.11 96.77C176.656 96.99 176.126 97.1 175.52 97.1ZM180.041 97C179.975 97 179.918 96.9767 179.871 96.93C179.825 96.8833 179.801 96.8267 179.801 96.76V90.24C179.801 90.1667 179.825 90.11 179.871 90.07C179.918 90.0233 179.975 90 180.041 90H180.981C181.055 90 181.111 90.0233 181.151 90.07C181.198 90.11 181.221 90.1667 181.221 90.24V96.76C181.221 96.8267 181.198 96.8833 181.151 96.93C181.111 96.9767 181.055 97 180.981 97H180.041ZM187.505 97.1C186.912 97.1 186.402 97.01 185.975 96.83C185.548 96.65 185.225 96.4133 185.005 96.12C184.785 95.8267 184.668 95.51 184.655 95.17C184.655 95.11 184.675 95.06 184.715 95.02C184.755 94.98 184.805 94.96 184.865 94.96H185.755C185.835 94.96 185.895 94.9767 185.935 95.01C185.982 95.0367 186.025 95.0833 186.065 95.15C186.132 95.3767 186.285 95.5667 186.525 95.72C186.765 95.8733 187.092 95.95 187.505 95.95C187.978 95.95 188.335 95.8733 188.575 95.72C188.815 95.56 188.935 95.34 188.935 95.06C188.935 94.8733 188.872 94.72 188.745 94.6C188.625 94.48 188.442 94.3767 188.195 94.29C187.955 94.2033 187.595 94.0967 187.115 93.97C186.328 93.7833 185.752 93.5367 185.385 93.23C185.025 92.9167 184.845 92.4733 184.845 91.9C184.845 91.5133 184.948 91.17 185.155 90.87C185.368 90.57 185.672 90.3333 186.065 90.16C186.465 89.9867 186.928 89.9 187.455 89.9C188.002 89.9 188.475 89.9967 188.875 90.19C189.275 90.3833 189.578 90.6267 189.785 90.92C189.998 91.2067 190.112 91.4933 190.125 91.78C190.125 91.84 190.105 91.89 190.065 91.93C190.025 91.97 189.975 91.99 189.915 91.99H188.985C188.845 91.99 188.748 91.9267 188.695 91.8C188.655 91.5867 188.522 91.41 188.295 91.27C188.068 91.1233 187.788 91.05 187.455 91.05C187.082 91.05 186.788 91.12 186.575 91.26C186.362 91.4 186.255 91.6033 186.255 91.87C186.255 92.0567 186.308 92.21 186.415 92.33C186.522 92.45 186.688 92.5567 186.915 92.65C187.148 92.7433 187.482 92.8467 187.915 92.96C188.502 93.0933 188.968 93.2433 189.315 93.41C189.668 93.5767 189.928 93.7867 190.095 94.04C190.262 94.2933 190.345 94.6167 190.345 95.01C190.345 95.4367 190.225 95.81 189.985 96.13C189.752 96.4433 189.418 96.6833 188.985 96.85C188.558 97.0167 188.065 97.1 187.505 97.1ZM193.193 97C193.126 97 193.069 96.9767 193.023 96.93C192.976 96.8833 192.953 96.8267 192.953 96.76V91.23H191.103C191.036 91.23 190.979 91.2067 190.933 91.16C190.886 91.1133 190.863 91.0567 190.863 90.99V90.25C190.863 90.1767 190.883 90.1167 190.923 90.07C190.969 90.0233 191.029 90 191.103 90H196.203C196.276 90 196.336 90.0233 196.383 90.07C196.429 90.1167 196.453 90.1767 196.453 90.25V90.99C196.453 91.0567 196.429 91.1133 196.383 91.16C196.336 91.2067 196.276 91.23 196.203 91.23H194.363V96.76C194.363 96.8267 194.339 96.8833 194.293 96.93C194.246 96.9767 194.186 97 194.113 97H193.193ZM196.305 97C196.252 97 196.202 96.98 196.155 96.94C196.115 96.9 196.095 96.85 196.095 96.79L196.115 96.7L198.525 90.25C198.572 90.0833 198.688 90 198.875 90H199.965C200.138 90 200.255 90.0833 200.315 90.25L202.725 96.7C202.732 96.72 202.735 96.75 202.735 96.79C202.735 96.85 202.715 96.9 202.675 96.94C202.635 96.98 202.588 97 202.535 97H201.665C201.578 97 201.512 96.98 201.465 96.94C201.418 96.9 201.388 96.8567 201.375 96.81L200.905 95.59H197.935L197.465 96.81C197.412 96.9367 197.315 97 197.175 97H196.305ZM200.555 94.44L199.415 91.35L198.285 94.44H200.555ZM203.909 97C203.842 97 203.785 96.9767 203.739 96.93C203.692 96.8833 203.669 96.8267 203.669 96.76V90.25C203.669 90.1767 203.689 90.1167 203.729 90.07C203.775 90.0233 203.835 90 203.909 90H206.499C207.312 90 207.949 90.19 208.409 90.57C208.875 90.95 209.109 91.49 209.109 92.19C209.109 92.6767 208.989 93.0867 208.749 93.42C208.515 93.7467 208.189 93.9833 207.769 94.13L209.229 96.68C209.249 96.72 209.259 96.7567 209.259 96.79C209.259 96.85 209.235 96.9 209.189 96.94C209.149 96.98 209.102 97 209.049 97H208.139C208.032 97 207.949 96.9767 207.889 96.93C207.835 96.8833 207.785 96.8167 207.739 96.73L206.449 94.36H205.059V96.76C205.059 96.8267 205.035 96.8833 204.989 96.93C204.949 96.9767 204.892 97 204.819 97H203.909ZM206.469 93.23C206.869 93.23 207.169 93.14 207.369 92.96C207.575 92.78 207.679 92.52 207.679 92.18C207.679 91.84 207.575 91.5767 207.369 91.39C207.169 91.2033 206.869 91.11 206.469 91.11H205.059V93.23H206.469Z" fill="black"/>
</svg>
