<svg width="223" height="158" viewBox="0 0 223 158" fill="none" xmlns="http://www.w3.org/2000/svg">
<path fill-rule="evenodd" clip-rule="evenodd" d="M151.815 94.1018C141.486 83.7184 127.263 77.3397 111.5 77.3397V23.0818C142.284 23.0818 170.188 35.636 190.282 55.8377L151.815 94.1018Z" fill="#FFF500"/>
<path fill-rule="evenodd" clip-rule="evenodd" d="M71.02 94.2036C60.6366 104.532 54.2579 118.755 54.2579 134.518H0C0 103.734 12.5542 75.8304 32.7559 55.7357L71.02 94.2036Z" fill="#FF1701"/>
<path fill-rule="evenodd" clip-rule="evenodd" d="M151.98 94.2036C162.363 104.532 168.742 118.755 168.742 134.518H223C223 103.734 210.446 75.8304 190.244 55.7357L151.98 94.2036Z" fill="#28B04B"/>
<path fill-rule="evenodd" clip-rule="evenodd" d="M111.43 77.4197C96.7848 77.3808 82.2174 82.9273 71.071 94.0738L32.7048 55.7076C54.4727 33.9398 83.0804 23.0864 111.574 23.162L111.43 77.4197Z" fill="#FFBF01"/>
<path d="M119.186 152.867C120.26 154.211 121.822 155.076 123.532 155.274C125.241 155.471 126.959 154.984 128.312 153.919L193.623 102.536L121.092 143.099C120.266 143.563 119.551 144.2 118.996 144.967C118.441 145.734 118.06 146.613 117.879 147.542C117.697 148.471 117.72 149.429 117.946 150.348C118.172 151.268 118.595 152.127 119.186 152.867Z" fill="black"/>
<path d="M156.869 121.917C156.809 121.817 156.756 121.713 156.709 121.606L156.255 120.682C156.062 120.279 155.835 119.758 155.533 119.178L154.441 117.17C154.021 116.431 153.491 115.633 152.945 114.742C152.399 113.852 151.702 112.953 150.979 111.978C149.291 109.798 147.434 107.753 145.426 105.862C140.156 100.961 133.864 97.2908 127.003 95.1172C122.96 93.8464 118.755 93.1645 114.518 93.0925C105.375 92.8931 96.3616 95.2906 88.5252 100.007C84.8875 102.185 81.5779 104.869 78.6959 107.979C73.8234 113.278 70.1853 119.59 68.0432 126.462C67.2437 129.098 66.6483 131.791 66.2621 134.519C66.1193 135.72 66.0101 136.854 65.9345 137.879C65.8589 138.904 65.8337 139.87 65.8421 140.727C65.8505 141.584 65.8421 142.34 65.8925 143.004C65.9429 143.668 65.9849 144.222 66.0101 144.684C66.0353 145.146 66.0689 145.457 66.0857 145.709C66.0932 145.827 66.0932 145.944 66.0857 146.062C66.0575 145.949 66.0378 145.834 66.0269 145.717C66.0269 145.465 65.9597 145.121 65.9177 144.692C65.8757 144.264 65.7916 143.684 65.7496 143.012C65.7076 142.34 65.6992 141.584 65.6656 140.727C65.632 139.87 65.6656 138.912 65.716 137.862C65.7664 136.812 65.8757 135.686 66.0101 134.502C66.3539 131.751 66.9157 129.032 67.6903 126.37C69.8102 119.435 73.4494 113.061 78.343 107.711C81.2415 104.564 84.5773 101.851 88.248 99.6538C96.1463 94.8807 105.242 92.4589 114.468 92.6724C118.746 92.7522 122.99 93.4483 127.07 94.7391C133.981 96.9546 140.31 100.686 145.594 105.661C147.599 107.576 149.45 109.646 151.131 111.852C151.853 112.844 152.5 113.776 153.08 114.658C153.659 115.54 154.138 116.339 154.55 117.111L155.609 119.144C155.903 119.733 156.113 120.253 156.297 120.674C156.482 121.094 156.608 121.388 156.709 121.614C156.77 121.711 156.823 121.812 156.869 121.917Z" fill="#263238"/>
<path d="M147.367 119.598C147.216 119.448 147.084 119.282 146.972 119.102C146.72 118.766 146.392 118.262 145.897 117.623C144.548 115.828 143.059 114.142 141.444 112.583C139.058 110.283 136.407 108.275 133.547 106.601C126.519 102.44 118.389 100.52 110.242 101.098C106.936 101.317 103.668 101.926 100.505 102.913C98.3668 103.588 96.2852 104.431 94.2797 105.433C93.5656 105.761 93.0363 106.08 92.6583 106.273C92.4727 106.381 92.2789 106.474 92.0786 106.551C92.245 106.414 92.4252 106.296 92.6163 106.198C92.9776 105.988 93.4564 105.643 94.2041 105.29C96.189 104.23 98.2638 103.347 100.404 102.652C107.512 100.323 115.125 100.001 122.404 101.72C129.684 103.439 136.348 107.134 141.662 112.398C143.266 113.975 144.727 115.69 146.031 117.522C146.51 118.161 146.812 118.699 147.047 119.051C147.164 119.227 147.271 119.41 147.367 119.598Z" fill="#263238"/>
</svg>
