<svg width="97" height="97" viewBox="0 0 97 97" fill="none" xmlns="http://www.w3.org/2000/svg">
<path d="M25.9688 6.65625H29.1875V9.875H25.9688V6.65625Z" fill="black"/>
<path d="M32.4062 6.65625H45.2812V9.875H32.4062V6.65625Z" fill="black"/>
<path d="M62.9845 69.4219C62.9819 71.5553 62.1333 73.6005 60.6248 75.1091C59.1162 76.6176 57.071 77.4662 54.9376 77.4688H25.5375L31.0706 67.8865C30.8955 68.3798 30.8031 68.8985 30.797 69.4219C30.797 70.7024 31.3056 71.9304 32.2111 72.8359C33.1165 73.7413 34.3446 74.25 35.6251 74.25H42.0626C43.3431 74.25 44.5711 73.7413 45.4766 72.8359C46.382 71.9304 46.8907 70.7024 46.8907 69.4219C46.8907 68.1414 46.382 66.9133 45.4766 66.0079C44.5711 65.1024 43.3431 64.5938 42.0626 64.5938H35.6251C34.8588 64.5952 34.1039 64.7795 33.4231 65.1313C32.7424 65.4832 32.1554 65.9924 31.7111 66.6167C32.3502 65.1111 32.3907 63.4183 31.8242 61.8838C31.2577 60.3493 30.127 59.0889 28.6629 58.3597C27.1987 57.6305 25.5115 57.4875 23.9455 57.9599C22.3795 58.4323 21.0528 59.4846 20.2362 60.9018L14.7644 70.3843C14.7246 70.065 14.7042 69.7436 14.7032 69.4219V11.4844C14.7058 9.351 15.5544 7.30573 17.0629 5.7972C18.5714 4.28867 20.6167 3.44006 22.7501 3.4375H54.9376C56.3494 3.44078 57.7358 3.81398 58.9584 4.51992C60.1811 5.22585 61.1975 6.23987 61.9062 7.46094L64.692 5.85156C63.6999 4.14231 62.2773 2.72283 60.5659 1.73454C58.8544 0.746241 56.9139 0.223625 54.9376 0.21875H22.7501C19.7633 0.222158 16.8998 1.41016 14.7878 3.52214C12.6759 5.63412 11.4879 8.49759 11.4845 11.4844V42.5453C10.4603 43.0219 9.63565 43.8426 9.15408 44.8644L1.84913 60.7119C0.76773 63.0365 0.211135 65.5706 0.218829 68.1344V96.7812H3.43758V68.1344C3.4304 66.038 3.88538 63.9659 4.77014 62.0654L11.4845 47.4974V69.4219C11.4834 71.3441 11.976 73.2343 12.9152 74.9115C13.0364 75.1828 13.2303 75.4153 13.4755 75.5832C13.7207 75.7511 14.0076 75.8478 14.3044 75.8626C14.6012 75.8775 14.8963 75.8098 15.157 75.6672C15.4177 75.5246 15.6339 75.3126 15.7815 75.0547L23.0237 62.5112C23.4535 61.778 24.156 61.2445 24.9777 61.0273C25.7994 60.81 26.6738 60.9266 27.4098 61.3516C28.1459 61.7766 28.684 62.4755 28.9067 63.2957C29.1294 64.116 29.0187 64.9911 28.5986 65.73L21.3564 78.2734C21.2125 78.5224 21.1379 78.8054 21.1405 79.093C21.143 79.3805 21.2226 79.6622 21.3708 79.9086L24.8181 85.6379C25.5701 86.8913 25.9678 88.3253 25.9688 89.7869V96.7652H29.1876V89.7869C29.1873 87.7413 28.631 85.7342 27.5782 83.9803L25.5971 80.6875H54.9376C57.9244 80.6841 60.7878 79.4961 62.8998 77.3841C65.0118 75.2721 66.1998 72.4087 66.2032 69.4219V61.375H62.9845V69.4219ZM35.6251 67.8125H42.0626C42.4894 67.8125 42.8988 67.9821 43.2006 68.2839C43.5024 68.5857 43.672 68.995 43.672 69.4219C43.672 69.8487 43.5024 70.2581 43.2006 70.5599C42.8988 70.8617 42.4894 71.0312 42.0626 71.0312H35.6251C35.1982 71.0312 34.7889 70.8617 34.4871 70.5599C34.1853 70.2581 34.0157 69.8487 34.0157 69.4219C34.0157 68.995 34.1853 68.5857 34.4871 68.2839C34.7889 67.9821 35.1982 67.8125 35.6251 67.8125Z" fill="black"/>
<path d="M92.1302 19.2411C88.5108 14.0603 83.1124 10.3915 76.9631 8.9332C70.8138 7.47493 64.3429 8.32902 58.7825 11.3329C53.2221 14.3367 48.9606 19.2805 46.8093 25.223C44.658 31.1654 44.7671 37.6915 47.116 43.5587L41.6763 52.7804C41.5194 53.0459 41.4421 53.3508 41.4535 53.6589C41.4649 53.9671 41.5646 54.2655 41.7407 54.5186C41.9214 54.7712 42.17 54.9673 42.4578 55.0841C42.7456 55.2009 43.0606 55.2336 43.3662 55.1784L53.8754 53.215C57.4439 56.4139 61.8372 58.5492 66.5573 59.3789C68.0404 59.6339 69.5425 59.7631 71.0474 59.7651C75.758 59.7638 80.3779 58.4704 84.4044 56.0256C88.4309 53.5808 91.7096 50.0784 93.8836 45.8995C96.0577 41.7207 97.0438 37.0255 96.7347 32.3251C96.4255 27.6247 94.8329 23.0991 92.1302 19.2411ZM93.2246 37.9259C92.5168 41.9407 90.7329 45.6882 88.0632 48.7691C85.3935 51.8499 81.9379 54.1488 78.0647 55.4206C74.1914 56.6924 70.0457 56.8895 66.0693 55.9909C62.0929 55.0924 58.4348 53.1318 55.4848 50.3181C55.1829 50.0379 54.7861 49.8827 54.3743 49.8836C54.2775 49.8809 54.1806 49.8863 54.0846 49.8997L46.247 51.3642L50.3026 44.5082C50.4287 44.2874 50.5029 44.0408 50.5196 43.7871C50.5363 43.5334 50.4951 43.2792 50.3991 43.0437C48.6041 38.9817 48.0606 34.4767 48.838 30.1043C49.8753 24.2183 53.2082 18.9854 58.1036 15.5568C60.5276 13.8591 63.2623 12.6554 66.1514 12.0146C69.0406 11.3738 72.0276 11.3083 74.9421 11.8218C77.8566 12.3354 80.6413 13.418 83.1374 15.0078C85.6335 16.5976 87.792 18.6634 89.4897 21.0874C91.1874 23.5114 92.391 26.2461 93.0318 29.1352C93.6727 32.0244 93.7382 35.0114 93.2246 37.9259Z" fill="black"/>
<path d="M82.2969 24.3594H77.4688V22.75C77.4688 21.0427 76.7905 19.4053 75.5832 18.198C74.376 16.9907 72.7386 16.3125 71.0312 16.3125C69.3239 16.3125 67.6865 16.9907 66.4793 18.198C65.272 19.4053 64.5937 21.0427 64.5937 22.75V24.3594H59.7656C59.3388 24.3594 58.9294 24.5289 58.6276 24.8307C58.3258 25.1326 58.1562 25.5419 58.1562 25.9688V45.2812C58.1601 46.5606 58.67 47.7864 59.5746 48.691C60.4792 49.5956 61.7051 50.1056 62.9844 50.1094H79.0781C80.3574 50.1056 81.5833 49.5956 82.4879 48.691C83.3925 47.7864 83.9024 46.5606 83.9062 45.2812V25.9688C83.9062 25.5419 83.7367 25.1326 83.4349 24.8307C83.1331 24.5289 82.7237 24.3594 82.2969 24.3594ZM67.8125 22.75C67.8125 21.8963 68.1516 21.0776 68.7552 20.474C69.3589 19.8704 70.1776 19.5312 71.0312 19.5312C71.8849 19.5312 72.7036 19.8704 73.3073 20.474C73.9109 21.0776 74.25 21.8963 74.25 22.75V24.3594H67.8125V22.75ZM80.6875 45.2812C80.6875 45.7081 80.5179 46.1174 80.2161 46.4193C79.9143 46.7211 79.505 46.8906 79.0781 46.8906H62.9844C62.5575 46.8906 62.1482 46.7211 61.8464 46.4193C61.5446 46.1174 61.375 45.7081 61.375 45.2812V43.6719H80.6875V45.2812ZM80.6875 40.4531H61.375V27.5781H64.5937V30.7969H67.8125V27.5781H74.25V30.7969H77.4688V27.5781H80.6875V40.4531Z" fill="#28B04B"/>
<path d="M32.8779 21.6113L30.3995 24.0898C28.7312 22.9856 26.7123 22.5403 24.7344 22.8404C22.7565 23.1404 20.9604 24.1643 19.6947 25.7135C18.4289 27.2628 17.7836 29.2269 17.8839 31.2249C17.9843 33.223 18.8231 35.1125 20.2377 36.5272C21.6523 37.9418 23.5419 38.7806 25.54 38.8809C27.538 38.9813 29.5021 38.336 31.0514 37.0702C32.6006 35.8045 33.6245 34.0084 33.9245 32.0305C34.2246 30.0526 33.7793 28.0337 32.6751 26.3654L35.1536 23.887L32.8779 21.6113ZM30.797 30.796C30.797 31.7509 30.5138 32.6844 29.9833 33.4784C29.4528 34.2724 28.6987 34.8912 27.8165 35.2566C26.9343 35.6221 25.9635 35.7177 25.0269 35.5314C24.0904 35.3451 23.2301 34.8853 22.5549 34.21C21.8796 33.5348 21.4198 32.6745 21.2335 31.738C21.0472 30.8014 21.1428 29.8306 21.5083 28.9484C21.8737 28.0662 22.4925 27.3121 23.2865 26.7816C24.0805 26.2511 25.0139 25.9679 25.9689 25.9679C26.6858 25.9707 27.3928 26.1357 28.0369 26.4507L23.2217 31.266L25.4973 33.5416L30.3142 28.728C30.6291 29.3721 30.7942 30.0791 30.797 30.796Z" fill="#28B04B"/>
<path d="M37.2344 25.9688H43.6719V29.1875H37.2344V25.9688Z" fill="black"/>
<path d="M37.2344 32.4062H43.6719V35.625H37.2344V32.4062Z" fill="black"/>
</svg>
