<svg width="46" height="45" viewBox="0 0 46 45" fill="none" xmlns="http://www.w3.org/2000/svg">
<path d="M33.3041 17.4169C32.5941 17.7102 31.8375 17.9046 31.0486 17.999C31.8601 17.5428 32.4795 16.8258 32.7707 15.9617C32.0141 16.3865 31.1787 16.6865 30.2884 16.8539C29.57 16.1336 28.5461 15.6875 27.429 15.6875C25.2618 15.6875 23.5171 17.3439 23.5171 19.3744C23.5171 19.6666 23.5433 19.9475 23.6078 20.215C20.3533 20.0655 17.4737 18.5968 15.5392 16.3595C15.2014 16.9112 15.0033 17.5428 15.0033 18.2226C15.0033 19.4992 15.7015 20.6307 16.7421 21.2859C16.1132 21.2746 15.4962 21.1027 14.9735 20.8319C14.9735 20.8431 14.9735 20.8577 14.9735 20.8723C14.9735 22.6635 16.3304 24.1513 18.1098 24.4941C17.7911 24.5761 17.4438 24.6154 17.0834 24.6154C16.8328 24.6154 16.5798 24.602 16.3423 24.5525C16.8495 26.0122 18.2888 27.0854 20.0001 27.1202C18.6683 28.1012 16.9772 28.6923 15.1465 28.6923C14.8255 28.6923 14.5176 28.6788 14.2097 28.6417C15.9437 29.6947 17.9988 30.2958 20.2149 30.2958C27.4183 30.2958 31.3565 24.6772 31.3565 19.8071C31.3565 19.6441 31.3505 19.4868 31.3422 19.3306C32.1191 18.8114 32.7719 18.1631 33.3041 17.4169Z" fill="#68696A"/>
<path d="M45.185 22.1576C45.185 9.9205 35.211 0 22.9082 0C10.6053 0 0.631348 9.9205 0.631348 22.1576C0.631348 34.3945 10.6053 44.3151 22.9082 44.3151C35.211 44.3151 45.185 34.3945 45.185 22.1576ZM2.6565 22.1576C2.6565 11.0324 11.7232 2.01431 22.9082 2.01431C34.0932 2.01431 43.1599 11.0324 43.1599 22.1576C43.1599 33.2827 34.0932 42.3008 22.9082 42.3008C11.7232 42.3008 2.6565 33.2827 2.6565 22.1576Z" fill="#68696A"/>
</svg>
